<?xml version="1.0" standalone="no"?>
<!DOCTYPE svg PUBLIC "-//W3C//DTD SVG 1.1//EN" "http://www.w3.org/Graphics/SVG/1.1/DTD/svg11.dtd" >
<svg>
<metadata>
Created by FontForge 20090914 at Fri Aug 15 17:38:38 2014
 By www-data
(c) 2000 Nick Curtis. All Rights Reserved. Generated by Fontographer 3.52 
</metadata>
<defs>
<font id="Airstream" horiz-adv-x="275" >
  <font-face 
    font-family="Airstream"
    font-weight="400"
    font-stretch="normal"
    units-per-em="1000"
    panose-1="0 0 0 0 0 0 0 0 0 0"
    ascent="800"
    descent="-200"
    x-height="326"
    cap-height="609.999"
    bbox="-121 -299.002 955.993 779"
    underline-thickness="50"
    underline-position="-55"
    unicode-range="U+0020-U+F002"
  />
<missing-glyph 
 />
    <glyph glyph-name=".notdef" 
 />
    <glyph glyph-name="space" unicode=" " 
 />
    <glyph glyph-name="space" unicode="&#xa0;" 
 />
    <glyph glyph-name="exclam" unicode="!" horiz-adv-x="202" 
d="M151 100l-32 -98h-104l31 98h105v0zM311 593l-135 -414h-104l135 414h104v0z" />
    <glyph glyph-name="quotedbl" unicode="&#x22;" horiz-adv-x="140" 
d="M171 617l-62 -115h-95l63 115h94v0zM291 617l-62 -115h-95l63 115h94v0z" />
    <glyph glyph-name="numbersign" unicode="#" horiz-adv-x="500" 
 />
    <glyph glyph-name="dollar" unicode="$" horiz-adv-x="409" 
d="M468 514c0 -4 -0.507812 -7.83203 -1.50781 -11.499s-1.83301 -7.5 -2.5 -11.5c-2.66699 -10.667 -6.66699 -21 -12 -31s-11 -19.333 -17 -28l-34.5 -49l-34.5 -48l-81 57c6 8 11.833 16.167 17.5 24.5s11.5 16.5 17.5 24.5l16.5 24.5
c5.66699 8.33301 11.5 16.5 17.5 24.5c0.666992 0.666992 1.16699 1.33398 1.5 2.00098s0.833008 1.33398 1.5 2.00098c0.666992 1.33301 1.5 2.66602 2.5 3.99902s1.83301 2.66602 2.5 3.99902c0.666992 0.666992 1.33398 1.66699 2.00098 3s1 2.33301 1 3
c-6 -1.33301 -12.167 -3 -18.5 -5l-19.5 -6c-11.333 -4.66699 -22.666 -9.66699 -33.999 -15s-21.666 -11 -30.999 -17l-9.5 -6.5l-14.5 -10.5c-4 -3.33301 -8 -7 -12 -11s-7.33301 -8 -10 -12c-1.33301 -2.66699 -2.33301 -5.16699 -3 -7.5s-1 -4.5 -1 -6.5l2 -6
c0.666992 -2 1.66699 -3.66699 3 -5l25.5 -26.5l24.5 -27.5l24.5 -26.5l25.5 -27.5c6 -6 10.333 -12.833 13 -20.5s4.66699 -15.5 6 -23.5v-5.5v-4.5c0 -8 -0.833008 -15.833 -2.5 -23.5s-4.16699 -15.167 -7.5 -22.5c-9.33301 -22 -23.666 -39.667 -42.999 -53
s-40.666 -20 -63.999 -20h-8h-8l-38 -117h-70l38 117h-66h-66l32 99h93.5h92.5c4.66699 0 8.33398 1.5 11.001 4.5s4.66699 6.5 6 10.5l-22.5 25.5l-23.5 24.5l-22.5 24.5l-23.5 25.5c-10.667 11.333 -18.5 24 -23.5 38s-7.16699 28.333 -6.5 43
c0.666992 36.667 14.667 67.5 42 92.5s57 45.5 89 61.5c6.66699 3.33301 13.334 6.5 20.001 9.5s13.334 5.83301 20.001 8.5l20 61h70l-14 -39c7.33301 0.666992 14.333 1 21 1s13 -0.666992 19 -2c21.333 -4 38 -13.833 50 -29.5s17.667 -33.834 17 -54.501v-4.5v-4.5v0z
" />
    <glyph glyph-name="percent" unicode="%" horiz-adv-x="500" 
 />
    <glyph glyph-name="ampersand" unicode="&#x26;" horiz-adv-x="586" 
d="M607 228l-32.0039 -99.0039h-65c-2 -33.333 -16.833 -62.833 -44.5 -88.5s-58.167 -38.5 -91.5 -38.5h-139.5h-139.5c-32 0 -55.667 9.33301 -71 28s-23 40.334 -23 65.001c0 2.66699 0.166992 5.5 0.5 8.5s0.833008 6.16699 1.5 9.5
c2.66699 16.667 8.5 32.834 17.5 48.501s21.5 28.834 37.5 39.501l20 14l20 14c6.66699 4 13.334 8.33301 20.001 13l20 14c-0.666992 0.666992 -1.16699 1.33398 -1.5 2.00098l-1.5 3c-8.66699 14 -16.5 29.333 -23.5 46s-10.5 34 -10.5 52c0 5.33301 0.5 10.5 1.5 15.5
s2.16699 10.167 3.5 15.5c11.333 34 36.333 65 75 93s80.334 47 125.001 57c9.33301 2.66699 18.666 4.5 27.999 5.5s18.666 1.5 27.999 1.5c20 0 39 -3 57 -9s33.667 -15.667 47 -29c7.33301 -6.66699 13.333 -14.5 18 -23.5s7.66699 -18.833 9 -29.5
c0.666992 -2.66699 1 -5.16699 1 -7.5v-7.5c0 -26.667 -9.33301 -51.667 -28 -75s-39.334 -44 -62.001 -62l-27 -20.5l-24 -17.5l-57 81c4 2.66699 10.5 7.33398 19.5 14.001l28.5 22c2.66699 2.66699 5.33398 5.16699 8.00098 7.5s5.66699 4.5 9 6.5
c8.66699 8 16.334 15.667 23.001 23s10.334 13.666 11.001 18.999c-4 3.33301 -8.83301 5.83301 -14.5 7.5s-12.167 2.16699 -19.5 1.5c-8.66699 0 -17.834 -1 -27.501 -3s-19.5 -4.66699 -29.5 -8c-17.333 -6.66699 -34.166 -15 -50.499 -25s-29.5 -20.333 -39.5 -31
c-3.33301 -4 -6.16602 -7.83301 -8.49902 -11.5s-4.16602 -7.16699 -5.49902 -10.5v0v0v-1v0c0 -4 3.33301 -12.5 10 -25.5s14 -26.5 22 -40.5c1.33301 -1.33301 2.33301 -2.66602 3 -3.99902l2 -4l21 -35.5c6.66699 -11 11.334 -18.5 14.001 -22.5l-159 -107l-1.5 -1.5
l-1.5 -1.5c-2 -1.33301 -4 -3.33301 -6 -6s-3.33301 -5.33398 -4 -8.00098h68.5h68.5h68.5h68.5c2 0 4.16699 0.333008 6.5 1s4.83301 1.66699 7.5 3c4.66699 2.66699 9.16699 6 13.5 10s7.16602 8.33301 8.49902 13h-89l32 99h254v0z" />
    <glyph glyph-name="quotesingle" unicode="'" horiz-adv-x="38" 
d="M166 617l-62 -115h-95l63 115h94v0z" />
    <glyph glyph-name="parenleft" unicode="(" horiz-adv-x="500" 
 />
    <glyph glyph-name="parenright" unicode=")" horiz-adv-x="500" 
 />
    <glyph glyph-name="asterisk" unicode="*" horiz-adv-x="500" 
 />
    <glyph glyph-name="plus" unicode="+" horiz-adv-x="500" 
 />
    <glyph glyph-name="comma" unicode="," horiz-adv-x="150" 
d="M129 23l-78 -90.999l-44 38l39 45v0.5v0.5l-0.5 0.5l-0.5 0.5c-6.66699 6 -11.667 13 -15 21s-5 16.333 -5 25c0 7.33301 1 14.166 3 20.499s5.33301 12.166 10 17.499c6 6.66699 13 11.667 21 15s16.333 5 25 5h4.5c1.66699 0 3.5 -0.333008 5.5 -1
c4.66699 -0.666992 9.5 -2.16699 14.5 -4.5s9.5 -5.16602 13.5 -8.49902c7.33301 -6 12.666 -13 15.999 -21s5 -16.333 5 -25v-4.5c0 -1.66699 -0.333008 -3.5 -1 -5.5c-0.666992 -4.66699 -2.16699 -9.5 -4.5 -14.5s-5.16602 -9.5 -8.49902 -13.5v0z" />
    <glyph glyph-name="hyphen" unicode="-" horiz-adv-x="222" 
d="M266 348l-33 -99h-220l32 99h221v0z" />
    <glyph glyph-name="period" unicode="." horiz-adv-x="131" 
d="M125 62c0 -16.667 -5.83301 -30.834 -17.5 -42.501s-25.834 -17.5 -42.501 -17.5c-16 0 -29.833 5.83301 -41.5 17.5s-17.5 25.834 -17.5 42.501s5.83301 30.667 17.5 42s25.5 17 41.5 17c16.667 0 30.834 -5.66699 42.501 -17s17.5 -25.333 17.5 -42v0z" />
    <glyph glyph-name="slash" unicode="/" horiz-adv-x="500" 
 />
    <glyph glyph-name="zero" unicode="0" horiz-adv-x="491" 
d="M446 508c13.333 -21.333 23 -43.9971 29 -67.9971s9 -48.667 9 -74c0 -5.33301 -0.166992 -11 -0.5 -17s-0.833008 -11.667 -1.5 -17c-4 -45.333 -16.167 -89.5 -36.5 -132.5s-44.833 -79.5 -73.5 -109.5c-22 -22.667 -46.333 -41.334 -73 -56.001
s-54 -24.334 -82 -29.001c-4.66699 -0.666992 -9.5 -1.16699 -14.5 -1.5s-9.83301 -0.5 -14.5 -0.5c-28 0 -54.833 6.66699 -80.5 20s-48.167 35 -67.5 65c-13.333 21.333 -23 44 -29 68s-9 48.333 -9 73c0 6 0.166992 11.833 0.5 17.5s0.833008 11.5 1.5 17.5
c4.66699 45.333 17.167 89.5 37.5 132.5s44.833 79.5 73.5 109.5c26 27.333 54.5 48.666 85.5 63.999s62.833 23 95.5 23c31.333 0 60 -7.5 86 -22.5s47.333 -35.833 64 -62.5v0zM378 308.003c2 8 3.49805 16.668 4.49805 26.001s1.5 19.333 1.5 30v9.5
c0 3 -0.333008 6.16699 -1 9.5c-2 28 -9.66699 53.5 -23 76.5s-34.666 34.5 -63.999 34.5c-36 0 -68.167 -14.167 -96.5 -42.5s-50.833 -59.833 -67.5 -94.5c-5.33301 -12 -10.166 -23.833 -14.499 -35.5s-7.5 -22.834 -9.5 -33.501c-1.33301 -8 -2.5 -16.667 -3.5 -26
s-1.5 -19 -1.5 -29v-8.5c0 -3 0.333008 -5.83301 1 -8.5c1.33301 -28.667 8.5 -54.834 21.5 -78.501s34.833 -35.5 65.5 -35.5c36 0 68.167 14.167 96.5 42.5s50.5 59.833 66.5 94.5c6 12 11 23.833 15 35.5s7 22.834 9 33.501v0z" />
    <glyph glyph-name="one" unicode="1" horiz-adv-x="240" 
d="M296 593l-192 -591h-104l192 591h104v0z" />
    <glyph glyph-name="two" unicode="2" horiz-adv-x="531" 
d="M516 357c-0.666992 -2.66699 -1.50195 -5.1709 -2.50195 -7.50391s-1.83301 -4.5 -2.5 -6.5c-9.33301 -26.667 -22.666 -52.667 -39.999 -78s-38.666 -48.666 -63.999 -69.999c-18.667 -16.667 -38 -32.667 -58 -48l-61 -45h210l-32 -100h-354c-10 0 -19.833 -2 -29.5 -6
s-18.167 -9 -25.5 -15l-57 80c15.333 11.333 32.166 20.833 50.499 28.5s36.833 11.834 55.5 12.501c42 24.667 82.667 50.834 122 78.501s77.333 57.5 114 89.5c3.33301 2.66699 6.66602 5.66699 9.99902 9l10 10c14 15.333 27.167 32.833 39.5 52.5
s20.5 39.834 24.5 60.501c0.666992 3.33301 1.16699 6.83301 1.5 10.5s0.5 7.16699 0.5 10.5c0 4 -0.166992 7.83301 -0.5 11.5s-1.16602 7.16699 -2.49902 10.5c-4 17.333 -12.833 29.333 -26.5 36s-28.5 10.667 -44.5 12c-2.66699 0.666992 -5.5 1 -8.5 1h-8.5
c-12 0 -25.5 -2.5 -40.5 -7.5s-30.5 -12.167 -46.5 -21.5c-18 -10 -35.667 -21.333 -53 -34s-34 -25.667 -50 -39l-12 -10.5l-12 -10.5l-67 73c5.33301 5.33301 11 10.666 17 15.999s12.333 10.666 19 15.999c32.667 26.667 69.167 51.667 109.5 75s81.5 37.333 123.5 42
c4 0 8 0.166992 12 0.5s8 0.5 12 0.5c18 0 35.833 -2.33301 53.5 -7s34.834 -12.667 51.501 -24c25.333 -16.667 43.666 -37.5 54.999 -62.5s17 -51.167 17 -78.5c0 -5.33301 -0.166992 -10.666 -0.5 -15.999s-1.16602 -10.666 -2.49902 -15.999
c-0.666992 -6 -1.66699 -11.667 -3 -17l-4 -16v0z" />
    <glyph glyph-name="three" unicode="3" horiz-adv-x="523" 
d="M513 420c-6.66699 -20.667 -19.1689 -39.834 -37.502 -57.501s-40.166 -33.167 -65.499 -46.5c20.667 -16.667 36.334 -34.834 47.001 -54.501s16.667 -39.834 18 -60.501c0.666992 -2 1 -4 1 -6v-6c0 -25.333 -6.66699 -50 -20 -74s-32.666 -45 -57.999 -63
c-26.667 -18.667 -54.667 -31.5 -84 -38.5s-59.333 -10.5 -90 -10.5c-20 0 -40 1.16699 -60 3.5s-39.667 4.83301 -59 7.5c-19.333 3.33301 -38.333 7.33301 -57 12s-35.334 10 -50.001 16l36 92c16 -6 33.167 -11.167 51.5 -15.5s36.833 -7.83301 55.5 -10.5
c16 -2 31.5 -3.5 46.5 -4.5s29.5 -1.5 43.5 -1.5c8 0 17.5 0.833008 28.5 2.5s22.167 4.16699 33.5 7.5c20.667 6 39.834 15.333 57.501 28s26.5 29 26.5 49s-8.66699 36.167 -26 48.5s-36.666 21.833 -57.999 28.5c-12 3.33301 -23.5 5.83301 -34.5 7.5
s-20.5 2.5 -28.5 2.5v99h5.5h5.5c21.333 0.666992 42.5 3.5 63.5 8.5s39.833 11.5 56.5 19.5c3.33301 1.33301 6.66602 2.83301 9.99902 4.5s6.66602 3.5 9.99902 5.5c10 5.33301 19 12 27 20s12 17.333 12 28c0 8.66699 -4.66699 15.167 -14 19.5s-19.666 7.5 -30.999 9.5
c-8.66699 2 -16.834 3.16699 -24.501 3.5s-13.167 0.5 -16.5 0.5c-8.66699 0 -17.334 -0.166992 -26.001 -0.5s-17 -0.833008 -25 -1.5c-17.333 -2 -34.5 -4.16699 -51.5 -6.5s-33.833 -4.83301 -50.5 -7.5l-16 98l11.5 2c3.66699 0.666992 7.83398 1.33398 12.501 2.00098
c18.667 3.33301 39.167 6.33301 61.5 9s44.833 4.33398 67.5 5.00098h5.5h5.5c32 0 62.5 -4 91.5 -12s52.833 -23 71.5 -45c9.33301 -10.667 16.333 -22.667 21 -36s7 -26.666 7 -39.999c-0.666992 -6.66699 -1.5 -13.5 -2.5 -20.5s-2.5 -13.833 -4.5 -20.5v0z" />
    <glyph glyph-name="four" unicode="4" horiz-adv-x="492" 
d="M547 593l-117 -362h54l-33 -99h-53l-42 -130h-106l44 130h-296l40 122l382 339h127v0zM392 437l-231 -206h165l66 206v0z" />
    <glyph glyph-name="five" unicode="5" horiz-adv-x="484" 
d="M460 593l-32 -99.002h-174l-43 -133c12.667 0.666992 25.834 0.833984 39.501 0.500977s27.5 -1.16602 41.5 -2.49902c22.667 -2 44.5 -6.16699 65.5 -12.5s39.833 -15.5 56.5 -27.5c17.333 -12.667 30.166 -27 38.499 -43s12.5 -33 12.5 -51
c0 -5.33301 -0.333008 -10.833 -1 -16.5s-1.66699 -11.167 -3 -16.5l-6 -17.5c-2 -5.66699 -4.33301 -11.167 -7 -16.5c-30.667 -61.333 -75 -102.5 -133 -123.5s-118.667 -31.833 -182 -32.5h-3.5h-2.5c-21.333 0 -42.666 0.833008 -63.999 2.5s-42 3.83398 -62 6.50098
l13 98c17.333 -2 35.833 -3.83301 55.5 -5.5s39.834 -2.5 60.501 -2.5h9.5h9.5c42.667 1.33301 83.5 9 122.5 23s68.167 40 87.5 78c2 3.33301 3.33301 6.66602 4 9.99902s1 6.33301 1 9c0 10 -4.83301 17.5 -14.5 22.5s-20.167 8.5 -31.5 10.5
c-2.66699 0.666992 -5.33398 1.16699 -8.00098 1.5s-5.33398 0.833008 -8.00098 1.5c-10.667 2 -21.167 3.33301 -31.5 4s-20.833 1 -31.5 1c-9.33301 0 -18.833 -0.333008 -28.5 -1s-19.5 -1.66699 -29.5 -3c-18.667 -2 -37.667 -5 -57 -9s-39 -8.33301 -59 -13l118 357
h277v0z" />
    <glyph glyph-name="six" unicode="6" horiz-adv-x="438" 
d="M401 217c0 -57.333 -23.333 -106.832 -70 -148.499s-98 -63.834 -154 -66.501h-5h-4c-3.33301 0 -6.66602 0.166992 -9.99902 0.5s-6.66602 0.833008 -9.99902 1.5c-4 0 -7.66699 0.333008 -11 1l-10 2c-40 9.33301 -70.667 28.666 -92 57.999s-32 62.333 -32 99
c0 6 0.333008 12.167 1 18.5s1.66699 12.833 3 19.5c5.33301 26 13 51.667 23 77s21.333 49.333 34 72c24 43.333 51.333 85.5 82 126.5s63 79.5 97 115.5h133l4 -4l-24.5 -23l-25.5 -25c-12.667 -12.667 -25.167 -26 -37.5 -40l-36.5 -43l-32.5 -42.5
c-11 -14.333 -21.5 -29.166 -31.5 -44.499l10 2c3.33301 0.666992 7 1 11 1c3.33301 0.666992 6.66602 1 9.99902 1h10c45.333 0 84.666 -14.5 117.999 -43.5s50 -67.167 50 -114.5v0zM302 217.001c0 20 -7.00098 34.8379 -21.001 44.5049s-30 14.5 -48 14.5
c-4.66699 0 -9.5 -0.333008 -14.5 -1s-9.83301 -1.66699 -14.5 -3c-26 -6.66699 -49.667 -20.334 -71 -41.001s-32 -44.334 -32 -71.001c0 -14.667 4.33301 -26.834 13 -36.501s20.334 -16.167 35.001 -19.5c3.33301 -0.666992 6.83301 -1.16699 10.5 -1.5
s7.5 -0.5 11.5 -0.5c3.33301 0 6.83301 0.166992 10.5 0.5s7.16699 0.833008 10.5 1.5c27.333 5.33301 52.5 18.666 75.5 39.999s34.5 45.666 34.5 72.999v0z" />
    <glyph glyph-name="seven" unicode="7" horiz-adv-x="367" 
d="M420 593l-14.502 -25c-5 -8.66699 -10.167 -17 -15.5 -25l-95 -163.5c-31.333 -55 -60.666 -111.167 -87.999 -168.5c-16.667 -35.333 -31.667 -70.5 -45 -105.5s-24.666 -69.5 -33.999 -103.5h-102c18 80 45.5 157.667 82.5 233s75.5 148.333 115.5 219l11.5 20l11.5 20
h-243v99h416v0z" />
    <glyph glyph-name="eight" unicode="8" horiz-adv-x="565" 
d="M529 456c0 -26 -6.83105 -49.8359 -20.498 -71.5029s-30.5 -40.167 -50.5 -55.5c18.667 -14 33.834 -30.667 45.501 -50s17.5 -41.333 17.5 -66c0 -6 -0.5 -12 -1.5 -18s-2.16699 -12.333 -3.5 -19c-14 -50 -46.5 -90 -97.5 -120s-105.5 -47.333 -163.5 -52
c-5.33301 -0.666992 -10.5 -1 -15.5 -1h-14.5c-34.667 0 -67.834 5.16699 -99.501 15.5s-58.167 26.5 -79.5 48.5c-13.333 13.333 -23.666 28.5 -30.999 45.5s-11 34.833 -11 53.5c0 6 0.5 12 1.5 18s2.16699 12 3.5 18c8.66699 30 26.167 57.667 52.5 83
s55.833 45.333 88.5 60c-6.66699 10 -11.834 20.833 -15.501 32.5s-5.5 23.834 -5.5 36.501c0 5.33301 0.5 10.833 1.5 16.5s2.16699 11.5 3.5 17.5c10 36.667 31.333 66.834 64 90.501s67.667 39.834 105 48.501c9.33301 2 18.666 3.5 27.999 4.5s18.666 1.5 27.999 1.5
c4 0 8 -0.166992 12 -0.5s8 -0.5 12 -0.5c36.667 -4 70.167 -17.333 100.5 -40s45.5 -54.667 45.5 -96v0zM422.002 212.997c0 15.333 -7.00098 27.498 -21.001 36.498s-29.667 15.5 -47 19.5c-10 2.66699 -19.833 4.5 -29.5 5.5s-17.834 1.5 -24.501 1.5
c-10.667 0 -23.167 -1 -37.5 -3s-28.833 -5.33301 -43.5 -10c-25.333 -7.33301 -49.166 -18.166 -71.499 -32.499s-36.5 -32.5 -42.5 -54.5c-0.666992 -2 -1.16699 -4 -1.5 -6s-0.5 -4 -0.5 -6c0 -14.667 7 -26.5 21 -35.5s29.667 -15.5 47 -19.5
c10 -2.66699 19.833 -4.5 29.5 -5.5s17.834 -1.5 24.501 -1.5c10.667 0 23.667 1.33301 39 4s31.333 6.33398 48 11.001c27.333 8.66699 52.5 21 75.5 37s34.5 35.667 34.5 59v0zM429.001 447.995c0.666992 1.33301 1.00195 2.83496 1.00195 4.50195v4.5
c0 9.33301 -4.33301 16.666 -13 21.999s-18.334 9.33301 -29.001 12l-15.5 2c-5 0.666992 -9.5 1 -13.5 1c-7.33301 0 -15.333 -0.666992 -24 -2s-17.667 -3.33301 -27 -6c-17.333 -5.33301 -33.833 -13.5 -49.5 -24.5s-25.5 -24.5 -29.5 -40.5
c-0.666992 -1.33301 -1 -2.66602 -1 -3.99902v-4c0 -9.33301 4.5 -16.833 13.5 -22.5s18.833 -9.83398 29.5 -12.501l15.5 -2c5 -0.666992 9.5 -1 13.5 -1c7.33301 0 15.333 0.666992 24 2s17.667 3.66602 27 6.99902c17.333 5.33301 33.666 13.333 48.999 24s25 24 29 40v0
z" />
    <glyph glyph-name="nine" unicode="9" horiz-adv-x="400" 
d="M399 401c-5.33301 -27.333 -13.167 -54.002 -23.5 -80.002s-22.166 -51.333 -35.499 -76c-24 -43.333 -51.333 -85.5 -82 -126.5s-63 -79.833 -97 -116.5h-139c35.333 34.667 69 70.334 101 107.001s61.333 75.334 88 116.001
c-6.66699 -1.33301 -13.167 -2.33301 -19.5 -3s-12.833 -1 -19.5 -1c-44 0 -83.167 14 -117.5 42s-51.5 66.667 -51.5 116c0 57.333 23.167 106.833 69.5 148.5s97.166 63.834 152.499 66.501h5h4c7.33301 0 14.666 -0.5 21.999 -1.5s14.333 -2.16699 21 -3.5
c39.333 -8.66699 70 -27.5 92 -56.5s33 -62.167 33 -99.5c0 -4.66699 -0.166992 -9.83398 -0.5 -15.501s-1.16602 -11.167 -2.49902 -16.5v0zM302.999 435.998c0 14.667 -4.33203 26.9961 -12.999 36.9961s-20.334 16.333 -35.001 19c-3.33301 1.33301 -6.83301 2 -10.5 2
h-11.5c-3.33301 0 -6.83301 -0.166992 -10.5 -0.5s-7.16699 -0.833008 -10.5 -1.5c-27.333 -5.33301 -52.5 -18.666 -75.5 -39.999s-34.5 -45.666 -34.5 -72.999c0 -20 7 -34.833 21 -44.5s30 -14.5 48 -14.5c4.66699 0 9.5 0.333008 14.5 1s9.83301 1.66699 14.5 3
c26 6.66699 49.667 20.334 71 41.001s32 44.334 32 71.001v0z" />
    <glyph glyph-name="colon" unicode=":" horiz-adv-x="153" 
d="M125 62c0 -16.667 -5.83301 -30.834 -17.5 -42.501s-25.834 -17.5 -42.501 -17.5c-16 0 -29.833 5.83301 -41.5 17.5s-17.5 25.834 -17.5 42.501s5.83301 30.667 17.5 42s25.5 17 41.5 17c16.667 0 30.834 -5.66699 42.501 -17s17.5 -25.333 17.5 -42v0zM165 222
c0 -16.667 -5.83301 -30.834 -17.5 -42.501s-25.834 -17.5 -42.501 -17.5c-16 0 -29.833 5.83301 -41.5 17.5s-17.5 25.834 -17.5 42.501s5.83301 30.667 17.5 42s25.5 17 41.5 17c16.667 0 30.834 -5.66699 42.501 -17s17.5 -25.333 17.5 -42v0z" />
    <glyph glyph-name="semicolon" unicode=";" horiz-adv-x="172" 
d="M129 23l-78 -90.999l-44 38l39 45v0.5v0.5l-0.5 0.5l-0.5 0.5c-6.66699 6 -11.667 13 -15 21s-5 16.333 -5 25c0 7.33301 1 14.166 3 20.499s5.33301 12.166 10 17.499c6 6.66699 13 11.667 21 15s16.333 5 25 5h4.5c1.66699 0 3.5 -0.333008 5.5 -1
c4.66699 -0.666992 9.5 -2.16699 14.5 -4.5s9.5 -5.16602 13.5 -8.49902c7.33301 -6 12.666 -13 15.999 -21s5 -16.333 5 -25v-4.5c0 -1.66699 -0.333008 -3.5 -1 -5.5c-0.666992 -4.66699 -2.16699 -9.5 -4.5 -14.5s-5.16602 -9.5 -8.49902 -13.5v0zM165 222.001
c0 -16.667 -5.83301 -30.834 -17.5 -42.501s-25.834 -17.5 -42.501 -17.5c-16 0 -29.833 5.83301 -41.5 17.5s-17.5 25.834 -17.5 42.501s5.83301 30.667 17.5 42s25.5 17 41.5 17c16.667 0 30.834 -5.66699 42.501 -17s17.5 -25.333 17.5 -42v0z" />
    <glyph glyph-name="less" unicode="&#x3c;" horiz-adv-x="500" 
 />
    <glyph glyph-name="equal" unicode="=" horiz-adv-x="500" 
 />
    <glyph glyph-name="greater" unicode="&#x3e;" horiz-adv-x="500" 
 />
    <glyph glyph-name="question" unicode="?" horiz-adv-x="347" 
d="M172 102l-33 -100h-104l32 100h105v0zM401 497c0 -32.667 -9.16797 -60.5049 -27.501 -83.5049s-38.5 -44.833 -60.5 -65.5c-2 -1.33301 -4 -3 -6 -5s-4 -3.66699 -6 -5l-2.5 -2.5l-2.5 -2.5c-3.33301 -2.66699 -6.5 -5.5 -9.5 -8.5s-6.16699 -5.83301 -9.5 -8.5
c-3.33301 -3.33301 -6.66602 -6.5 -9.99902 -9.5s-6.66602 -5.83301 -9.99902 -8.5c-16.667 -16 -31.5 -31.333 -44.5 -46s-21.167 -27 -24.5 -37l-13 -39h-100c1.33301 4 2.5 8.16699 3.5 12.5s2.16699 8.83301 3.5 13.5c2 8.66699 4.16699 17.167 6.5 25.5
s4.16602 14.5 5.49902 18.5c3.33301 10 8.16602 20.333 14.499 31s13.833 21.334 22.5 32.001c10 12 21 24 33 36l36 35c4.66699 4.66699 9.5 9.16699 14.5 13.5s9.83301 8.83301 14.5 13.5l41.5 38.5c12.333 11.667 19.5 19.834 21.5 24.501
c2.66699 4.66699 4.66699 8.83398 6 12.501s2.33301 7.16699 3 10.5c-2 0.666992 -4.5 1 -7.5 1h-11.5h-66h-66c-13.333 0 -24 -3.83301 -32 -11.5s-12 -16.834 -12 -27.501c0 -1.33301 0.166992 -2.83301 0.5 -4.5s0.5 -3.16699 0.5 -4.5
c1.33301 -4.66699 3.5 -9.16699 6.5 -13.5s6.83301 -8.5 11.5 -12.5l-63 -77c-17.333 14.667 -30.833 31.834 -40.5 51.501s-14.5 39.834 -14.5 60.501c0 4 0.166992 7.83301 0.5 11.5s0.833008 7.5 1.5 11.5s1.5 7.83301 2.5 11.5s2.16699 7.5 3.5 11.5
c10.667 28.667 28.334 51.167 53.001 67.5s52 24.5 82 24.5h66h66c30.667 0 58.167 -7.66699 82.5 -23s36.5 -39.666 36.5 -72.999v0z" />
    <glyph glyph-name="at" unicode="@" horiz-adv-x="801" 
d="M794 185l-23.002 -78.001l-164 -32c-2.66699 -0.666992 -5.5 -1.16699 -8.5 -1.5s-6.16699 -0.5 -9.5 -0.5c-8.66699 0 -17 1.83301 -25 5.5s-14.667 9.16699 -20 16.5l-11 -34l-53 -11c-2.66699 -0.666992 -5 -1 -7 -1h-6c-14.667 0 -26.5 4.66699 -35.5 14
s-13.167 21.333 -12.5 36c0 3.33301 0.333008 6.83301 1 10.5l2 11.5c1.33301 4.66699 2.83301 9.5 4.5 14.5s3.5 10.167 5.5 15.5c0.666992 2.66699 1.33398 5 2.00098 7s1.33398 4.33301 2.00098 7c2.66699 7.33301 5 14.666 7 21.999s3.33301 14.333 4 21
c-14 -8.66699 -27.5 -20.667 -40.5 -36s-24.167 -31.333 -33.5 -48c-5.33301 -8.66699 -10 -17.334 -14 -26.001s-7.33301 -16.667 -10 -24l-17 -53l-78 -14l117 381l-77 -27l-135 -473l-71 8l125 439l-204 -67l-9 71l237 78l19 68l71 -8l-9 -34l78 27l33 109l78 14l-29 -95
l80 28l10 -71l-115 -40l-48 -154c7.33301 5.33301 15.166 10.166 23.499 14.499s16.5 7.5 24.5 9.5c3.33301 0.666992 6.33301 1.16699 9 1.5s5.33398 0.5 8.00098 0.5h3h3c0.666992 0 1.5 -0.166992 2.5 -0.5s1.83301 -0.5 2.5 -0.5c14 -2 24.167 -8.5 30.5 -19.5
s9.5 -23.833 9.5 -38.5c0 -7.33301 -1 -15.666 -3 -24.999s-4.66699 -19.333 -8 -30c-1.33301 -4 -2.5 -7.83301 -3.5 -11.5s-2.16699 -7.5 -3.5 -11.5c-0.666992 -4 -1.5 -7.83301 -2.5 -11.5s-2.16699 -7.5 -3.5 -11.5l37 8c0 4.66699 0.333008 9.33398 1 14.001
s1.66699 9.33398 3 14.001l6 21.5c2 7 4.33301 13.833 7 20.5c10 26.667 22.833 49.5 38.5 68.5s32.167 34.167 49.5 45.5c6.66699 4 13.167 7.66699 19.5 11s12.5 6 18.5 8c6.66699 2.66699 13.167 4.5 19.5 5.5s12.833 1.5 19.5 1.5c16 0 29.667 -4.16699 41 -12.5
s17 -21.166 17 -38.499c0 -4 -0.5 -8.33301 -1.5 -13s-2.16699 -9.66699 -3.5 -15c-4.66699 -12.667 -13 -27.5 -25 -44.5s-29.333 -36.167 -52 -57.5l102 21v0zM696.998 270.999c-16 -4 -30.333 -12.668 -43 -26.001s-22.667 -27.666 -30 -42.999
c-0.666992 -2 -1.5 -4 -2.5 -6s-1.83301 -4 -2.5 -6c23.333 18.667 41 34.667 53 48s20.333 24.333 25 33v0z" />
    <glyph glyph-name="A" unicode="A" horiz-adv-x="569" 
d="M603 490c2 -8 3.50195 -16.665 4.50195 -25.998s1.5 -19 1.5 -29c0 -25.333 -3.33301 -54.666 -10 -87.999s-16.667 -71 -30 -113l-76 -231h-104l47 143h-224c-0.666992 -12 -0.5 -24 0.5 -36s2.16699 -24.333 3.5 -37c1.33301 -9.33301 3.16602 -19 5.49902 -29l6.5 -29
l10 -34l10 -34c0.666992 -3.33301 1.5 -6.5 2.5 -9.5s1.83301 -5.83301 2.5 -8.5l-95 -29l-21.5 77.5c-7 26.333 -12.833 52.833 -17.5 79.5c-1.33301 7.33301 -2.5 14.666 -3.5 21.999s-1.83301 15 -2.5 23c-0.666992 7.33301 -1.16699 14.666 -1.5 21.999
s-0.5 14.666 -0.5 21.999h-114l32 100h97c12.667 46.667 30 89.834 52 129.501s46.333 74.5 73 104.5c20.667 22.667 42.167 42.167 64.5 58.5s45.166 29.166 68.499 38.499c13.333 5.33301 26.666 9.5 39.999 12.5s26.333 4.5 39 4.5c37.333 0 67.833 -8 91.5 -24
s39.834 -42.667 48.501 -80v0zM508.002 467.002c-2.66699 10 -7.83496 17.168 -15.502 21.501s-17.5 6.5 -29.5 6.5c-13.333 0 -27.833 -3.33301 -43.5 -10s-31.5 -16 -47.5 -28c-8 -6 -15.833 -12.667 -23.5 -20s-15.5 -15.333 -23.5 -24
c-22.667 -24.667 -42.167 -51 -58.5 -79s-29.166 -57.333 -38.499 -88h240l6 18c13.333 39.333 22.833 73.166 28.5 101.499s8.5 52.5 8.5 72.5c0 5.33301 -0.166992 10.5 -0.5 15.5s-1.16602 9.5 -2.49902 13.5v0z" />
    <glyph glyph-name="B" unicode="B" horiz-adv-x="430" 
d="M501 515c0.666992 -3.33301 1.00195 -6.83301 1.00195 -10.5v-10.5c0 -35.333 -10.333 -70.166 -31 -104.499s-43.334 -66.5 -68.001 -96.5c-9.33301 -12 -18.833 -23.5 -28.5 -34.5s-18.5 -21.5 -26.5 -31.5c7.33301 -15.333 14.333 -31 21 -47l20 -48
c3.33301 -6.66699 5.66602 -14 6.99902 -22s2 -16 2 -24c0 -21.333 -6.33301 -40.5 -19 -57.5s-31.667 -25.5 -57 -25.5h-323l32 99h263l-30 70.5l-30 70.5l28 34l28 35l27 34l28 34c13.333 16 24.5 31.667 33.5 47s15.5 29.333 19.5 42c2 5.33301 3.5 10.166 4.5 14.499
s1.5 8.5 1.5 12.5c0 5.33301 -2.16699 9.66602 -6.5 12.999s-11.166 5.33301 -20.499 6c-10.667 0.666992 -21.834 -1.66602 -33.501 -6.99902s-23.5 -13.333 -35.5 -24c-5.33301 -4 -10.333 -8.33301 -15 -13s-9.33398 -9.66699 -14.001 -15
c-19.333 -20.667 -37.333 -45.834 -54 -75.501s-30.667 -61.834 -42 -96.501c-7.33301 -22.667 -13.5 -46.5 -18.5 -71.5s-8.16699 -50.167 -9.5 -75.5h-99c1.33301 30.667 4.83301 60.834 10.5 90.501s13.167 58.834 22.5 87.501c13.333 41.333 30 79.666 50 114.999
s42 66.333 66 93c22 24.667 47.833 46 77.5 64s60.834 27 93.501 27c7.33301 0 15 -0.666992 23 -2s16 -3.33301 24 -6c21.333 -6.66699 39 -17.667 53 -33s22.333 -34.666 25 -57.999v0z" />
    <glyph glyph-name="C" unicode="C" horiz-adv-x="455" 
d="M511 593c14.667 -10.667 24.9922 -22.668 30.9922 -36.001s9 -27.666 9 -42.999c0 -4.66699 -0.333008 -9.66699 -1 -15s-1.66699 -10.333 -3 -15c-3.33301 -15.333 -8.66602 -30.5 -15.999 -45.5s-15 -28.833 -23 -41.5c-10 -15.333 -21.667 -31.166 -35 -47.499
s-27.666 -32.5 -42.999 -48.5c-22 -24 -46 -47.5 -72 -70.5s-52.333 -44.833 -79 -65.5l-2.5 -2.5c-1 -1 -2.16699 -1.83301 -3.5 -2.5l-60 78c22 16.667 43.5 34.334 64.5 53.001s40.833 37.334 59.5 56.001c18 18 34.333 35.667 49 53s27.334 34 38.001 50
c1.33301 1.33301 3.33301 4.16602 6 8.49902s5.33398 9.5 8.00098 15.5l2 4l2 4c3.33301 6 6 11.833 8 17.5s3 9.83398 3 12.501v0.5v0.5l-1 1v0c-4 3.33301 -8.16699 5.5 -12.5 6.5s-9.16602 1.5 -14.499 1.5c-6.66699 0 -13.5 -0.833008 -20.5 -2.5
s-13.833 -3.83398 -20.5 -6.50098l-21.5 -10c-7 -3.33301 -13.833 -7 -20.5 -11l-20 -13l-15 -10c-9.33301 -6.66699 -19.166 -14.167 -29.499 -22.5s-20.5 -17.5 -30.5 -27.5c-28.667 -26.667 -55.667 -57 -81 -91s-43.666 -69 -54.999 -105
c-3.33301 -10 -5.83301 -20 -7.5 -30s-2.5 -20 -2.5 -30c0 -17.333 3.5 -31.833 10.5 -43.5s19.833 -17.5 38.5 -17.5h64h73h73h64l-32 -99h-55.5h-64.5h-66h-56c-46.667 0 -83.167 15.5 -109.5 46.5s-39.5 68.833 -39.5 113.5c0 4 0.166992 8 0.5 12s0.5 8 0.5 12
c6 61.333 29.5 121.166 70.5 179.499s85.833 107.833 134.5 148.5l21.5 17.5c7 5.66699 14.167 11.167 21.5 16.5c2 1.33301 3.83301 2.66602 5.5 3.99902s3.5 2.33301 5.5 3c18.667 12.667 39.167 24.667 61.5 36s45.166 19 68.499 23c6 1.33301 12.333 2.33301 19 3
s13 1 19 1c14.667 0 28.834 -2 42.501 -6s26.834 -10.667 39.501 -20v0z" />
    <glyph glyph-name="D" unicode="D" horiz-adv-x="572" 
d="M595 543c11.333 -14 19.499 -29.002 24.499 -45.002s7.5 -33 7.5 -51c0 -31.333 -8 -64.333 -24 -99s-38.667 -69.667 -68 -105c-17.333 -21.333 -37 -42.333 -59 -63s-46 -41 -72 -61c-24 -18 -47.333 -33.667 -70 -47s-45.334 -24.666 -68.001 -33.999
c-4.66699 -2 -9.16699 -3.83301 -13.5 -5.5s-8.83301 -3.16699 -13.5 -4.5c-14.667 -5.33301 -29.5 -9.5 -44.5 -12.5s-29.833 -5.5 -44.5 -7.5c-22 -2.66699 -44.167 -4.16699 -66.5 -4.5s-44.833 -0.5 -67.5 -0.5h-8h-8l126 386h104l-92 -283
c38.667 5.33301 74.834 16 108.501 32s65.834 35.667 96.501 59l37.5 31c15.667 13.333 31.834 28.333 48.501 45c13.333 13.333 26.5 27.5 39.5 42.5s24.5 30.167 34.5 45.5c8.66699 14 15.5 27.667 20.5 41s7.5 26.333 7.5 39c0 8.66699 -1.33301 16.834 -4 24.501
s-7.33398 14.834 -14.001 21.501v1c-6.66699 7.33301 -16.334 12.666 -29.001 15.999s-27.667 5 -45 5c-10.667 0 -21.667 -0.666992 -33 -2s-23.333 -3 -36 -5c-40 -6.66699 -83 -17.834 -129 -33.501s-92.667 -34.5 -140 -56.5l-27.5 -12
c-9 -4 -17.833 -8.33301 -26.5 -13l-43 90l34.5 16l35.5 16c48.667 20.667 96.834 39 144.501 55s92.5 27.667 134.5 35c13.333 2.66699 27 4.66699 41 6s28.333 2 43 2h3.5h3.5c28.667 -0.666992 56.5 -5.66699 83.5 -15s49.5 -25.666 67.5 -48.999v0z" />
    <glyph glyph-name="E" unicode="E" horiz-adv-x="549" 
d="M583 540c2 -6 3.49414 -11.833 4.49414 -17.5s1.5 -11.167 1.5 -16.5c0 -29.333 -11.167 -56.833 -33.5 -82.5s-46.833 -48.834 -73.5 -69.501l-41 -30l-35 -25l-61 79l24.5 17c14.333 10 29.833 21.667 46.5 35l9.5 7.5l9.5 7.5c14.667 12 27.167 23.333 37.5 34
s15.5 19 15.5 25c0 1.33301 -0.166992 2.5 -0.5 3.5s-1.16602 1.83301 -2.49902 2.5c-5.33301 3.33301 -11.166 5.66602 -17.499 6.99902s-13.166 2 -20.499 2c-5.33301 0 -10.666 -0.333008 -15.999 -1s-11 -1.66699 -17 -3c-10 -2 -20 -4.66699 -30 -8
s-19 -6.66602 -27 -9.99902c-3.33301 -1.33301 -6.66602 -2.83301 -9.99902 -4.5l-9 -4.5c-4 -2 -10.333 -5.83301 -19 -11.5l-27 -18.5c-6.66699 -5.33301 -13.167 -10.833 -19.5 -16.5s-11.833 -11.5 -16.5 -17.5c-4 -5.33301 -7.33301 -10.666 -10 -15.999
s-4 -10.333 -4 -15c0 -2 0.166992 -3.83301 0.5 -5.5s0.833008 -3.16699 1.5 -4.5l-1 2l74 -130l-34.5 -25.5l-34.5 -25.5l-68 -50.5l-68 -51.5h417l-32 -99h-192.5h-193.5c-35.333 0 -62.666 8.66699 -81.999 26s-29 37.666 -29 60.999c0 4.66699 0.5 9.33398 1.5 14.001
s2.16699 9.33398 3.5 14.001c4 11.333 10 22.5 18 33.5s18.333 21.167 31 30.5l33.5 24.5l33.5 25.5l33.5 25.5l33.5 24.5c-0.666992 2 -1.66699 3.83301 -3 5.5s-2.33301 3.16699 -3 4.5s-1.5 2.66602 -2.5 3.99902s-1.83301 2.66602 -2.5 3.99902
c-8.66699 14 -16.5 28.333 -23.5 43s-10.833 30.667 -11.5 48c0 48.667 23.5 92.834 70.5 132.501s98.833 66.834 155.5 81.501c13.333 4 26.666 6.83301 39.999 8.5s26.333 2.5 39 2.5c17.333 0 33.833 -1.83301 49.5 -5.5s29.834 -9.5 42.501 -17.5
c10.667 -6.66699 19.667 -14.334 27 -23.001s13 -18.667 17 -30v0z" />
    <glyph glyph-name="F" unicode="F" horiz-adv-x="507" 
d="M618 594l-32.002 -98.999h-92l-68 -210h94l-32 -100h-94l-65 -198l-116 -36l77 234h-81l32 100h81l68 210h-268c-7.33301 0 -12.666 -1.16699 -15.999 -3.5s-5 -5.16602 -5 -8.49902c0 -4.66699 2 -10.334 6 -17.001s9 -13.334 15 -20.001
c2 -2 3.83301 -4.16699 5.5 -6.5s3.5 -4.5 5.5 -6.5l19 -20c6 -6 10 -10.333 12 -13l-76 -62l-12.5 14.5c-4.33301 5 -8.5 10.167 -12.5 15.5c-15.333 18 -29.333 37.5 -42 58.5s-19 43.167 -19 66.5c0 29.333 11.833 53.5 35.5 72.5s66.834 28.5 129.501 28.5h451v0z" />
    <glyph glyph-name="G" unicode="G" horiz-adv-x="517" 
d="M558 414c-12.667 -21.333 -29 -43.6641 -49 -66.9971s-43 -46.666 -69 -69.999l-22.5 -20l-23.5 -20l-63 76c3.33301 2.66699 6.5 5.33398 9.5 8.00098s6.16699 5.33398 9.5 8.00098c28 24 52.5 47.667 73.5 71s37.5 45 49.5 65l3.5 7l5.5 11l1.5 3
c0.333008 0.666992 0.5 1.33398 0.5 2.00098l5.5 13c1.66699 4 2.5 7 2.5 9v0.5v0.5l-1 1v0c-2.66699 2.66699 -6 4.5 -10 5.5s-8.66699 1.5 -14 1.5c-6.66699 0 -14 -1 -22 -3s-16.333 -5 -25 -9c-6 -2 -12 -4.5 -18 -7.5s-11.667 -6.16699 -17 -9.5l-21 -12
c-6.66699 -4 -12 -7.33301 -16 -10c-9.33301 -5.33301 -18.666 -11.333 -27.999 -18l-28 -21c-40 -32 -78 -69.667 -114 -113s-60 -88.333 -72 -135c-1.33301 -4.66699 -2.5 -10.334 -3.5 -17.001s-1.83301 -13.334 -2.5 -20.001v-4v-4c0 -12.667 2.33301 -24.5 7 -35.5
s13.334 -18.167 26.001 -21.5c6.66699 -1.33301 13.167 -2.5 19.5 -3.5s12.5 -1.5 18.5 -1.5c34.667 0 67.167 9.66699 97.5 29s58.5 40.333 84.5 63c0.666992 1.33301 1.5 2.5 2.5 3.5s2.16699 1.83301 3.5 2.5l8.5 22.5l8.5 22.5l93 -35
c-30.667 -80.667 -64.834 -160.334 -102.501 -239.001s-83.5 -152.334 -137.5 -221.001l-78 60c26.667 34 51 69.5 73 106.5s42.333 74.5 61 112.5c-18 -7.33301 -36.333 -13.333 -55 -18s-38 -6.66699 -58 -6c-10.667 0 -21.167 0.5 -31.5 1.5s-21.166 3.16699 -32.499 6.5
c-27.333 6.66699 -50 20 -68 40s-29.667 44 -35 72l-2 11.5c-0.666992 3.66699 -1 7.16699 -1 10.5c-0.666992 3.33301 -1 6.83301 -1 10.5v11.5v10c0 3.33301 0.333008 7 1 11c5.33301 60 28.5 118.5 69.5 175.5s85.833 106.167 134.5 147.5
c15.333 13.333 30.5 25.666 45.5 36.999s29.5 21.333 43.5 30c1.33301 0.666992 2.66602 1.5 3.99902 2.5s2.66602 1.83301 3.99902 2.5c18 11.333 37.667 22 59 32s43 17.333 65 22c7.33301 1.33301 14.5 2.5 21.5 3.5s14.167 1.5 21.5 1.5c14.667 0 28.834 -2 42.501 -6
s26.5 -10.667 38.5 -20c14.667 -10.667 25 -22.667 31 -36s9 -27.333 9 -42c0 -4.66699 -0.333008 -9.33398 -1 -14.001s-1.33398 -9.66699 -2.00098 -15c-2.66699 -12 -6.66699 -23.833 -12 -35.5s-11.333 -22.834 -18 -33.501v0z" />
    <glyph glyph-name="H" unicode="H" horiz-adv-x="475" 
d="M589 642l-230 -703h-104l81 246h-142l-60 -182h-104l60 182h-87l32 100h87l100 309h104l-100 -309h142l117 357h104v0z" />
    <glyph glyph-name="I" unicode="I" horiz-adv-x="469" 
d="M536 470l-52.0039 -161.499l-52 -160.5c-12.667 -40 -37.667 -74.167 -75 -102.5s-77 -42.5 -119 -42.5h-237l32 99h51.5h51.5h51h51c2.66699 0 5.33398 0.166992 8.00098 0.5s5.33398 0.833008 8.00098 1.5c18 4 35.167 13.167 51.5 27.5s27.166 29.833 32.499 46.5
l26 80.5l26 80.5l26 80.5l26 80.5c0.666992 1.33301 1.16699 2.83301 1.5 4.5s0.5 2.83398 0.5 3.50098c-2.66699 1.33301 -5.16699 2 -7.5 2h-8.5c-5.33301 0 -11.166 -0.833008 -17.499 -2.5s-12.5 -3.5 -18.5 -5.5c-7.33301 -3.33301 -14.5 -6.83301 -21.5 -10.5
s-13.5 -7.5 -19.5 -11.5c-6 -3.33301 -11.333 -6.83301 -16 -10.5s-9 -6.83398 -13 -9.50098l-18.5 -13.5c-7 -5 -13.833 -10.5 -20.5 -16.5c-16 -13.333 -30.833 -28.666 -44.5 -45.999s-20.5 -35.666 -20.5 -54.999c0 -4.66699 0.5 -9.16699 1.5 -13.5
s2.5 -8.83301 4.5 -13.5c4 -9.33301 9 -18.333 15 -27s12.333 -17.334 19 -26.001c0 -0.666992 0.333008 -1.33398 1 -2.00098l2 -2c2 -3.33301 4.16699 -6.5 6.5 -9.5s4.5 -6.16699 6.5 -9.5l-84 -54c-3.33301 5.33301 -6.66602 10.333 -9.99902 15l-10 14
c-6.66699 9.33301 -13.167 19 -19.5 29s-12.166 20.667 -17.499 32c-4.66699 11.333 -8.16699 22.666 -10.5 33.999s-3.5 22.666 -3.5 33.999c0 26 5.83301 51.333 17.5 76s27.167 46.334 46.5 65.001c7.33301 7.33301 15.333 14.833 24 22.5l27 23.5
c21.333 17.333 44.333 33.833 69 49.5s49.667 27.167 75 34.5c9.33301 3.33301 18.5 5.66602 27.5 6.99902s17.833 2 26.5 2c12 0 23.667 -1.5 35 -4.5s22.333 -8.16699 33 -15.5c15.333 -10 26.333 -22.167 33 -36.5s10 -29.166 10 -44.499
c0 -6.66699 -0.666992 -13.167 -2 -19.5s-3 -12.833 -5 -19.5v0z" />
    <glyph glyph-name="J" unicode="J" horiz-adv-x="496" 
d="M517 470l-60.0049 -184.002l-60 -184h94l-32 -99h-94c-2 -4.66699 -3.83301 -9.83398 -5.5 -15.501s-3.16699 -11.167 -4.5 -16.5l-2 -6l-2 -6c-10 -34 -21.667 -67 -35 -99s-35.333 -59.333 -66 -82c-9.33301 -7.33301 -18.666 -13.5 -27.999 -18.5
s-18.666 -9.16699 -27.999 -12.5c-18 -6 -36.167 -9.5 -54.5 -10.5s-38.166 -1.5 -59.499 -1.5h-2h-2c-16.667 0 -30.667 3.33301 -42 10s-19.666 16 -24.999 28c-2.66699 4.66699 -4.5 9.5 -5.5 14.5s-1.5 10.167 -1.5 15.5c0 15.333 3.83301 30.5 11.5 45.5
s16.167 28.833 25.5 41.5l8 10l7 9c6 7.33301 12.667 15 20 23s15.333 16 24 24c17.333 17.333 36 34 56 50s40.333 30.667 61 44c12.667 8 25.167 15.167 37.5 21.5s24.5 11.833 36.5 16.5l33.5 102.5l33.5 103.5l33.5 103.5l33.5 102.5
c0.666992 1.33301 1.16699 2.83301 1.5 4.5s0.5 2.83398 0.5 3.50098c-2.66699 1.33301 -5.16699 2 -7.5 2h-8.5c-5.33301 0 -11.166 -0.666992 -17.499 -2s-12.5 -3.33301 -18.5 -6c-6.66699 -2.66699 -13.5 -6 -20.5 -10l-20.5 -12
c-5.33301 -3.33301 -10.5 -6.83301 -15.5 -10.5s-9.5 -6.83398 -13.5 -9.50098c-6 -4 -12.333 -8.66699 -19 -14l-21 -17c-16 -13.333 -30.833 -28.666 -44.5 -45.999s-20.5 -35.666 -20.5 -54.999c0 -4 0.5 -8.16699 1.5 -12.5s2.5 -8.83301 4.5 -13.5
c4.66699 -8.66699 9.83398 -17.334 15.501 -26.001s11.5 -17 17.5 -25c0.666992 -1.33301 1.5 -2.5 2.5 -3.5l2.5 -2.5c2 -3.33301 4.16699 -6.5 6.5 -9.5s4.5 -6.16699 6.5 -9.5l-83 -54c-2.66699 4 -5.5 8 -8.5 12s-5.83301 8 -8.5 12
c-0.666992 0.666992 -1.33398 1.5 -2.00098 2.5s-1.33398 1.83301 -2.00098 2.5c-6.66699 9.33301 -13.167 19 -19.5 29s-12.166 20.667 -17.499 32c-4.66699 11.333 -8.16699 22.666 -10.5 33.999s-3.5 22.666 -3.5 33.999c0 26 5.83301 51.333 17.5 76
s27.167 46.334 46.5 65.001c7.33301 7.33301 15.333 14.833 24 22.5l27 23.5c21.333 17.333 44.333 33.833 69 49.5s49.667 27.167 75 34.5c9.33301 3.33301 18.5 5.66602 27.5 6.99902s17.833 2 26.5 2c12 0 23.667 -1.5 35 -4.5s22.333 -8.16699 33 -15.5
c15.333 -10 26.333 -22 33 -36s10 -28.667 10 -44c0 -3.33301 -0.166992 -6.66602 -0.5 -9.99902s-0.833008 -6.66602 -1.5 -9.99902c0 -3.33301 -0.5 -6.66602 -1.5 -9.99902s-2.16699 -6.66602 -3.5 -9.99902v0zM245.995 -46.002
c-22.667 -16.667 -44.833 -35.167 -66.5 -55.5s-41.167 -41.833 -58.5 -64.5c24 0 46.5 7 67.5 21s35.167 32.667 42.5 56l4 11.5l4 10.5c0.666992 3.33301 1.66699 6.83301 3 10.5l4 11.5v-1z" />
    <glyph glyph-name="K" unicode="K" horiz-adv-x="529" 
d="M298 594l-192 -591h-104l192 591h104v0zM668 594l-372.999 -373.998l172 -217h-127l-126 159v1v0h-0.5c-0.333008 0 -0.5 0.333008 -0.5 1c-0.666992 0.666992 -1.33398 1.5 -2.00098 2.5s-1.66699 2.16699 -3 3.5c-5.33301 7.33301 -10.5 15.166 -15.5 23.499
s-7.5 17.5 -7.5 27.5c0 9.33301 2.66699 19.166 8 29.499s14.333 21.833 27 34.5l308 309h140v0z" />
    <glyph glyph-name="L" unicode="L" horiz-adv-x="489" 
d="M482 427l-94.001 -172.001l-87 47l24 43.5c8 14.333 15.667 28.833 23 43.5l23.5 42.5l23.5 43.5c3.33301 5.33301 5.83301 9.83301 7.5 13.5s2.16699 6.16699 1.5 7.5c0 1.33301 -0.5 2.33301 -1.5 3s-2.5 1 -4.5 1c-2.66699 0 -5.66699 -0.333008 -9 -1
s-7.66602 -1.66699 -12.999 -3c-4 -0.666992 -8.33301 -1.83398 -13 -3.50098s-9 -3.5 -13 -5.5c-18 -8.66699 -35.167 -21.667 -51.5 -39s-28.833 -39 -37.5 -65l-91 -281h290l-32 -99h-321c-10.667 -9.33301 -22.334 -18.333 -35.001 -27s-25.667 -17 -39 -25l-32 96
c16.667 10.667 31.334 21.667 44.001 33s21 23 25 35l24.5 75l24.5 75l24 74.5l24 74.5c13.333 40.667 33.333 74.5 60 101.5s54.334 47.5 83.001 61.5c7.33301 3.33301 14.666 6.16602 21.999 8.49902l21 6.5c7.33301 2 14.5 3.33301 21.5 4s13.833 1 20.5 1
c32 0 58.167 -8.66699 78.5 -26s30.166 -40.666 29.499 -69.999c0 -11.333 -1.66699 -23.166 -5 -35.499s-8.66602 -25.166 -15.999 -38.499v0z" />
    <glyph glyph-name="M" unicode="M" horiz-adv-x="771" 
d="M787 594c-2.66699 -5.33301 -5.16699 -10.834 -7.5 -16.501s-5.16602 -11.5 -8.49902 -17.5c0 -0.666992 -0.166992 -1.16699 -0.5 -1.5s-0.5 -0.833008 -0.5 -1.5l-17 -36.5c-5.33301 -11.667 -10 -21.167 -14 -28.5l-15 -31.5c-5.33301 -11 -10.333 -22.5 -15 -34.5
c-6 -11.333 -11.5 -23.166 -16.5 -35.499l-15.5 -36.5c-14 -34 -26 -67.5 -36 -100.5s-15 -62.167 -15 -87.5c0 -18.667 5.16699 -34 15.5 -46s28.833 -18.333 55.5 -19h49l-32 -98h-17c-62.667 0 -106.834 15 -132.501 45s-38.167 69.333 -37.5 118
c0 11.333 0.666992 22.833 2 34.5s3.33301 23.5 6 35.5l-81 -113l-87 -120h-106l75 303l-101.5 -153c-35 -50.667 -71.833 -100.667 -110.5 -150h-125l47 61.5l48 65.5l48.5 69l48.5 70l85.5 129.5l77.5 121.5l22 34.5l25 39.5h109l-85 -341l14.5 20.5l14.5 20.5
c5.33301 6.66699 10.5 13.5 15.5 20.5l14.5 20.5l89.5 126l95.5 133h118v0z" />
    <glyph glyph-name="N" unicode="N" horiz-adv-x="635" 
d="M747 594l-24.5029 -58l-27.5 -63l-6 -14c-2 -4.66699 -4 -9 -6 -13l-31 -67l-28 -58c-23.333 -44.667 -48.333 -88.667 -75 -132s-55 -84 -85 -122c-2 -2.66699 -4 -5.16699 -6 -7.5s-4 -4.83301 -6 -7.5c-11.333 -12 -24.166 -23.333 -38.499 -34s-29.833 -16 -46.5 -16
c-2.66699 0 -5.33398 0.166992 -8.00098 0.5s-5.66699 0.833008 -9 1.5c-19.333 5.33301 -32.666 15.833 -39.999 31.5s-11.333 32.167 -12 49.5c-0.666992 3.33301 -0.833984 6.83301 -0.500977 10.5s0.5 7.16699 0.5 10.5c2.66699 31.333 5.83398 64.666 9.50098 99.999
s7.83398 71.666 12.501 108.999l-24 -44c-8 -14.667 -16.333 -29 -25 -43l-72 -118c-24 -38 -48 -73.667 -72 -107h-123l38 52l40 58l20 30.5l20 30.5l33 53c10.667 17.333 20.667 34.333 30 51l56 100l55 102l30 57.5l29 56.5h101c-1.33301 -12.667 -3 -26.667 -5 -42
l-6 -46c0 -1.33301 -0.166992 -3 -0.5 -5s-0.5 -3.66699 -0.5 -5c-2.66699 -17.333 -5 -34.166 -7 -50.499s-4 -30.833 -6 -43.5c-2 -14 -3.83301 -28.167 -5.5 -42.5s-3.5 -28.833 -5.5 -43.5l-10 -85.5c-3.33301 -28.333 -6.33301 -56.166 -9 -83.499
c24.667 33.333 48.334 68.5 71.001 105.5s43.667 74.833 63 113.5c20 39.333 38.667 78.5 56 117.5s33 75.833 47 110.5h109v0z" />
    <glyph glyph-name="O" unicode="O" horiz-adv-x="617" 
d="M727 429l-31.9971 -99h-112c-3.33301 -84.667 -38 -160.334 -104 -227.001s-141.667 -100 -227 -100c-8 0 -16 0.333008 -24 1s-16 1.66699 -24 3c-60.667 10.667 -109.334 39.334 -146.001 86.001s-55 100.334 -55 161.001c0 87.333 33.5 165.833 100.5 235.5
s144.833 104.5 233.5 104.5c53.333 0 101.166 -14.833 143.499 -44.5s72.166 -69.834 89.499 -120.501h157v0zM484.003 330l-6.5 -0.00292969h-6.5c-19.333 0 -37.666 1.33301 -54.999 4s-32.333 13.334 -45 32.001c-5.33301 8 -9.33301 16 -12 24s-4 15.667 -4 23
c0 10.667 1.66699 21.334 5 32.001s7 21.667 11 33l2 6l2 6c-6.66699 1.33301 -13.167 2.5 -19.5 3.5s-12.5 1.5 -18.5 1.5c-62 0 -116.667 -25 -164 -75s-71 -105.333 -71 -166c0 -43.333 13.667 -79.5 41 -108.5s63 -43.5 107 -43.5c59.333 0 112.166 23.333 158.499 70
s71.5 99.334 75.5 158.001v0z" />
    <glyph glyph-name="P" unicode="P" horiz-adv-x="587" 
d="M640 431c-1.33301 -12.667 -3.5 -25.6641 -6.5 -38.9971s-6.16699 -26.666 -9.5 -39.999c-16 -56 -42.5 -107.333 -79.5 -154s-86.5 -70 -148.5 -70h-32h-32h-32h-32l32 100h19.5h18.5h27h31c30.667 0 58 16 82 48s42 67.333 54 106c4 13.333 7 26.5 9 39.5
s3 25.5 3 37.5c0 7.33301 -0.333008 14.333 -1 21s-2 12.667 -4 18c-0.666992 1.33301 -1.33398 2.16602 -2.00098 2.49902s-1.66699 0.5 -3 0.5c-2.66699 0 -6.16699 -0.833008 -10.5 -2.5s-8.83301 -3.83398 -13.5 -6.50098
c-1.33301 -0.666992 -2.83301 -1.33398 -4.5 -2.00098s-3.16699 -1.33398 -4.5 -2.00098l-14 -8.5c-4 -2.33301 -6.33301 -3.83301 -7 -4.5c-63.333 -52 -119.5 -111.333 -168.5 -178s-95.167 -134.667 -138.5 -204l-23 -35.5l-22 -35.5c-2 -3.33301 -4 -6.5 -6 -9.5
s-4 -6.16699 -6 -9.5h-117l4 6l4 6l1.5 3c0.333008 0.666992 0.833008 1.33398 1.5 2.00098l13.5 23c4.33301 7.33301 7.83301 13 10.5 17l14.5 25l14.5 26c11.333 19.333 22.333 39.5 33 60.5l31 63.5c11.333 24.667 22 49.167 32 73.5s18.667 47.5 26 69.5l5 19.5
c2.66699 10.333 5.33398 21.5 8.00098 33.5c0.666992 0.666992 1 1.5 1 2.5v2.5l9 40.5l4 18.5h-31h-31h-32h-31l32 99h60c35.333 0 65.833 -6.83301 91.5 -20.5s37.834 -45.834 36.501 -96.501v-4.5v-4.5c-0.666992 -4 -1.33398 -8.33301 -2.00098 -13
s-1.33398 -9.66699 -2.00098 -15c7.33301 8.66699 15.5 17.834 24.5 27.501l27.5 29.5c25.333 25.333 53.333 48.666 84 69.999s62.334 32 95.001 32h5.5c1.66699 0 3.16699 -0.333008 4.5 -1c1.33301 0 2.83301 -0.166992 4.5 -0.5s3.5 -0.5 5.5 -0.5
c34 -6 57 -21.5 69 -46.5s18.333 -51.833 19 -80.5v-2v-2c0 -6 -0.166992 -12 -0.5 -18s-0.833008 -11.667 -1.5 -17v0z" />
    <glyph glyph-name="Q" unicode="Q" horiz-adv-x="578" 
d="M605 508c1.33301 -2.66699 2.33203 -5.66699 2.99902 -9s1.33398 -6.33301 2.00098 -9c0 -3.33301 0.166992 -6.5 0.5 -9.5s0.5 -6.16699 0.5 -9.5c0 -4.66699 -0.166992 -9.33398 -0.5 -14.001s-1.16602 -9.33398 -2.49902 -14.001
c-4.66699 -26 -14.834 -51.667 -30.501 -77s-32.167 -48.666 -49.5 -69.999c-6 -6 -11.5 -12 -16.5 -18s-10.167 -11.667 -15.5 -17h67l-33 -99h-138c-12 -10.667 -24.333 -21 -37 -31s-25.667 -19.667 -39 -29h264l-32 -99h-410c-16 0 -31.333 -4.16699 -46 -12.5
s-28 -18.833 -40 -31.5c-8.66699 14 -15.167 27 -19.5 39s-6.5 23.333 -6.5 34c0 22.667 8.66699 40 26 52s38.333 18 63 18c19.333 9.33301 38.333 19 57 29s37 20.333 55 31h-6h-6c-43.333 0.666992 -84.333 8.33398 -123 23.001s-65 46 -79 94
c-2.66699 8 -4.5 15.833 -5.5 23.5s-1.5 15.167 -1.5 22.5c0.666992 64.667 32.667 122.834 96 174.501s133 87.167 209 106.5c18.667 5.33301 37 9.16602 55 11.499s35.667 3.5 53 3.5c43.333 0 82 -8.83301 116 -26.5s57.333 -46.5 70 -86.5v0zM510.999 478
c-5.33301 17.333 -16.333 29.1689 -33 35.502s-34.667 9.5 -54 9.5h-8c-2.66699 0 -5.33398 -0.333008 -8.00098 -1c-12 -0.666992 -23.833 -2 -35.5 -4s-22.5 -4.33301 -32.5 -7c-4 -0.666992 -7.83301 -1.66699 -11.5 -3s-7.16699 -2.33301 -10.5 -3l-36.5 -13.5
c-13 -5 -26.5 -10.833 -40.5 -17.5c-28.667 -14.667 -55.5 -32.334 -80.5 -53.001s-41.833 -44.334 -50.5 -71.001c-1.33301 -4.66699 -2.5 -9.33398 -3.5 -14.001s-1.16699 -9 -0.5 -13c0 -20.667 8.33301 -36.167 25 -46.5s36.334 -15.5 59.001 -15.5h82.5h82.5
c6.66699 6 17 15.833 31 29.5s28.667 28.834 44 45.501l18 20.5l17 20.5c13.333 16.667 24.5 33 33.5 49s13.5 30 13.5 42v5.5c0 1.66699 -0.333008 3.16699 -1 4.5v0z" />
    <glyph glyph-name="R" unicode="R" horiz-adv-x="686" 
d="M719 350c-26.667 -42.667 -61.3281 -77.8359 -103.995 -105.503s-87.667 -48.834 -135 -63.501c10.667 -10.667 20.5 -22.667 29.5 -36s16.833 -27.666 23.5 -42.999h113l-33 -99h-145c-0.666992 2 -1.33398 3.83301 -2.00098 5.5s-1.33398 3.5 -2.00098 5.5
c-16 38 -35.167 70.5 -57.5 97.5s-61.5 41.167 -117.5 42.5l32 100c9.33301 0.666992 18.833 1.5 28.5 2.5s19.167 2.16699 28.5 3.5c50.667 8 99.334 22.667 146.001 44s84 54.333 112 99c1.33301 2 2.66602 4.16699 3.99902 6.5s2.66602 4.83301 3.99902 7.5
c2 3.33301 3.83301 6.83301 5.5 10.5s3.5 7.16699 5.5 10.5c2 4.66699 3.5 9.16699 4.5 13.5s1.5 8.5 1.5 12.5c-0.666992 6.66699 -3 12.334 -7 17.001s-11 7.33398 -21 8.00098c-16.667 1.33301 -36.667 -1.66699 -60 -9s-50.333 -20 -81 -38
c-66 -40 -124.5 -91.167 -175.5 -153.5s-98.5 -126.833 -142.5 -193.5l-29.5 -46l-29.5 -46h-112c31.333 51.333 62 104.5 92 159.5s56.333 110.5 79 166.5l11.5 28l10.5 28c7.33301 20 13.5 38.333 18.5 55s7.83301 31.334 8.5 44.001c0 4 -0.833008 6.83301 -2.5 8.5
s-5.5 2.5 -11.5 2.5h-104l32 99h58c35.333 0 66 -6.66699 92 -20s37.333 -45.333 34 -96c0 -8 -0.833008 -16.167 -2.5 -24.5s-3.83398 -17.5 -6.50098 -27.5l31 28c11.333 10 23.666 20 36.999 30c23.333 17.333 48.5 34.166 75.5 50.499s54.5 29.5 82.5 39.5
c14.667 4.66699 29.334 8.5 44.001 11.5s29 4.5 43 4.5c17.333 0 34 -2.5 50 -7.5s30.667 -13.5 44 -25.5c14.667 -12 25 -25.667 31 -41s9 -31.333 9 -48c0 -4 -0.166992 -7.83301 -0.5 -11.5s-0.833008 -7.16699 -1.5 -10.5
c-2.66699 -17.333 -7.33398 -34.166 -14.001 -50.499s-14.667 -31.5 -24 -45.5v0z" />
    <glyph glyph-name="S" unicode="S" horiz-adv-x="525" 
d="M591 568c5.33301 -8 8.99609 -16.5 10.9961 -25.5s3 -18.167 3 -27.5c0 -2.66699 -0.166992 -5.66699 -0.5 -9s-0.5 -6.33301 -0.5 -9c-2.66699 -16.667 -7.66699 -33 -15 -49s-15.333 -30.333 -24 -43l-45.5 -63.5l-45.5 -63.5l-81 57l45.5 64l45.5 63
c2.66699 3.33301 5 6.83301 7 10.5l6 11.5c2 4.66699 3.83301 9.5 5.5 14.5s2.83398 9.5 3.50098 13.5c-6.66699 0.666992 -15.167 -0.166016 -25.5 -2.49902s-23.166 -6.5 -38.499 -12.5l-27.5 -10.5c-9.66699 -3.66699 -19.5 -7.83398 -29.5 -12.501
c-7.33301 -3.33301 -14.5 -6.83301 -21.5 -10.5s-13.833 -7.5 -20.5 -11.5l-14 -9.5c-5.33301 -3.66699 -10.666 -7.83398 -15.999 -12.501c-9.33301 -7.33301 -17.833 -15.666 -25.5 -24.999s-12.5 -18.666 -14.5 -27.999c-0.666992 -2 -1 -3.66699 -1 -5v-4
c0 -4 0.833008 -8 2.5 -12s4.16699 -8 7.5 -12l64.5 -70.5l64.5 -70.5c6.66699 -6.66699 11.5 -14.334 14.5 -23.001s5.16699 -17.667 6.5 -27v-4.5v-4.5c0 -10 -1 -19.667 -3 -29s-5 -18.333 -9 -27c-10.667 -25.333 -27.167 -45.833 -49.5 -61.5
s-47.833 -23.5 -76.5 -23.5h-293l32 99h130.5h130.5c10 0 18.833 4 26.5 12s11.834 17 12.501 27l-30.5 34l-31.5 34l-31.5 34l-31.5 34c-12.667 13.333 -21.834 28.166 -27.501 44.499s-8.5 32.833 -8.5 49.5c1.33301 43.333 18.5 80.5 51.5 111.5
s69.167 56.167 108.5 75.5c13.333 6.66699 26.333 12.667 39 18l37 15c12 4.66699 25.333 8.83398 40 12.501s29.334 6.16699 44.001 7.5h6.5h6.5c17.333 0 33.5 -3.16699 48.5 -9.5s27.5 -17.5 37.5 -33.5v0z" />
    <glyph glyph-name="T" unicode="T" horiz-adv-x="455" 
d="M549 495l-151 -20l-147 -487l-95 28l134 445l-274 -37l-13 98l319 42l26 86l95 -29l-13 -42l106 14l13 -98v0z" />
    <glyph glyph-name="U" unicode="U" horiz-adv-x="501" 
d="M583 594l-19.5059 -36.0039l-19.5 -37l-6 -10.5c-2 -3.66699 -3.66699 -7.16699 -5 -10.5c-5.33301 -8.66699 -10.333 -17.667 -15 -27s-8.66699 -18.666 -12 -27.999l-29 -86l-28 -85c-2.66699 -10 -5.5 -19.667 -8.5 -29l-9.5 -29l-18 -56.5l-18 -57.5h98l-29 -99h-83
c-20.667 0 -39 6.66699 -55 20s-26.333 29.666 -31 48.999c-22 -21.333 -45.5 -38.166 -70.5 -50.499s-52.167 -18.5 -81.5 -18.5c-51.333 0 -87.166 13.5 -107.499 40.5s-30.5 61.833 -30.5 104.5c0 40 6.16699 79.5 18.5 118.5s25.833 77.5 40.5 115.5l14 35.5
c4.66699 11.667 9 23.5 13 35.5c4.66699 13.333 8 23.5 10 30.5s3 11.833 3 14.5c0 1.33301 -0.166992 2.5 -0.5 3.5s-1.16602 1.5 -2.49902 1.5c-6.66699 2.66699 -13.667 4.66699 -21 6l-22 4c-1.33301 0.666992 -2.5 1 -3.5 1s-2.16699 0.333008 -3.5 1l-14 2
c-4.66699 0.666992 -9.33398 1.66699 -14.001 3l20 96c4.66699 -0.666992 9.33398 -1.5 14.001 -2.5s9.33398 -1.83301 14.001 -2.5c1.33301 0 2.83301 -0.166992 4.5 -0.5s3.16699 -0.5 4.5 -0.5c8.66699 -1.33301 17.667 -3 27 -5s18.333 -4.66699 27 -8
c26.667 -9.33301 45 -22 55 -38s15 -33.667 15 -53c0 -10 -1 -20.167 -3 -30.5s-4.66699 -20.833 -8 -31.5l-8 -22.5l-8 -23.5c-2 -4 -3.83301 -8 -5.5 -12s-3.16699 -8 -4.5 -12c-2.66699 -7.33301 -5.66699 -15.166 -9 -23.499l-10 -25.5l-10.5 -30
c-3.66699 -10 -7.16699 -20.333 -10.5 -31c-6.66699 -20.667 -12.167 -41 -16.5 -61s-6.5 -38.333 -6.5 -55c0 -13.333 2.83301 -24.333 8.5 -33s15.834 -13 30.501 -13c46.667 0 88.834 31.5 126.501 94.5s73.834 132.167 108.501 207.5
c1.33301 3.33301 2.83301 6.5 4.5 9.5s3.16699 6.16699 4.5 9.5c1.33301 2.66699 2.5 5.16699 3.5 7.5s2.16699 4.5 3.5 6.5l10 21.5c3.33301 7 6.33301 14.167 9 21.5c5.33301 12.667 10 25.334 14 38.001s7.66699 25.334 11 38.001c0.666992 0.666992 1.16699 1.5 1.5 2.5
s0.5 1.83301 0.5 2.5c1.33301 5.33301 2.83301 10.833 4.5 16.5s3.5 11.167 5.5 16.5h133v0z" />
    <glyph glyph-name="V" unicode="V" horiz-adv-x="382" 
d="M517 594c-1.33301 -2 -2.49902 -3.99902 -3.49902 -5.99902l-3.5 -7l-18.5 -32.5c-5.66699 -10.333 -9.83398 -17.5 -12.501 -21.5l-19.5 -32l-18.5 -32l-142.5 -224c-49.667 -74.667 -106.167 -148 -169.5 -220c-6.66699 -7.33301 -14.667 -12.833 -24 -16.5
s-19 -6.16699 -29 -7.5h-3h-4c-16.667 0 -31.334 4.5 -44.001 13.5s-19.667 22.833 -21 41.5c-1.33301 30.667 -1.16602 62.667 0.500977 96s4.16699 67 7.5 101c3.33301 36.667 7.66602 73.167 12.999 109.5s11 71.166 17 104.499l12 70.5l11 62.5h100
c-1.33301 -6 -2.5 -12 -3.5 -18s-2.16699 -12 -3.5 -18l-34.5 -207.5c-11 -69 -17.833 -138.167 -20.5 -207.5c54 66 104 134.833 150 206.5l135 217.5c2.66699 4 5.33398 8.33301 8.00098 13l8 14h113v0z" />
    <glyph glyph-name="W" unicode="W" horiz-adv-x="657" 
d="M776 594l-66.499 -110.499l-71.5 -115.5c-39.333 -62.667 -80.333 -124.334 -123 -185.001s-85.334 -115.334 -128.001 -164.001c-6.66699 -7.33301 -14.667 -12.833 -24 -16.5s-19 -6.16699 -29 -7.5h-3h-4c-16.667 0 -31.334 4.5 -44.001 13.5s-19.667 22.833 -21 41.5
c-0.666992 23.333 -0.666992 47 0 71s1.66699 48.333 3 73c-21.333 -30 -43.666 -59.667 -66.999 -89s-47.333 -58 -72 -86c-6.66699 -7.33301 -14.667 -12.833 -24 -16.5s-19 -6.16699 -29 -7.5h-3h-4c-16 0 -30.5 4.5 -43.5 13.5s-19.833 22.833 -20.5 41.5
c-1.33301 30.667 -1.33301 62.667 0 96s3.66602 67 6.99902 101c4 37.333 8.5 74.333 13.5 111s10.5 71.667 16.5 105c4 24.667 8 48 12 70l11 61h102c-1.33301 -6 -2.5 -11.833 -3.5 -17.5s-1.83301 -11.5 -2.5 -17.5c-2.66699 -12.667 -5.16699 -25.5 -7.5 -38.5
s-4.83301 -25.833 -7.5 -38.5c-10 -56.667 -19.167 -113 -27.5 -169s-13.5 -112.667 -15.5 -170l41 50.5c13.333 17 26.333 34.5 39 52.5c0 -1.33301 6 6.66699 18 24l39 59c0.666992 0 1.16699 0.333008 1.5 1l0.5 1l31.5 47c9.66699 14.667 16.5 25.334 20.5 32.001l4 26
l4 25l13 70.5l11 62.5h99l-11.5 -64c-4.33301 -24 -8.5 -49.667 -12.5 -77l-8 -50.5l-8 -52.5c-5.33301 -37.333 -9.83301 -74 -13.5 -110s-6.16699 -68.333 -7.5 -97c54 66 104 134.833 150 206.5l135 217.5c2.66699 4 5.33398 8.33301 8.00098 13l8 14h114v0z" />
    <glyph glyph-name="X" unicode="X" horiz-adv-x="628" 
d="M697 500c-44 -11.333 -88.5 -29.9971 -133.5 -55.9971s-90.5 -58.667 -136.5 -98l149 -343h-108l-118 272c-38.667 -38.667 -76.834 -80.834 -114.501 -126.501s-75.167 -94.167 -112.5 -145.5h-123c28.667 41.333 58.334 81.666 89.001 120.999l92 113l64 71l63 64
l-96 222h108l66 -153c24 19.333 47.833 37.166 71.5 53.499s47.5 30.833 71.5 43.5c24 13.333 47.833 24.833 71.5 34.5s47.5 17.5 71.5 23.5l25 -96v0z" />
    <glyph glyph-name="Y" unicode="Y" horiz-adv-x="454" 
d="M567 594l-53.999 -105l-51 -107c-1.33301 -3.33301 -2.83301 -6.66602 -4.5 -9.99902s-3.5 -6.33301 -5.5 -9l-2 -4l-2 -4c-3.33301 -6.66699 -6.5 -13.334 -9.5 -20.001s-5.83301 -13.667 -8.5 -21c-6.66699 -21.333 -18.167 -60.5 -34.5 -117.5
s-35.5 -117.167 -57.5 -180.5l-14 -40c-4.66699 -13.333 -9.66699 -26.333 -15 -39c-14.667 -36.667 -29.667 -71.5 -45 -104.5s-31 -61.5 -47 -85.5c-3.33301 -5.33301 -7 -10.666 -11 -15.999s-8 -10.333 -12 -15l-74 64c10 12 20.333 27.833 31 47.5
s21.667 41.834 33 66.501l16 38.5l16 40.5c4.66699 10.667 9.16699 21.667 13.5 33s8.16602 22.666 11.499 33.999c-16.667 -12 -34.334 -21.167 -53.001 -27.5s-38.667 -9.5 -60 -9.5c-47.333 0 -79.5 13.667 -96.5 41s-25.5 60.333 -25.5 99c0 10.667 0.5 21.667 1.5 33
s2.5 22.333 4.5 33c2.66699 18 6 35.667 10 53l12 50l11 36l9 30c1.33301 2.66699 3.33301 8.66699 6 18l9 32c0.666992 2 1.33398 4.16699 2.00098 6.5s1.33398 4.83301 2.00098 7.5c3.33301 12.667 6.16602 24.5 8.49902 35.5s3.5 19.167 3.5 24.5v2.5
c0 0.333008 -0.333008 0.833008 -1 1.5c-2.66699 1.33301 -10 2 -22 2s-27.667 -0.666992 -47 -2l-5 99c29.333 2 55.166 2.16699 77.499 0.5s41.833 -9.16699 58.5 -22.5c13.333 -10.667 22.5 -23.334 27.5 -38.001s7.5 -30.667 7.5 -48
c0 -7.33301 -0.333008 -14.833 -1 -22.5s-1.66699 -15.167 -3 -22.5c-2 -10.667 -4.5 -21.5 -7.5 -32.5l-8.5 -31.5l-6 -19.5l-6 -18.5c-1.33301 -4 -4 -13 -8 -27l-14 -49c-2 -7.33301 -3.83301 -15 -5.5 -23s-3.5 -16 -5.5 -24c-3.33301 -14.667 -6 -29 -8 -43
s-3 -26.667 -3 -38c0 -12.667 1.66699 -23.167 5 -31.5s9.33301 -12.5 18 -12.5c40.667 0 78.334 24.333 113.001 73s66.334 105.667 95.001 171c3.33301 7.33301 6.16602 15.333 8.49902 24l7.5 28c2 7.33301 3.83301 14.833 5.5 22.5s3.5 15.5 5.5 23.5
c1.33301 2 2.33301 4.33301 3 7l2 8c6.66699 22.667 13.667 45.167 21 67.5l23 67.5h155v0z" />
    <glyph glyph-name="Z" unicode="Z" horiz-adv-x="597" 
d="M620 405c-24.667 -39.333 -52.3301 -76.333 -82.9971 -111l-94 -102l-2 -2l-2 -2l-32 -34.5l-32 -34.5c2 -6 4.16699 -12 6.5 -18s4.83301 -11.667 7.5 -17c38 10 72 18 102 24s51.333 10 64 12l15 -98l-61 -10.5c-28.667 -5 -61 -11.167 -97 -18.5
c0 -1.33301 0.166992 -2.83301 0.5 -4.5s0.5 -3.5 0.5 -5.5v-4.5v-4.5c-0.666992 -58 -24 -107.667 -70 -149s-96.667 -67 -152 -77c-8 -2 -16 -3.33301 -24 -4s-16 -1 -24 -1h-4.5h-5.5c-30.667 2 -59.334 11.667 -86.001 29s-42.334 42 -47.001 74v6v5
c0 43.333 30.167 81.666 90.5 114.999s126.833 61.333 199.5 84c0.666992 0 1.16699 0.166992 1.5 0.5s0.833008 0.5 1.5 0.5l-8 20.5l-8 20.5l-8 20.5l-8 20.5l40.5 45l41.5 44l8.5 8.5c3 3 5.83301 6.16699 8.5 9.5l94 102.5c30.667 35 58 71.5 82 109.5
c3.33301 5.33301 5.83301 10.333 7.5 15s2.5 9.33398 2.5 14.001c0 6.66699 -2.16699 12.834 -6.5 18.501s-11.166 9.83398 -20.499 12.501c-6.66699 2 -13.334 3.5 -20.001 4.5s-13.667 1.5 -21 1.5c-18.667 0 -38.167 -2.83301 -58.5 -8.5s-40.833 -12.834 -61.5 -21.501
c-21.333 -8.66699 -42.333 -18.667 -63 -30s-40.334 -23 -59.001 -35c-22 -14 -41.833 -27.333 -59.5 -40l-44.5 -33l-61 78l37 27.5c13.333 9.66699 27.666 19.5 42.999 29.5c32.667 21.333 68.334 42 107.001 62s78 35.667 118 47c19.333 5.33301 38.333 9.5 57 12.5
s37 4.5 55 4.5c21.333 0 42 -2.33301 62 -7s39 -12.334 57 -23.001c15.333 -9.33301 26.333 -21.5 33 -36.5s10 -31.167 10 -48.5c0 -3.33301 -0.166992 -7 -0.5 -11s-0.833008 -7.66699 -1.5 -11c-2 -14 -5.5 -27.5 -10.5 -40.5s-10.833 -24.5 -17.5 -34.5v0zM311.004 -32
c-6.66699 -1.33301 -20.165 -4.83008 -40.498 -10.4971s-41.833 -12.834 -64.5 -21.501c-22 -8 -42.833 -16.833 -62.5 -26.5s-33.167 -19.5 -40.5 -29.5c-2 -2 -3.5 -4.16699 -4.5 -6.5s-1.5 -4.83301 -1.5 -7.5v-2c0 -0.666992 0.333008 -1.33398 1 -2.00098l0.5 -1
c0.333008 -0.666992 0.5 -1.33398 0.5 -2.00098c2 -4 5.33301 -7.16699 10 -9.5s9.66699 -3.83301 15 -4.5c3.33301 -0.666992 6.66602 -1.16699 9.99902 -1.5s6.33301 -0.5 9 -0.5c7.33301 0 15 0.5 23 1.5s16 2.83301 24 5.5c29.333 8 56.166 22.333 80.499 43
s37.833 46 40.5 76v-1z" />
    <glyph glyph-name="bracketleft" unicode="[" horiz-adv-x="500" 
 />
    <glyph glyph-name="backslash" unicode="\" horiz-adv-x="500" 
 />
    <glyph glyph-name="bracketright" unicode="]" horiz-adv-x="500" 
 />
    <glyph glyph-name="asciicircum" unicode="^" horiz-adv-x="500" 
 />
    <glyph glyph-name="underscore" unicode="_" horiz-adv-x="500" 
 />
    <glyph glyph-name="grave" unicode="`" horiz-adv-x="341" 
d="M291 563l-25 -73l-219 74l25 73l219 -74v0z" />
    <glyph glyph-name="a" unicode="a" horiz-adv-x="367" 
d="M389 101l-32.001 -98.9971h-97c-10.667 0 -20.334 1.66699 -29.001 5s-16.667 7.66602 -24 12.999c-10 -6 -20.833 -11 -32.5 -15s-23.167 -6.66699 -34.5 -8c-4 -0.666992 -8 -1.16699 -12 -1.5s-8 -0.5 -12 -0.5c-20.667 0 -40.167 4.66699 -58.5 14
s-32.833 24.333 -43.5 45c-4 8.66699 -7 17.167 -9 25.5s-3 16.833 -3 25.5c0 17.333 3.33301 34.166 10 50.499s15.334 31.5 26.001 45.5c33.333 44.667 74.833 76.167 124.5 94.5s101.167 28.166 154.5 29.499h6.5h7.5v-99c-21.333 0 -42.5 -1.33301 -63.5 -4
s-41.167 -7.66699 -60.5 -15c-17.333 -6 -33.666 -14.333 -48.999 -25s-28.666 -23.667 -39.999 -39c-0.666992 -1.33301 -1.66699 -3 -3 -5s-2.66602 -4.33301 -3.99902 -7c-1.33301 -2 -2.5 -4 -3.5 -6l-3.5 -7c-0.666992 -2 -1.33398 -4.33301 -2.00098 -7s-1 -5 -1 -7
c0 -2.66699 1 -5.16699 3 -7.5s5.33301 -3.5 10 -3.5c26 0 45.333 8.66699 58 26s22.667 36.333 30 57c1.33301 4.66699 2.66602 9 3.99902 13l4 12l94 -31l-22 -69h107v0z" />
    <glyph glyph-name="b" unicode="b" horiz-adv-x="339" 
d="M407 288l-32 -99.9961h-58c-0.666992 -6.66699 -1.66699 -13.334 -3 -20.001s-3 -13.334 -5 -20.001c-12 -36.667 -35.333 -70.334 -70 -101.001s-72.667 -46 -114 -46c-6.66699 0 -13.334 0.666992 -20.001 2s-13.667 3 -21 5c-27.333 9.33301 -47.666 25 -60.999 47
s-19.666 46 -18.999 72c0 4 0.166992 8.16699 0.5 12.5s0.833008 8.83301 1.5 13.5s1.5 9.16699 2.5 13.5s2.16699 8.5 3.5 12.5l142 438h104l-152 -469c-0.666992 -2 -1.16699 -3.83301 -1.5 -5.5s-0.833008 -3.5 -1.5 -5.5c0 -2 -0.166992 -4 -0.5 -6s-0.5 -4 -0.5 -6
c0 -6.66699 1.66699 -12.334 5 -17.001s9 -7 17 -7c16.667 0 32.667 6.33301 48 19s27 26.667 35 42c2 2.66699 3.66699 5.5 5 8.5s2.33301 5.83301 3 8.5c1.33301 3.33301 2.16602 6.5 2.49902 9.5s0.5 5.83301 0.5 8.5c0 5.33301 -0.666992 10.5 -2 15.5
s-3 9.83301 -5 14.5c-0.666992 1.33301 -1.16699 2.5 -1.5 3.5s-0.833008 2.16699 -1.5 3.5c-2.66699 6 -5 12.167 -7 18.5s-3 13.5 -3 21.5c0 4 0.333008 8 1 12s1.66699 8.33301 3 13l8 27l94 -30l-2 -8h105v0z" />
    <glyph glyph-name="c" unicode="c" horiz-adv-x="342" 
d="M360 101l-33.001 -98.998h-222c-18.667 0 -36 4.16699 -52 12.5s-28.333 20.833 -37 37.5c-4 8 -6.83301 16.167 -8.5 24.5s-2.5 16.833 -2.5 25.5c0 16.667 2.5 33 7.5 49s10.833 31 17.5 45c0 0.666992 0.166992 1.16699 0.5 1.5s0.5 0.833008 0.5 1.5
c18 34.667 45.167 66.334 81.5 95.001s74.833 43 115.5 43h3.5h3.5c0.666992 -0.666992 1.66699 -1 3 -1h4c25.333 -2.66699 46 -12 62 -28s24 -36.333 24 -61v-3v-3c0 -1.33301 -0.166992 -2.5 -0.5 -3.5s-0.5 -2.16699 -0.5 -3.5l-5 -44h-100l5 48
c-19.333 -1.33301 -37.666 -9 -54.999 -23s-31.333 -29.333 -42 -46l-5.5 -9c-1.66699 -2.66699 -3.16699 -5.33398 -4.5 -8.00098c0 -0.666992 -0.833008 -2.83398 -2.5 -6.50098s-3.5 -8.16699 -5.5 -13.5c-0.666992 -0.666992 -1.16699 -1.5 -1.5 -2.5
s-0.833008 -1.83301 -1.5 -2.5l-4 -13.5c-1.33301 -4.33301 -2 -7.5 -2 -9.5c0 -0.666992 0.166992 -1.33398 0.5 -2.00098s0.833008 -1 1.5 -1h255v0z" />
    <glyph glyph-name="d" unicode="d" horiz-adv-x="384" 
d="M457 617l-151.996 -469.001l-2.5 -10c-1 -4 -1.5 -8 -1.5 -12c0 -2.66699 0.333008 -5.16699 1 -7.5s1.66699 -4.83301 3 -7.5c2 -2.66699 4.66699 -4.66699 8 -6s6.66602 -2.33301 9.99902 -3c1.33301 -0.666992 2.66602 -1 3.99902 -1h4h65l-32 -99h-33
c-18.667 0 -36.667 3.5 -54 10.5s-32.333 17.833 -45 32.5c-14.667 -12 -30.334 -21.667 -47.001 -29s-33.334 -11.666 -50.001 -12.999c-2.66699 -0.666992 -5.16699 -1 -7.5 -1h-7.5c-41.333 0 -71.5 12 -90.5 36s-28.5 52 -28.5 84c0 4.66699 0.166992 9.16699 0.5 13.5
s0.833008 8.5 1.5 12.5c1.33301 8.66699 3.33301 17.5 6 26.5s5.66699 17.5 9 25.5c14.667 32.667 37.5 61.5 68.5 86.5s67.833 37.5 110.5 37.5h61l95 293h104v0zM226.004 225.999h-29.001c-23.333 0 -44.166 -9.33301 -62.499 -28s-29.833 -39 -34.5 -61
c0 -1.33301 -0.166992 -2.66602 -0.5 -3.99902s-0.5 -2.66602 -0.5 -3.99902c-0.666992 -8.66699 0.166016 -15.5 2.49902 -20.5s8.5 -7.5 18.5 -7.5h3.5h3.5c16.667 2 32.334 9.5 47.001 22.5s25 27.167 31 42.5c0.666992 1.33301 1.16699 2.66602 1.5 3.99902
s0.833008 2.66602 1.5 3.99902l18 52v0z" />
    <glyph glyph-name="e" unicode="e" horiz-adv-x="342" 
d="M352 101l-32.9971 -99h-218c-18 0 -34.833 3.83301 -50.5 11.5s-27.834 19.5 -36.501 35.5c-4 7.33301 -7 15.333 -9 24s-3 17.334 -3 26.001c0 2 0.166992 4.16699 0.5 6.5s0.5 4.83301 0.5 7.5c1.33301 13.333 4.16602 26.833 8.49902 40.5s8.83301 26.167 13.5 37.5
c14 32 31.167 58.5 51.5 79.5s41.5 36.833 63.5 47.5c9.33301 5.33301 18.5 9.5 27.5 12.5s17.833 5.16699 26.5 6.5c4 0.666992 8 1.16699 12 1.5s8.33301 0.5 13 0.5c27.333 0 51.666 -7.66699 72.999 -23s32 -36.666 32 -63.999c0 -5.33301 -0.5 -10.833 -1.5 -16.5
s-2.83301 -11.834 -5.5 -18.501c-5.33301 -16.667 -16.333 -34.834 -33 -54.501s-40 -40.167 -70 -61.5h138v0zM221.003 242c-24 -1.33301 -45 -10.667 -63 -28s-31.333 -36.333 -40 -57c0 -0.666992 -0.166992 -1.16699 -0.5 -1.5s-0.5 -0.833008 -0.5 -1.5
c30.667 18 54.167 34.5 70.5 49.5s27.5 27.833 33.5 38.5v0z" />
    <glyph glyph-name="f" unicode="f" horiz-adv-x="377" 
d="M390 326l-32.001 -100.002h-58c17.333 -26 30.333 -54.5 39 -85.5s12.667 -63.167 12 -96.5v-12c0 -4 -0.333008 -8 -1 -12c-3.33301 -60 -20 -117.5 -50 -172.5s-70.667 -96.167 -122 -123.5c-10.667 -6 -21.834 -10.833 -33.501 -14.5s-23.5 -6.16699 -35.5 -7.5
c-2.66699 -0.666992 -5.16699 -1 -7.5 -1h-7.5c-16 0 -31.167 3.16699 -45.5 9.5s-27.166 16.833 -38.499 31.5v-2c-6.66699 11.333 -12.167 23.833 -16.5 37.5s-6.5 29.167 -6.5 46.5c0 12.667 1.33301 26.334 4 41.001s6.33398 30.334 11.001 47.001l102 314h-87l40 100
h79l94 291h105l-94 -291h149v0zM215.999 171.998c-2.66699 4 -5.49902 7.83203 -8.49902 11.499s-6.16699 6.83398 -9.5 9.50098l-50.5 -155.5l-50.5 -155.5c-0.666992 -1.33301 -1.16699 -2.5 -1.5 -3.5s-0.5 -2.16699 -0.5 -3.5c-1.33301 -2.66699 -2.33301 -5.5 -3 -8.5
s-1.33398 -5.83301 -2.00098 -8.5c-2 -6 -3.5 -12 -4.5 -18s-1.5 -11.667 -1.5 -17c0 -6.66699 1.33301 -12 4 -16s7.33398 -6 14.001 -6c3.33301 0 7.5 0.833008 12.5 2.5s10.833 4.16699 17.5 7.5c34 18.667 61.5 48 82.5 88s33.167 81.667 36.5 125
c0.666992 3.33301 1 6.83301 1 10.5v11.5c0 23.333 -2.83301 45.833 -8.5 67.5s-14.834 41.167 -27.501 58.5v0z" />
    <glyph glyph-name="g" unicode="g" horiz-adv-x="355" 
d="M362 226c-14 0 -29.002 -0.337891 -45.002 -1.00488s-32 -2 -48 -4c-30.667 -4 -60.167 -12.167 -88.5 -24.5s-50.166 -31.5 -65.499 -57.5c-0.666992 -1.33301 -1.33398 -2.5 -2.00098 -3.5s-1.33398 -2.16699 -2.00098 -3.5c-2 -3.33301 -3.66699 -6.66602 -5 -9.99902
s-1.66602 -6.33301 -0.999023 -9c0 -3.33301 1.33301 -6.16602 4 -8.49902s7.33398 -3.5 14.001 -3.5s13.334 0.833008 20.001 2.5s13.667 3.83398 21 6.50098c20 8 39 20.5 57 37.5s29.667 34.833 35 53.5c0 0.666992 0.166992 1.16699 0.5 1.5s0.5 0.833008 0.5 1.5l1 3
l95 -28l-84 -259c-18.667 -55.333 -54.5 -103.333 -107.5 -144s-109.167 -61 -168.5 -61l-1 97c2.66699 0.666992 4.83398 1 6.50098 1s3.5 0.333008 5.5 1c36.667 2.66699 71.5 17.834 104.5 45.501s55.167 58.5 66.5 92.5l21 65c-6 -2.66699 -12 -4.83398 -18 -6.50098
s-12 -3.16699 -18 -4.5c-6.66699 -1.33301 -13 -2.33301 -19 -3s-12 -1 -18 -1c-20.667 0 -40.5 4.66699 -59.5 14s-33.833 23.333 -44.5 42c-4.66699 8.66699 -8 17.334 -10 26.001s-3 17.334 -3 26.001c0 13.333 2.16699 26.666 6.5 39.999s9.83301 26 16.5 38
c27.333 46.667 64.166 79.334 110.499 98.001s94.833 30.334 145.5 35.001c12.667 1.33301 25.5 2.16602 38.5 2.49902s25.833 0.5 38.5 0.5v-98v0z" />
    <glyph glyph-name="h" unicode="h" horiz-adv-x="392" 
d="M406 101l-32.0039 -99h-71c-24.667 0 -44.667 8.16699 -60 24.5s-23 35.5 -23 57.5c0 2.66699 0.166992 5.16699 0.5 7.5s0.5 4.83301 0.5 7.5c0.666992 2 1.33398 4.16699 2.00098 6.5s1.33398 4.83301 2.00098 7.5c2 6.66699 4.33301 13.5 7 20.5s5 14.167 7 21.5
c1.33301 2.66699 2.5 5.33398 3.5 8.00098s1.83301 5 2.5 7c3.33301 9.33301 6.16602 18.333 8.49902 27s4.16602 17 5.49902 25c-20 -8 -39.167 -21.333 -57.5 -40s-34.166 -38.667 -47.499 -60c-6 -8.66699 -11.333 -17.5 -16 -26.5s-8.66699 -17.5 -12 -25.5l-22 -68
h-104l200 615h104l-101 -312c8 4.66699 16.333 8.5 25 11.5s17.334 5.5 26.001 7.5c2.66699 0 5.5 0.166992 8.5 0.5s5.83301 0.5 8.5 0.5c5.33301 0 10.833 -0.5 16.5 -1.5s10.834 -2.5 15.501 -4.5c19.333 -6.66699 33.333 -18.334 42 -35.001s13 -34.667 13 -54
c0 -10 -1.16699 -21 -3.5 -33s-6.16602 -24.667 -11.499 -38c-1.33301 -4.66699 -2.83301 -9.5 -4.5 -14.5s-3.16699 -9.83301 -4.5 -14.5s-2.83301 -9.5 -4.5 -14.5s-3.16699 -9.83301 -4.5 -14.5h81v0z" />
    <glyph glyph-name="i" unicode="i" horiz-adv-x="198" 
d="M208 101l-32.002 -99h-90c-24.667 0 -44.667 8.16699 -60 24.5s-23 35.5 -23 57.5c0 2.66699 0.166992 5.16699 0.5 7.5s0.5 4.83301 0.5 7.5c0.666992 2 1.33398 4.16699 2.00098 6.5s1.33398 4.83301 2.00098 7.5l68 213h105l-72 -225h99v0zM232.998 477
c0 -18.667 -6.5 -34.834 -19.5 -48.501s-29.167 -20.5 -48.5 -20.5c-18.667 0 -34.667 6.83301 -48 20.5s-20 29.834 -20 48.501s6.66699 34.667 20 48s29.333 20 48 20c19.333 0 35.5 -6.66699 48.5 -20s19.5 -29.333 19.5 -48v0z" />
    <glyph glyph-name="j" unicode="j" horiz-adv-x="367" 
d="M394 326l-118.002 -362.003c-18 -55.333 -53.167 -103.166 -105.5 -143.499s-107.833 -61.166 -166.5 -62.499h-2h-2v97c2.66699 0.666992 5.16699 1 7.5 1s4.83301 0.333008 7.5 1c36 4 70 19.667 102 47s53.667 57.666 65 90.999l48 150
c-8 -3.33301 -16.167 -6.5 -24.5 -9.5s-16.833 -5.83301 -25.5 -8.5l-25 96c3.33301 0.666992 6.83301 1.5 10.5 2.5s7.16699 2.16699 10.5 3.5c22.667 8.66699 44.334 21.334 65.001 38.001s36.334 36.334 47.001 59.001h106v0zM429.998 476.997
c0 -18.667 -6.5 -34.834 -19.5 -48.501s-29.167 -20.5 -48.5 -20.5c-18.667 0 -34.667 6.83301 -48 20.5s-20 29.834 -20 48.501s6.66699 34.667 20 48s29.333 20 48 20c19.333 0 35.5 -6.66699 48.5 -20s19.5 -29.333 19.5 -48v0z" />
    <glyph glyph-name="k" unicode="k" horiz-adv-x="354" 
d="M376 268l-145.999 -108.001l25 -57c1.33301 -0.666992 3.16602 -1.16699 5.49902 -1.5s4.83301 -0.5 7.5 -0.5h74l-33 -99h-41h-2.5h-2.5c-19.333 0.666992 -38 5.33398 -56 14.001s-31.333 23 -40 43l-26 59l-38 -116h-104l199 615h104l-119 -369l134 100l59 -80v0z" />
    <glyph glyph-name="l" unicode="l" horiz-adv-x="207" 
d="M286 617l-168.002 -516h99l-32 -99h-89c-24.667 0 -44.667 8.16699 -60 24.5s-23 35.5 -23 57.5c0 2.66699 0.166992 5.16699 0.5 7.5s0.5 4.83301 0.5 7.5c0.666992 2 1.33398 4.16699 2.00098 6.5s1.33398 4.83301 2.00098 7.5l164 504h104v0z" />
    <glyph glyph-name="m" unicode="m" horiz-adv-x="596" 
d="M593 101l-32.0039 -98.9912h-68c-24.667 0 -44.667 8 -60 24s-23 35.333 -23 58c0 4.66699 0.5 9.5 1.5 14.5s2.16699 9.83301 3.5 14.5l12 39.5c4 13 8.33301 25.833 13 38.5c0.666992 2 1.33398 3.83301 2.00098 5.5s1 3.16699 1 4.5l4 10.5
c1.33301 3.66699 2 7.16699 2 10.5c-6 -2 -12.5 -5.33301 -19.5 -10s-14.167 -10.334 -21.5 -17.001c-18.667 -16 -36.334 -35 -53.001 -57s-29.667 -44.667 -39 -68c-4 -10.667 -7.66699 -21.834 -11 -33.501l-10 -34.5h-105c2.66699 8 5.16699 16.167 7.5 24.5
s4.83301 16.833 7.5 25.5s5.5 17.167 8.5 25.5s6.16699 16.5 9.5 24.5c2 7.33301 4.16699 14.666 6.5 21.999l7.5 23c2.66699 7.33301 5.16699 14.666 7.5 21.999s4.83301 14.666 7.5 21.999c0.666992 1.33301 1.16699 2.66602 1.5 3.99902s0.5 2.66602 0.5 3.99902
c1.33301 3.33301 2.5 7 3.5 11s1.83301 8 2.5 12c-5.33301 -2 -11.666 -5.33301 -18.999 -10s-14.666 -10.334 -21.999 -17.001c-18.667 -16.667 -36.5 -35.667 -53.5 -57s-29.5 -44 -37.5 -68l-22 -68h-103l104 324h105l-8 -22c8 4.66699 16.5 8.5 25.5 11.5
s18.167 5.5 27.5 7.5c2.66699 0 5.66699 0.166992 9 0.5s6.33301 0.5 9 0.5c15.333 0 29.333 -3.33301 42 -10s23.334 -18 32.001 -34v-0.5c0 -0.333008 0.333008 -0.833008 1 -1.5c0 -0.666992 0.166992 -1.16699 0.5 -1.5l0.5 -0.5c17.333 14 35.333 25.667 54 35
s37.334 14 56.001 14c5.33301 0 10.833 -0.5 16.5 -1.5s11.167 -2.5 16.5 -4.5c20 -8 33.833 -19.833 41.5 -35.5s11.5 -32.834 11.5 -51.501c0 -12.667 -1.16699 -25 -3.5 -37s-5.5 -23.667 -9.5 -35c-2 -4.66699 -3.83301 -9.5 -5.5 -14.5s-3.16699 -9.83301 -4.5 -14.5
c-1.33301 -5.33301 -2.83301 -10.333 -4.5 -15s-3.16699 -9.66699 -4.5 -15h78v0z" />
    <glyph glyph-name="n" unicode="n" horiz-adv-x="404" 
d="M406 101l-33.0029 -98.9971h-69c-24.667 0 -44.667 8 -60 24s-23 35.333 -23 58c0 4.66699 0.5 9.5 1.5 14.5s2.16699 9.83301 3.5 14.5l4 13.5l4 12.5l8 26l8 26c0.666992 1.33301 1.16699 2.66602 1.5 3.99902s0.5 2.66602 0.5 3.99902c1.33301 3.33301 2.5 7 3.5 11
s1.83301 8 2.5 12c-5.33301 -2 -11.666 -5.33301 -18.999 -10s-14.666 -10.334 -21.999 -17.001c-18.667 -16 -36.167 -35 -52.5 -57s-29.166 -44.667 -38.499 -68l-22 -68h-104l105 324h104l-7 -21c7.33301 4 14.833 7.5 22.5 10.5s15.5 5.16699 23.5 6.5
c4 1.33301 7.83301 2.16602 11.5 2.49902s7.5 0.5 11.5 0.5c5.33301 0 10.833 -0.5 16.5 -1.5s10.834 -2.5 15.501 -4.5c19.333 -6.66699 33.333 -18.334 42 -35.001s13 -34.667 13 -54c0 -10 -1.16699 -20.833 -3.5 -32.5s-5.83301 -24.167 -10.5 -37.5
c-2 -4.66699 -3.66699 -9.5 -5 -14.5l-4 -14.5c-0.666992 -2 -1.33398 -3.83301 -2.00098 -5.5s-1 -3.16699 -1 -4.5c-1.33301 -3.33301 -2.33301 -6.66602 -3 -9.99902s-1.66699 -6.66602 -3 -9.99902h80v0z" />
    <glyph glyph-name="o" unicode="o" horiz-adv-x="351" 
d="M400 248l-33.002 -102.001h-48c-8.66699 -38.667 -29.167 -72.334 -61.5 -101.001s-69.166 -43 -110.499 -43h-5.5c-1.66699 0 -3.5 0.333008 -5.5 1c-2 0 -3.83301 0.166992 -5.5 0.5s-3.5 0.5 -5.5 0.5c-36.667 5.33301 -66.167 21.833 -88.5 49.5
s-33.5 59.834 -33.5 96.501c0 47.333 17.333 89.5 52 126.5s76.334 55.5 125.001 55.5c29.333 0 55.5 -7.66699 78.5 -23s40.167 -35.666 51.5 -60.999h90v0zM211.998 147.999c-17.333 3.33301 -32.168 11.667 -44.501 25s-19.5 29.333 -21.5 48
c-10.667 -6.66699 -19.667 -15.5 -27 -26.5s-12 -22.5 -14 -34.5v-2.5v-2.5c-0.666992 -0.666992 -1 -1.5 -1 -2.5v-2.5c0.666992 -12 4.5 -22.667 11.5 -32s17.5 -14 31.5 -14c13.333 0 25.833 4.33301 37.5 13s20.834 19 27.501 31v0z" />
    <glyph glyph-name="p" unicode="p" horiz-adv-x="501" 
d="M511 101l-32.001 -98.999h-297v99h65c4.66699 0 9.33398 0.5 14.001 1.5s9.33398 2.16699 14.001 3.5c20 7.33301 38.167 19.5 54.5 36.5s24.5 35.167 24.5 54.5c0 10.667 -3.33301 18.167 -10 22.5s-14.667 6.5 -24 6.5c-13.333 0 -28.333 -5.16699 -45 -15.5
s-33.667 -24.5 -51 -42.5c-1.33301 -2 -3 -4.16699 -5 -6.5s-4 -4.5 -6 -6.5c-19.333 -22.667 -38 -48.834 -56 -78.501s-32.667 -61.5 -44 -95.5l-84 -261l-94 31l112 346c8.66699 27.333 14.667 51.666 18 72.999s5 40.333 5 57c0 12.667 -0.666992 24.167 -2 34.5
s-3 19.5 -5 27.5c-0.666992 2.66699 -1.16699 5.33398 -1.5 8.00098s-0.833008 5 -1.5 7c-0.666992 3.33301 -1.16699 5.5 -1.5 6.5s-0.833008 1.83301 -1.5 2.5l97 21c1.33301 -3.33301 2 -5.5 2 -6.5v-1.5l2 -10c0.666992 -3.33301 1.33398 -7 2.00098 -11
c2 -7.33301 3.66699 -15.5 5 -24.5s2.33301 -18.833 3 -29.5c21.333 20.667 45.166 38.167 71.499 52.5s53.833 21.5 82.5 21.5c7.33301 0 14.666 -0.5 21.999 -1.5s14.666 -2.83301 21.999 -5.5c26.667 -8.66699 47.834 -24 63.501 -46s23.5 -47 23.5 -75
c0 -16.667 -2.83301 -33.167 -8.5 -49.5s-13.167 -31.833 -22.5 -46.5h89v0z" />
    <glyph glyph-name="q" unicode="q" horiz-adv-x="433" 
d="M445 103l-33.001 -99h-34c0.666992 -4 1.16699 -8.16699 1.5 -12.5s0.5 -8.83301 0.5 -13.5c0 -10 -0.666992 -19.833 -2 -29.5s-3 -19.167 -5 -28.5l-4 -14.5l-4 -14.5c-3.33301 -10.667 -7.66602 -22.167 -12.999 -34.5s-11.333 -24.833 -18 -37.5
c-16.667 -29.333 -37.334 -56.333 -62.001 -81s-52.334 -37 -83.001 -37c-4.66699 0 -9.5 0.5 -14.5 1.5s-10.167 2.16699 -15.5 3.5c-22 6.66699 -38 19 -48 37s-15 37.333 -15 58c0 6.66699 0.666992 13.5 2 20.5s3 14.167 5 21.5l54 166
c-5.33301 -1.33301 -11.166 -2.5 -17.499 -3.5s-12.833 -1.5 -19.5 -1.5c-20.667 0 -40 4 -58 12s-32 21.333 -42 40c-4.66699 8 -8 16.167 -10 24.5s-3 16.833 -3 25.5c0 14 2.16699 27.833 6.5 41.5s9.5 26.834 15.5 39.501c20 41.333 50.333 72.666 91 93.999
s83.334 35.333 128.001 42c16 2 31.833 3.33301 47.5 4s30.834 0.333984 45.501 -0.999023l-7 -99c-26 2 -51.167 1.16699 -75.5 -2.5s-46.5 -9.5 -66.5 -17.5c-20.667 -8.66699 -39.834 -21.834 -57.501 -39.501s-27.167 -38.5 -28.5 -62.5
c1.33301 -0.666992 3.33301 -1 6 -1h8c23.333 0 42.5 8.16699 57.5 24.5s27.167 34.5 36.5 54.5l6 17l94 -30l-22 -67h153v0zM280.999 -18c0 5.33301 -0.167969 9.66699 -0.500977 13s-0.833008 6.33301 -1.5 9h-19l-15.5 -47.5l-15.5 -47.5l-15.5 -47.5l-15.5 -48.5
c-0.666992 -1.33301 -1 -2.66602 -1 -3.99902v-3c0 -2.66699 1.16699 -3 3.5 -1s5.16602 5 8.49902 9c0.666992 0 1.16699 0.333008 1.5 1l0.5 1c2.66699 2.66699 4.83398 5.16699 6.50098 7.5s2.83398 3.83301 3.50098 4.5c14 18 26.333 38.167 37 60.5
s17.667 45.166 21 68.499c0.666992 4 1.16699 8.16699 1.5 12.5s0.5 8.83301 0.5 13.5v-1z" />
    <glyph glyph-name="r" unicode="r" horiz-adv-x="345" 
d="M344 226l-37.999 0.00292969c-4 -2.66699 -10 -8 -18 -16s-16.333 -17 -25 -27c-2.66699 -2.66699 -5.33398 -5.66699 -8.00098 -9s-5.33398 -6.33301 -8.00098 -9c-8.66699 -11.333 -16 -21.833 -22 -31.5s-9 -17.5 -9 -23.5
c0.666992 -2.66699 1.83398 -4.83398 3.50098 -6.50098s4.5 -2.5 8.5 -2.5h112l-32 -99h-17.5h-22.5h-22.5h-17.5c-20.667 0 -39.834 4.66699 -57.501 14s-31.5 23.333 -41.5 42c-2 4 -3.66699 8 -5 12s-2.33301 8.33301 -3 13c-1.33301 4 -2.16602 8 -2.49902 12
s-0.5 8 -0.5 12c0 21.333 4.66699 42.166 14 62.499s20.333 39.166 33 56.499h-16c-2 0 -3.83301 -0.166992 -5.5 -0.5s-3.5 -0.833008 -5.5 -1.5c-6.66699 -2 -13 -5.83301 -19 -11.5s-10.333 -11.5 -13 -17.5c-0.666992 -0.666992 -1.16699 -1.5 -1.5 -2.5
s-0.5 -1.83301 -0.5 -2.5l-8 -23l-94 31l55 172l95 -31l-5 -13h197v-100v0z" />
    <glyph glyph-name="s" unicode="s" horiz-adv-x="258" 
d="M251 153c0 -44.667 -13.666 -80.9961 -40.999 -108.996s-63.666 -42 -108.999 -42h-101l32 99h69c17.333 0 30.166 4.16699 38.499 12.5s12.5 21.5 12.5 39.5c0 9.33301 -1 18.166 -3 26.499s-4.66699 15.833 -8 22.5l-32.5 -44.5c-9 -12.333 -13.5 -18.833 -13.5 -19.5
l-80 58l21.5 30l48.5 66l47 66c14.667 20 22 30.333 22 31l89 -44c-0.666992 -0.666992 -4.66699 -6.33398 -12 -17.001l-28 -39c15.333 -18.667 27.166 -39.834 35.499 -63.501s12.5 -47.834 12.5 -72.501v0z" />
    <glyph glyph-name="t" unicode="t" horiz-adv-x="235" 
d="M242 325l-32.002 -99h-53l-41 -125h119l-32 -99h-112c-24 0 -43.5 8 -58.5 24s-22.5 34.667 -22.5 56c0 2 0.166992 4.16699 0.5 6.5s0.5 4.83301 0.5 7.5c0.666992 2.66699 1.33398 5.16699 2.00098 7.5s1.33398 4.5 2.00098 6.5l38 116h-56l33 99h55l38 117l94 -31
l-28 -86h53v0z" />
    <glyph glyph-name="u" unicode="u" horiz-adv-x="338" 
d="M348 101l-33.001 -98.9941h-14.5h-15.5c-14.667 0 -28.834 2.66699 -42.501 8s-25.834 12.666 -36.501 21.999c-13.333 -9.33301 -27.833 -16.666 -43.5 -21.999s-31.5 -8 -47.5 -8c-3.33301 0 -6.5 0.166992 -9.5 0.5s-6.16699 0.833008 -9.5 1.5
c-3.33301 0 -6.5 0.5 -9.5 1.5s-6.16699 1.83301 -9.5 2.5c-24 8 -42.167 21.667 -54.5 41s-18.166 40.333 -17.499 63c0 3.33301 0.166992 6.66602 0.5 9.99902s0.833008 6.66602 1.5 9.99902c0 3.33301 0.5 6.66602 1.5 9.99902s1.83301 6.66602 2.5 9.99902l56 174h104
l-66 -205c-0.666992 -2 -1.16699 -4 -1.5 -6s-0.5 -3.66699 -0.5 -5c0 -2.66699 0.833008 -4.83398 2.5 -6.50098s4.83398 -2.5 9.50098 -2.5c2 0 4 0.166992 6 0.5s4 0.833008 6 1.5c11.333 2.66699 22 8.5 32 17.5s16.667 18.5 20 28.5
c0 0.666992 0.166992 1.16699 0.5 1.5s0.5 0.833008 0.5 1.5l57 174h103l-65 -205c-0.666992 -2 -1.16699 -4 -1.5 -6s-0.5 -3.66699 -0.5 -5c0 -2.66699 0.833008 -4.83398 2.5 -6.50098s4.83398 -2.5 9.50098 -2.5h63v0z" />
    <glyph glyph-name="v" unicode="v" horiz-adv-x="319" 
d="M381 276l-32.002 -99.0029h-83c-4.66699 -8 -9.66699 -16 -15 -24s-11 -16 -17 -24c-20 -26.667 -41.5 -50 -64.5 -70s-47.833 -39 -74.5 -57h-27l-12 17.5c-4 5.66699 -7.66699 11.167 -11 16.5c-12.667 20.667 -22.667 42 -30 64s-11 47.667 -11 77
c0 18 1.33301 36.333 4 55s6.66699 37.334 12 56.001l6 19.5l6 18.5h106c-6.66699 -14.667 -12.667 -30.5 -18 -47.5s-9.33301 -34.167 -12 -51.5c-2 -8.66699 -3.33301 -17.167 -4 -25.5s-1 -16.833 -1 -25.5c0 -6.66699 0.333008 -13.5 1 -20.5s1.66699 -13.833 3 -20.5
c12.667 11.333 24.334 23.333 35.001 36s20.334 26 29.001 40c-3.33301 6 -6 12.333 -8 19s-3 13.334 -3 20.001c0 4 0.333008 8 1 12s1.66699 8 3 12c5.33301 16.667 15.5 30.834 30.5 42.501s31.167 19.5 48.5 23.5c3.33301 0.666992 6.83301 1.16699 10.5 1.5
s7.16699 0.5 10.5 0.5h68l-10.5 -32.5c-3.66699 -11 -7.16699 -22.167 -10.5 -33.5h70v0z" />
    <glyph glyph-name="w" unicode="w" horiz-adv-x="475" 
d="M541 276l-33.0068 -99.001h-84c-22.667 -38 -48.167 -70.667 -76.5 -98s-60.166 -53 -95.499 -77h-28c-1.33301 1.33301 -2.5 2.83301 -3.5 4.5s-2.16699 3.16699 -3.5 4.5l-20 30c-6.66699 10 -12.334 20.667 -17.001 32c-12.667 -13.333 -26 -25.666 -40 -36.999
l-44 -34h-29l-4.5 6.5l-4.5 6.5c-2 2 -3.83301 4.16699 -5.5 6.5l-4.5 6.5c-16.667 22 -28.334 46 -35.001 72s-10 52.333 -10 79v12.5c0 4.33301 0.333008 8.5 1 12.5c1.33301 20.667 4.33301 41.334 9 62.001s10.667 40.667 18 60h103l-8.5 -27
c-3 -9.33301 -5.5 -18.666 -7.5 -27.999c-4.66699 -18 -8.5 -35.333 -11.5 -52s-4.5 -30.667 -4.5 -42c0 -4.66699 0.166992 -9.16699 0.5 -13.5s0.833008 -8.5 1.5 -12.5c0 -2 0.166992 -4.16699 0.5 -6.5s0.833008 -4.5 1.5 -6.5c10.667 11.333 20.667 23.166 30 35.499
s18 24.833 26 37.5c2 19.333 5.33301 38.666 10 57.999s10.334 38.333 17.001 57h106c-5.33301 -12.667 -10.166 -26 -14.499 -40s-8.16602 -28 -11.499 -42c-2.66699 -12.667 -4.66699 -25 -6 -37s-2 -23.667 -2 -35c0 -6.66699 0.5 -13.167 1.5 -19.5
s1.83301 -12.166 2.5 -17.499c12 11.333 23.333 23.333 34 36s20.334 26 29.001 40c-2 3.33301 -3.66699 6.5 -5 9.5s-2.33301 6.16699 -3 9.5c-1.33301 3.33301 -2.16602 6.66602 -2.49902 9.99902s-0.5 6.33301 -0.5 9c0 15.333 4.33301 29.333 13 42
s19.334 23.334 32.001 32.001c16.667 10.667 33.834 16.667 51.501 18s35.834 1.66602 54.501 0.999023h10.5h10.5l-10.5 -32.5c-3.66699 -11 -7.16699 -22.167 -10.5 -33.5h73v0z" />
    <glyph glyph-name="x" unicode="x" horiz-adv-x="371" 
d="M409 326l-169.003 -197c0.666992 -2 1.33398 -3.83301 2.00098 -5.5s1.33398 -3.5 2.00098 -5.5s1.33398 -3.83301 2.00098 -5.5s1.33398 -3.5 2.00098 -5.5c1.33301 -2.66699 2.83301 -4.33398 4.5 -5.00098s3.83398 -1 6.50098 -1h110l-32 -99h-17.5h-21.5h-21.5h-17.5
c-18.667 0 -35.834 3.83301 -51.501 11.5s-28.834 18.834 -39.501 33.501l-38 -45h-130l127 147l-66 177h105l17.5 -45.5l16.5 -45.5l78 91h131v0z" />
    <glyph glyph-name="y" unicode="y" horiz-adv-x="325" 
d="M369 326c-2.66699 -6.66699 -5.66699 -13.5 -9 -20.5l-10 -20.5l-23.5 -52c-9 -19.333 -18.833 -38.666 -29.5 -57.999c-2.66699 -6 -5.66699 -11.833 -9 -17.5l-10 -16.5c0 -18 -0.333008 -36.167 -1 -54.5s-2 -36.833 -4 -55.5
c-8.66699 -72.667 -30.667 -140.834 -66 -204.501s-92 -105.5 -170 -125.5l-24 95c51.333 13.333 88.833 41.833 112.5 85.5s39.167 90.167 46.5 139.5c-10 -6 -20.167 -10.5 -30.5 -13.5s-21.166 -4.5 -32.499 -4.5c-32.667 0 -58.834 10.833 -78.501 32.5
s-29.5 47.167 -29.5 76.5c0 6.66699 0.666992 13.5 2 20.5s3 13.833 5 20.5l28.5 86.5c9.66699 29 18.834 57.833 27.501 86.5h104l-32.5 -102l-33.5 -102c0 -0.666992 -0.166992 -1.33398 -0.5 -2.00098s-0.5 -1.33398 -0.5 -2.00098
c0 -1.33301 -0.166992 -2.66602 -0.5 -3.99902s-0.5 -2.66602 -0.5 -3.99902c0 -2.66699 0.666992 -4.66699 2 -6s3.66602 -2 6.99902 -2c8 0 16.333 3.33301 25 10s17.667 15.667 27 27c10 13.333 19.833 28.5 29.5 45.5s18.834 34.5 27.501 52.5l23 46.5
c7.33301 15 13.666 28.833 18.999 41.5v0v1h109v0z" />
    <glyph glyph-name="z" unicode="z" horiz-adv-x="286" 
d="M279 223c0 -20 -4.83496 -39.0029 -14.502 -57.0029s-20.167 -35.333 -31.5 -52c-2.66699 -4 -5.5 -8 -8.5 -12s-5.83301 -8 -8.5 -12c24.667 -7.33301 42.167 -18.5 52.5 -33.5s15.5 -32.5 15.5 -52.5c0 -14 -2.5 -29.5 -7.5 -46.5s-11.833 -34.833 -20.5 -53.5
c-4.66699 -10 -10 -20 -16 -30s-12.333 -20 -19 -30l-25 -36.5c-8.66699 -12.333 -17.667 -24.166 -27 -35.499l-6.5 -8.5l-6.5 -8.5l-129 -1l25.5 31.5l27.5 34.5l18 23l18 24c10 13.333 19.333 26.833 28 40.5s16 26.834 22 39.501c2.66699 5.33301 4.66699 10.5 6 15.5
s2 9.5 2 13.5c0 8 -3.16699 14.333 -9.5 19s-17.5 7 -33.5 7h-93l52 77l26.5 40l27.5 40l13.5 19.5l13.5 19.5c0 0.666992 0.5 1.83398 1.5 3.50098s2.16699 3.5 3.5 5.5c0 0.666992 0.333008 1.5 1 2.5s1 1.83301 1 2.5c0.666992 2 1.33398 3.83301 2.00098 5.5
s1 3.16699 1 4.5s-0.333008 2.33301 -1 3s-1.66699 1 -3 1h-180l32 100h21h22h59h46c28.667 0 52.834 -10 72.501 -30s29.5 -44.333 29.5 -73v0z" />
    <glyph glyph-name="braceleft" unicode="{" horiz-adv-x="500" 
 />
    <glyph glyph-name="bar" unicode="|" horiz-adv-x="500" 
 />
    <glyph glyph-name="braceright" unicode="}" horiz-adv-x="500" 
 />
    <glyph glyph-name="asciitilde" unicode="~" horiz-adv-x="500" 
 />
    <glyph glyph-name="exclamdown" unicode="&#xa1;" horiz-adv-x="260" 
d="M15 -159l135 414h104l-135 -414h-104v0zM175 334l32 98h104l-31 -98h-105v0z" />
    <glyph glyph-name="cent" unicode="&#xa2;" horiz-adv-x="348" 
d="M432 447c-7.33301 -14.667 -16.998 -30.166 -28.998 -46.499s-25.667 -32.833 -41 -49.5c-2 -2.66699 -4.33301 -5.5 -7 -8.5s-5.33398 -5.83301 -8.00098 -8.5l-72 69c15.333 16 28.833 31.333 40.5 46s20.834 28.334 27.501 41.001c1.33301 2 2.16602 4 2.49902 6
s0.833008 3.66699 1.5 5c0.666992 0.666992 1.16699 1.33398 1.5 2.00098s0.5 1.33398 0.5 2.00098c-2 0.666992 -4 1 -6 1h-6c-4 0 -8.16699 -0.5 -12.5 -1.5s-8.5 -2.16699 -12.5 -3.5c-6.66699 -2.66699 -13.167 -5.83398 -19.5 -9.50098l-17.5 -10.5l-9 -7l-8 -6
l-23 -17.5c-8 -6.33301 -16.333 -13.5 -25 -21.5c-19.333 -18.667 -38 -39.667 -56 -63s-31.333 -47.333 -40 -72c-3.33301 -8.66699 -5.83301 -17.334 -7.5 -26.001s-2.5 -17 -2.5 -25c0 -10 1.66699 -18.333 5 -25s10.333 -10 21 -10h44h44h44h44l-32 -99h-22h-22h-23h-22
l-35 -107h-69l35 108c-34.667 3.33301 -61.834 17.666 -81.501 42.999s-29.5 55.333 -29.5 90v8.5c0 3 0.333008 6.16699 1 9.5c4 50 22.5 98.5 55.5 145.5s68.833 86.5 107.5 118.5l15.5 13c5 4 10.167 7.66699 15.5 11c10.667 7.33301 22.167 14.666 34.5 21.999
s24.833 13.666 37.5 18.999l19 57h69l-14 -42c10.667 0 21 -1.5 31 -4.5s19.667 -7.16699 29 -12.5c15.333 -9.33301 26.333 -20.666 33 -33.999s10 -27.333 10 -42c0 -10.667 -1.5 -21.5 -4.5 -32.5s-7.16699 -21.833 -12.5 -32.5v0z" />
    <glyph glyph-name="sterling" unicode="&#xa3;" horiz-adv-x="465" 
d="M487 488l-82 -54.9961c-4 6 -9 10.167 -15 12.5s-12.667 3.5 -20 3.5c-3.33301 0 -6.66602 -0.333008 -9.99902 -1l-10 -2c-7.33301 -2 -14.5 -4.33301 -21.5 -7s-13.167 -5.66699 -18.5 -9c-2.66699 -1.33301 -5.16699 -2.83301 -7.5 -4.5l-6.5 -4.5
c-16.667 -12.667 -28.834 -25.834 -36.501 -39.501s-14.167 -28.834 -19.5 -45.501c-1.33301 -3.33301 -2.33301 -6.33301 -3 -9s-1.66699 -5.66699 -3 -9h80l-32 -100h-80l-23 -70c13.333 -0.666992 26.333 -2.33398 39 -5.00098s24.334 -6.33398 35.001 -11.001
c7.33301 -2.66699 15.666 -4.83398 24.999 -6.50098s19 -2.5 29 -2.5c4 0 8.16699 0.166992 12.5 0.5s8.83301 0.5 13.5 0.5c16.667 2 33.167 5.33301 49.5 10s30.5 10 42.5 16l43 -89c-18.667 -8.66699 -39.167 -16.167 -61.5 -22.5s-44.833 -10.5 -67.5 -12.5
c-5.33301 -0.666992 -10.666 -1.16699 -15.999 -1.5s-10.666 -0.5 -15.999 -0.5c-16.667 0 -32.667 1.33301 -48 4s-29.666 6.66699 -42.999 12c-8 3.33301 -16.833 5.66602 -26.5 6.99902s-19.5 2 -29.5 2h-10.5c-3.66699 0 -7.16699 -0.333008 -10.5 -1
c-18 -1.33301 -35.333 -4.33301 -52 -9s-31.334 -10 -44.001 -16l-43 89c8 4 16.5 7.83301 25.5 11.5s18.167 6.83398 27.5 9.50098c2.66699 0.666992 5.66699 1.33398 9 2.00098s6.33301 1.33398 9 2.00098l27 81h-55l32 100h55c2 5.33301 3.83301 10.833 5.5 16.5
s3.5 11.5 5.5 17.5c2 5.33301 3.83301 10.833 5.5 16.5s3.5 11.5 5.5 17.5c14.667 44 42.667 82 84 114s85.333 48 132 48c23.333 0 45.666 -4.83301 66.999 -14.5s38.666 -24.834 51.999 -45.501v0z" />
    <glyph glyph-name="yen" unicode="&#xa5;" horiz-adv-x="454" 
d="M597 593l-36.998 -46.001l-41 -51c-1.33301 -1.33301 -2.66602 -3 -3.99902 -5s-2.66602 -3.66699 -3.99902 -5l-52 -63c-16.667 -20 -31.667 -37 -45 -51h48l-21 -66h-90l-5.5 -5.5c-1.66699 -1.66699 -3.5 -3.16699 -5.5 -4.5l-5.5 -5.5l-5.5 -5.5h106l-22 -66h-150
l-70 -217h-104l69 217h-159l21 66h121c-0.666992 2 -1.16699 3.83301 -1.5 5.5s-0.5 3.5 -0.5 5.5c-0.666992 1.33301 -1.16699 2.83301 -1.5 4.5s-0.833008 3.5 -1.5 5.5h-110l22 66h81c-1.33301 18 -2 36.333 -2 55s0.333008 37.334 1 56.001
c0.666992 15.333 1.66699 31 3 47l4 47c0 2.66699 0.166992 5.33398 0.5 8.00098s0.5 5.33398 0.5 8.00098h100c0 -3.33301 -0.166992 -6.83301 -0.5 -10.5s-0.833008 -7.5 -1.5 -11.5l-4 -49.5c-1.33301 -17 -2.33301 -34.167 -3 -51.5
c-0.666992 -24 -0.833984 -47.833 -0.500977 -71.5s2.16602 -45.834 5.49902 -66.501c27.333 22.667 53.666 47.167 78.999 73.5s49.666 53.166 72.999 80.499l45 55l42 52h126v0z" />
    <glyph glyph-name="brokenbar" unicode="&#xa6;" horiz-adv-x="500" 
 />
    <glyph glyph-name="section" unicode="&#xa7;" horiz-adv-x="500" 
 />
    <glyph glyph-name="dieresis" unicode="&#xa8;" horiz-adv-x="287" 
d="M135 574l-57 -92l-65 41l57 91l65 -40v0zM274 574l-56 -92l-66 41l56 91l66 -40v0z" />
    <glyph glyph-name="copyright" unicode="&#xa9;" horiz-adv-x="500" 
 />
    <glyph glyph-name="ordfeminine" unicode="&#xaa;" horiz-adv-x="177" 
d="M264 430l-21.9971 -65.9971h-65c-6.66699 0 -13 1.16699 -19 3.5s-11.333 5.16602 -16 8.49902c-6.66699 -4 -13.667 -7.33301 -21 -10s-15 -4.66699 -23 -6c-2.66699 0 -5.5 -0.166992 -8.5 -0.5s-6.16699 -0.5 -9.5 -0.5c-14 0 -27 3 -39 9s-21.667 16.333 -29 31
c-2.66699 5.33301 -4.5 10.833 -5.5 16.5s-1.5 11.167 -1.5 16.5c0 11.333 2.16699 22.666 6.5 33.999s9.83301 21.666 16.5 30.999c23.333 31.333 52.666 53.166 87.999 65.499s71.666 18.5 108.999 18.5v-67c-14.667 0 -29 -0.833008 -43 -2.5s-27.333 -5.16699 -40 -10.5
c-12 -4 -23.167 -9.5 -33.5 -16.5s-19.166 -15.5 -26.499 -25.5c-0.666992 -0.666992 -1.5 -1.83398 -2.5 -3.50098s-1.83301 -3.16699 -2.5 -4.5s-1.33398 -2.83301 -2.00098 -4.5s-1.33398 -3.16699 -2.00098 -4.5c-0.666992 -2 -1.16699 -3.83301 -1.5 -5.5
s-0.5 -3.16699 -0.5 -4.5c0 -2 0.666992 -3.66699 2 -5s3.33301 -2 6 -2c17.333 0 30.333 5.83301 39 17.5s15.667 24.5 21 38.5c0.666992 2.66699 1.5 5.33398 2.5 8.00098s1.83301 5.33398 2.5 8.00098l63 -20l-15 -47h72v0z" />
    <glyph glyph-name="guillemotleft" unicode="&#xab;" horiz-adv-x="350" 
d="M219 190l-50 -50l-159 158l159 159l50 -51l-108 -108l108 -108v0zM349 190l-50 -50l-159 158l159 159l50 -51l-108 -108l108 -108v0z" />
    <glyph glyph-name="logicalnot" unicode="&#xac;" horiz-adv-x="500" 
 />
    <glyph glyph-name="sfthyphen" unicode="&#xad;" horiz-adv-x="500" 
 />
    <glyph glyph-name="registered" unicode="&#xae;" horiz-adv-x="500" 
 />
    <glyph glyph-name="overstore" unicode="&#xaf;" 
 />
    <glyph glyph-name="degree" unicode="&#xb0;" horiz-adv-x="500" 
 />
    <glyph glyph-name="plusminus" unicode="&#xb1;" horiz-adv-x="500" 
 />
    <glyph glyph-name="twosuperior" unicode="&#xb2;" horiz-adv-x="500" 
 />
    <glyph glyph-name="threesuperior" unicode="&#xb3;" horiz-adv-x="500" 
 />
    <glyph glyph-name="acute" unicode="&#xb4;" horiz-adv-x="341" 
d="M304 564l-219 -74l-25 73l219 74l25 -73v0z" />
    <glyph glyph-name="mu" unicode="&#xb5;" horiz-adv-x="500" 
 />
    <glyph glyph-name="paragraph" unicode="&#xb6;" horiz-adv-x="500" 
 />
    <glyph glyph-name="middot" unicode="&#xb7;" 
 />
    <glyph glyph-name="cedilla" unicode="&#xb8;" horiz-adv-x="287" 
d="M215 -143c-8 -16.667 -19.666 -30.001 -34.999 -40.001s-31.666 -15 -48.999 -15h-23h-32h-10.5h-9.5h-19.5h-14.5l30 73h66c11.333 0.666992 19.166 2.83398 23.499 6.50098s6.16602 7.83398 5.49902 12.501c0 1.33301 -0.166992 2.5 -0.5 3.5s-0.5 2.16699 -0.5 3.5
c-1.33301 3.33301 -3.33301 6.66602 -6 9.99902s-5.66699 6 -9 8l-26.5 16l-26.5 16c9.33301 16.667 19 33 29 49l30 49l65 -40l-19 -34c12.667 -9.33301 22.5 -21 29.5 -35s10.5 -28.667 10.5 -44c0 -6.66699 -0.666992 -13.167 -2 -19.5s-3.33301 -12.5 -6 -18.5v-1z" />
    <glyph glyph-name="onesuperior" unicode="&#xb9;" horiz-adv-x="500" 
 />
    <glyph glyph-name="ordmasculine" unicode="&#xba;" horiz-adv-x="149" 
d="M268 536l-22 -68h-32c-6.66699 -26 -20.667 -48.5 -42 -67.5s-45.666 -28.5 -72.999 -28.5h-7.5c-2.33301 0 -4.83301 0.333008 -7.5 1c-24.667 3.33301 -44.5 14.333 -59.5 33s-22.5 40 -22.5 64c0 31.333 11.667 59.5 35 84.5s51.333 37.5 84 37.5
c19.333 0 36.666 -5 51.999 -15s27 -23.667 35 -41h60v0zM142 469c-11.333 2.66699 -21.1689 8.33203 -29.502 16.999s-13.166 19.334 -14.499 32.001c-7.33301 -4.66699 -13.5 -10.667 -18.5 -18s-8.16699 -15 -9.5 -23v-2.5v-2.5c0 -8.66699 2.33301 -16.167 7 -22.5
s11.667 -9.5 21 -9.5s17.833 2.83301 25.5 8.5s13.834 12.5 18.501 20.5v0z" />
    <glyph glyph-name="guillemotright" unicode="&#xbb;" horiz-adv-x="347" 
d="M9 190l108 108l-108 108l50 51l159 -159l-159 -158l-50 50v0zM139 190l108 108l-108 108l50 51l159 -159l-159 -158l-50 50v0z" />
    <glyph glyph-name="onequarter" unicode="&#xbc;" horiz-adv-x="500" 
 />
    <glyph glyph-name="onehalf" unicode="&#xbd;" horiz-adv-x="500" 
 />
    <glyph glyph-name="threequarters" unicode="&#xbe;" horiz-adv-x="500" 
 />
    <glyph glyph-name="questiondown" unicode="&#xbf;" horiz-adv-x="400" 
d="M11 -123c0 33.333 9.16797 61.5029 27.501 84.5029s38.5 44.5 60.5 64.5c2 1.33301 4 3 6 5s4 3.66699 6 5l2.5 2.5l2.5 2.5c3.33301 2.66699 6.5 5.5 9.5 8.5s6.16699 5.83301 9.5 8.5c3.33301 3.33301 6.66602 6.5 9.99902 9.5s6.66602 5.83301 9.99902 8.5
c16.667 16 31.5 31.333 44.5 46s21.167 27 24.5 37l13 39h100c-1.33301 -4 -2.5 -8.16699 -3.5 -12.5s-2.16699 -8.83301 -3.5 -13.5c-2 -8.66699 -4.16699 -17.167 -6.5 -25.5s-4.16602 -14.5 -5.49902 -18.5c-3.33301 -10 -8.16602 -20.333 -14.499 -31
s-13.833 -21.334 -22.5 -32.001c-10 -12 -21 -24 -33 -36s-24 -23.333 -36 -34c-4.66699 -4.66699 -9.5 -9.16699 -14.5 -13.5s-9.83301 -8.83301 -14.5 -13.5l-41.5 -38.5c-12.333 -11.667 -19.5 -19.834 -21.5 -24.501c-2.66699 -4.66699 -4.66699 -8.83398 -6 -12.501
s-2.33301 -7.16699 -3 -10.5c2 -0.666992 4.5 -1 7.5 -1h11.5h66h66c13.333 0 24 3.83301 32 11.5s12 16.834 12 27.501c0 1.33301 -0.166992 2.83301 -0.5 4.5s-0.5 3.16699 -0.5 4.5c-1.33301 4.66699 -3.5 9.16699 -6.5 13.5s-6.83301 8.5 -11.5 12.5l63 76
c17.333 -14.667 30.833 -31.667 40.5 -51s14.5 -39.333 14.5 -60c0 -4 -0.166992 -7.83301 -0.5 -11.5s-0.833008 -7.5 -1.5 -11.5s-1.5 -7.83301 -2.5 -11.5s-2.16699 -7.5 -3.5 -11.5c-10.667 -28.667 -28.334 -51.167 -53.001 -67.5s-52 -24.5 -82 -24.5h-66h-66
c-30.667 0 -58.167 7.66699 -82.5 23s-36.5 39.666 -36.5 72.999v-1zM240.001 272.003l33 100h104l-32 -100h-105v0z" />
    <glyph glyph-name="Agrave" unicode="&#xc0;" horiz-adv-x="569" 
d="M603 490c2 -8 3.50195 -16.665 4.50195 -25.998s1.5 -19 1.5 -29c0 -25.333 -3.33301 -54.666 -10 -87.999s-16.667 -71 -30 -113l-76 -231h-104l47 143h-224c-0.666992 -12 -0.5 -24 0.5 -36s2.16699 -24.333 3.5 -37c1.33301 -9.33301 3.16602 -19 5.49902 -29l6.5 -29
l10 -34l10 -34c0.666992 -3.33301 1.5 -6.5 2.5 -9.5s1.83301 -5.83301 2.5 -8.5l-95 -29l-21.5 77.5c-7 26.333 -12.833 52.833 -17.5 79.5c-1.33301 7.33301 -2.5 14.666 -3.5 21.999s-1.83301 15 -2.5 23c-0.666992 7.33301 -1.16699 14.666 -1.5 21.999
s-0.5 14.666 -0.5 21.999h-114l32 100h97c12.667 46.667 30 89.834 52 129.501s46.333 74.5 73 104.5c20.667 22.667 42.167 42.167 64.5 58.5s45.166 29.166 68.499 38.499c13.333 5.33301 26.666 9.5 39.999 12.5s26.333 4.5 39 4.5c37.333 0 67.833 -8 91.5 -24
s39.834 -42.667 48.501 -80v0zM508.002 467.002c-2.66699 10 -7.83496 17.168 -15.502 21.501s-17.5 6.5 -29.5 6.5c-13.333 0 -27.833 -3.33301 -43.5 -10s-31.5 -16 -47.5 -28c-8 -6 -15.833 -12.667 -23.5 -20s-15.5 -15.333 -23.5 -24
c-22.667 -24.667 -42.167 -51 -58.5 -79s-29.166 -57.333 -38.499 -88h240l6 18c13.333 39.333 22.833 73.166 28.5 101.499s8.5 52.5 8.5 72.5c0 5.33301 -0.166992 10.5 -0.5 15.5s-1.16602 9.5 -2.49902 13.5v0zM553.001 681.003l-25 -73l-219 74l25 73l219 -74v0z" />
    <glyph glyph-name="Aacute" unicode="&#xc1;" horiz-adv-x="569" 
d="M603 490c2 -8 3.50195 -16.665 4.50195 -25.998s1.5 -19 1.5 -29c0 -25.333 -3.33301 -54.666 -10 -87.999s-16.667 -71 -30 -113l-76 -231h-104l47 143h-224c-0.666992 -12 -0.5 -24 0.5 -36s2.16699 -24.333 3.5 -37c1.33301 -9.33301 3.16602 -19 5.49902 -29l6.5 -29
l10 -34l10 -34c0.666992 -3.33301 1.5 -6.5 2.5 -9.5s1.83301 -5.83301 2.5 -8.5l-95 -29l-21.5 77.5c-7 26.333 -12.833 52.833 -17.5 79.5c-1.33301 7.33301 -2.5 14.666 -3.5 21.999s-1.83301 15 -2.5 23c-0.666992 7.33301 -1.16699 14.666 -1.5 21.999
s-0.5 14.666 -0.5 21.999h-114l32 100h97c12.667 46.667 30 89.834 52 129.501s46.333 74.5 73 104.5c20.667 22.667 42.167 42.167 64.5 58.5s45.166 29.166 68.499 38.499c13.333 5.33301 26.666 9.5 39.999 12.5s26.333 4.5 39 4.5c37.333 0 67.833 -8 91.5 -24
s39.834 -42.667 48.501 -80v0zM508.002 467.002c-2.66699 10 -7.83496 17.168 -15.502 21.501s-17.5 6.5 -29.5 6.5c-13.333 0 -27.833 -3.33301 -43.5 -10s-31.5 -16 -47.5 -28c-8 -6 -15.833 -12.667 -23.5 -20s-15.5 -15.333 -23.5 -24
c-22.667 -24.667 -42.167 -51 -58.5 -79s-29.166 -57.333 -38.499 -88h240l6 18c13.333 39.333 22.833 73.166 28.5 101.499s8.5 52.5 8.5 72.5c0 5.33301 -0.166992 10.5 -0.5 15.5s-1.16602 9.5 -2.49902 13.5v0zM694.001 682.003l-219 -74l-25 73l219 74l25 -73v0z" />
    <glyph glyph-name="Acircumflex" unicode="&#xc2;" horiz-adv-x="569" 
d="M603 490c2 -8 3.50195 -16.665 4.50195 -25.998s1.5 -19 1.5 -29c0 -25.333 -3.33301 -54.666 -10 -87.999s-16.667 -71 -30 -113l-76 -231h-104l47 143h-224c-0.666992 -12 -0.5 -24 0.5 -36s2.16699 -24.333 3.5 -37c1.33301 -9.33301 3.16602 -19 5.49902 -29l6.5 -29
l10 -34l10 -34c0.666992 -3.33301 1.5 -6.5 2.5 -9.5s1.83301 -5.83301 2.5 -8.5l-95 -29l-21.5 77.5c-7 26.333 -12.833 52.833 -17.5 79.5c-1.33301 7.33301 -2.5 14.666 -3.5 21.999s-1.83301 15 -2.5 23c-0.666992 7.33301 -1.16699 14.666 -1.5 21.999
s-0.5 14.666 -0.5 21.999h-114l32 100h97c12.667 46.667 30 89.834 52 129.501s46.333 74.5 73 104.5c20.667 22.667 42.167 42.167 64.5 58.5s45.166 29.166 68.499 38.499c13.333 5.33301 26.666 9.5 39.999 12.5s26.333 4.5 39 4.5c37.333 0 67.833 -8 91.5 -24
s39.834 -42.667 48.501 -80v0zM508.002 467.002c-2.66699 10 -7.83496 17.168 -15.502 21.501s-17.5 6.5 -29.5 6.5c-13.333 0 -27.833 -3.33301 -43.5 -10s-31.5 -16 -47.5 -28c-8 -6 -15.833 -12.667 -23.5 -20s-15.5 -15.333 -23.5 -24
c-22.667 -24.667 -42.167 -51 -58.5 -79s-29.166 -57.333 -38.499 -88h240l6 18c13.333 39.333 22.833 73.166 28.5 101.499s8.5 52.5 8.5 72.5c0 5.33301 -0.166992 10.5 -0.5 15.5s-1.16602 9.5 -2.49902 13.5v0zM624.001 658.003l-38 -67l-114 64l-115 -64l-38 67l153 85
l152 -85v0z" />
    <glyph glyph-name="Atilde" unicode="&#xc3;" horiz-adv-x="569" 
d="M603 490c2 -8 3.50195 -16.665 4.50195 -25.998s1.5 -19 1.5 -29c0 -25.333 -3.33301 -54.666 -10 -87.999s-16.667 -71 -30 -113l-76 -231h-104l47 143h-224c-0.666992 -12 -0.5 -24 0.5 -36s2.16699 -24.333 3.5 -37c1.33301 -9.33301 3.16602 -19 5.49902 -29l6.5 -29
l10 -34l10 -34c0.666992 -3.33301 1.5 -6.5 2.5 -9.5s1.83301 -5.83301 2.5 -8.5l-95 -29l-21.5 77.5c-7 26.333 -12.833 52.833 -17.5 79.5c-1.33301 7.33301 -2.5 14.666 -3.5 21.999s-1.83301 15 -2.5 23c-0.666992 7.33301 -1.16699 14.666 -1.5 21.999
s-0.5 14.666 -0.5 21.999h-114l32 100h97c12.667 46.667 30 89.834 52 129.501s46.333 74.5 73 104.5c20.667 22.667 42.167 42.167 64.5 58.5s45.166 29.166 68.499 38.499c13.333 5.33301 26.666 9.5 39.999 12.5s26.333 4.5 39 4.5c37.333 0 67.833 -8 91.5 -24
s39.834 -42.667 48.501 -80v0zM508.002 467.002c-2.66699 10 -7.83496 17.168 -15.502 21.501s-17.5 6.5 -29.5 6.5c-13.333 0 -27.833 -3.33301 -43.5 -10s-31.5 -16 -47.5 -28c-8 -6 -15.833 -12.667 -23.5 -20s-15.5 -15.333 -23.5 -24
c-22.667 -24.667 -42.167 -51 -58.5 -79s-29.166 -57.333 -38.499 -88h240l6 18c13.333 39.333 22.833 73.166 28.5 101.499s8.5 52.5 8.5 72.5c0 5.33301 -0.166992 10.5 -0.5 15.5s-1.16602 9.5 -2.49902 13.5v0zM620.001 679.003c-12 -20.667 -28 -36.5 -48 -47.5
s-41.333 -16.5 -64 -16.5c-10.667 0 -21.167 1.33301 -31.5 4s-20.166 6.66699 -29.499 12c-4 2 -8 3.5 -12 4.5s-8 1.5 -12 1.5c-8.66699 0 -17 -2.16699 -25 -6.5s-14.667 -10.5 -20 -18.5l-67 38c12 20.667 28 36.5 48 47.5s41.333 16.5 64 16.5
c10.667 0 21.167 -1.33301 31.5 -4s20.166 -6.66699 29.499 -12c4 -2 8 -3.5 12 -4.5s8 -1.5 12 -1.5c9.33301 0 18 2.16699 26 6.5s14.333 10.833 19 19.5l67 -39v0z" />
    <glyph glyph-name="Adieresis" unicode="&#xc4;" horiz-adv-x="569" 
d="M603 490c2 -8 3.50195 -16.665 4.50195 -25.998s1.5 -19 1.5 -29c0 -25.333 -3.33301 -54.666 -10 -87.999s-16.667 -71 -30 -113l-76 -231h-104l47 143h-224c-0.666992 -12 -0.5 -24 0.5 -36s2.16699 -24.333 3.5 -37c1.33301 -9.33301 3.16602 -19 5.49902 -29l6.5 -29
l10 -34l10 -34c0.666992 -3.33301 1.5 -6.5 2.5 -9.5s1.83301 -5.83301 2.5 -8.5l-95 -29l-21.5 77.5c-7 26.333 -12.833 52.833 -17.5 79.5c-1.33301 7.33301 -2.5 14.666 -3.5 21.999s-1.83301 15 -2.5 23c-0.666992 7.33301 -1.16699 14.666 -1.5 21.999
s-0.5 14.666 -0.5 21.999h-114l32 100h97c12.667 46.667 30 89.834 52 129.501s46.333 74.5 73 104.5c20.667 22.667 42.167 42.167 64.5 58.5s45.166 29.166 68.499 38.499c13.333 5.33301 26.666 9.5 39.999 12.5s26.333 4.5 39 4.5c37.333 0 67.833 -8 91.5 -24
s39.834 -42.667 48.501 -80v0zM508.002 467.002c-2.66699 10 -7.83496 17.168 -15.502 21.501s-17.5 6.5 -29.5 6.5c-13.333 0 -27.833 -3.33301 -43.5 -10s-31.5 -16 -47.5 -28c-8 -6 -15.833 -12.667 -23.5 -20s-15.5 -15.333 -23.5 -24
c-22.667 -24.667 -42.167 -51 -58.5 -79s-29.166 -57.333 -38.499 -88h240l6 18c13.333 39.333 22.833 73.166 28.5 101.499s8.5 52.5 8.5 72.5c0 5.33301 -0.166992 10.5 -0.5 15.5s-1.16602 9.5 -2.49902 13.5v0zM471.001 700.003l-57 -92l-65 41l57 91l65 -40v0z
M610.001 700.003l-56 -92l-66 41l56 91l66 -40v0z" />
    <glyph glyph-name="Aring" unicode="&#xc5;" horiz-adv-x="569" 
d="M603 490c2 -8 3.50195 -16.665 4.50195 -25.998s1.5 -19 1.5 -29c0 -25.333 -3.33301 -54.666 -10 -87.999s-16.667 -71 -30 -113l-76 -231h-104l47 143h-224c-0.666992 -12 -0.5 -24 0.5 -36s2.16699 -24.333 3.5 -37c1.33301 -9.33301 3.16602 -19 5.49902 -29l6.5 -29
l10 -34l10 -34c0.666992 -3.33301 1.5 -6.5 2.5 -9.5s1.83301 -5.83301 2.5 -8.5l-95 -29l-21.5 77.5c-7 26.333 -12.833 52.833 -17.5 79.5c-1.33301 7.33301 -2.5 14.666 -3.5 21.999s-1.83301 15 -2.5 23c-0.666992 7.33301 -1.16699 14.666 -1.5 21.999
s-0.5 14.666 -0.5 21.999h-114l32 100h97c12.667 46.667 30 89.834 52 129.501s46.333 74.5 73 104.5c20.667 22.667 42.167 42.167 64.5 58.5s45.166 29.166 68.499 38.499c13.333 5.33301 26.666 9.5 39.999 12.5s26.333 4.5 39 4.5c37.333 0 67.833 -8 91.5 -24
s39.834 -42.667 48.501 -80v0zM508.002 467.002c-2.66699 10 -7.83496 17.168 -15.502 21.501s-17.5 6.5 -29.5 6.5c-13.333 0 -27.833 -3.33301 -43.5 -10s-31.5 -16 -47.5 -28c-8 -6 -15.833 -12.667 -23.5 -20s-15.5 -15.333 -23.5 -24
c-22.667 -24.667 -42.167 -51 -58.5 -79s-29.166 -57.333 -38.499 -88h240l6 18c13.333 39.333 22.833 73.166 28.5 101.499s8.5 52.5 8.5 72.5c0 5.33301 -0.166992 10.5 -0.5 15.5s-1.16602 9.5 -2.49902 13.5v0zM552.001 678.003
c0 -9.33301 -1.83008 -18.168 -5.49707 -26.501s-8.83398 -15.833 -15.501 -22.5c-6 -6.66699 -13.333 -11.667 -22 -15s-17.667 -5 -27 -5c-18.667 0 -35 6.83301 -49 20.5s-21 29.834 -21 48.501c0 10 1.83301 19.167 5.5 27.5s8.5 15.5 14.5 21.5v1
c7.33301 6.66699 15.166 11.667 23.499 15s17.166 5 26.499 5c19.333 0 35.833 -6.83301 49.5 -20.5s20.5 -30.167 20.5 -49.5v0zM500.004 678.001c0 5.33301 -1.66895 9.83301 -5.00195 13.5s-7.66602 5.5 -12.999 5.5c-2.66699 0 -5.16699 -0.5 -7.5 -1.5
s-4.16602 -2.16699 -5.49902 -3.5c-2 -1.33301 -3.33301 -3.16602 -4 -5.49902s-1 -5.16602 -1 -8.49902c0 -4.66699 1.83301 -8.83398 5.5 -12.501s7.83398 -5.5 12.501 -5.5c2.66699 0 5.16699 0.5 7.5 1.5s4.16602 2.16699 5.49902 3.5s2.5 3.16602 3.5 5.49902
s1.5 4.83301 1.5 7.5v0z" />
    <glyph glyph-name="AE" unicode="&#xc6;" horiz-adv-x="886" 
d="M950 539c2 -6 3.49316 -11.834 4.49316 -17.501s1.5 -11.167 1.5 -16.5c0 -29.333 -11.167 -56.666 -33.5 -81.999s-46.833 -48.333 -73.5 -69c-14 -10.667 -27.833 -20.667 -41.5 -30l-35.5 -25l-60 78c2 1.33301 10.167 7.16602 24.5 17.499l47.5 35.5l9.5 7.5
c3 2.33301 5.83301 4.83301 8.5 7.5c14.667 12 27.5 23.5 38.5 34.5s16.167 19.5 15.5 25.5c0 1.33301 -0.166992 2.33301 -0.5 3s-1.16602 1.33398 -2.49902 2.00098c-5.33301 3.33301 -11.166 5.83301 -17.499 7.5s-13.166 2.5 -20.499 2.5
c-4.66699 0 -9.5 -0.333008 -14.5 -1s-10.167 -1.66699 -15.5 -3c-10 -2 -20 -4.66699 -30 -8s-19.333 -6.66602 -28 -9.99902l-11.5 -6c-3.66699 -2 -7.16699 -3.66699 -10.5 -5c-4 -2 -10.333 -5.66699 -19 -11s-17.667 -11.666 -27 -18.999
c-7.33301 -4.66699 -14.166 -10 -20.499 -16s-11.833 -12 -16.5 -18c-4.66699 -5.33301 -8.16699 -10.5 -10.5 -15.5s-3.5 -9.83301 -3.5 -14.5c0 -0.666992 0.166992 -1.33398 0.5 -2.00098s0.5 -1.33398 0.5 -2.00098s0.166992 -1.5 0.5 -2.5s0.833008 -2.16699 1.5 -3.5
l-1 2l73 -130l-34 -25.5l-34 -25.5l-34 -25l-34 -26l-34 -25l-34 -26h409l-32 -100h-188.5h-189.5c-35.333 0 -62.666 8.66699 -81.999 26s-29 37.666 -29 60.999c0 9.33301 1.5 18.833 4.5 28.5s7.83301 19.167 14.5 28.5h-172c0 -7.33301 0.166992 -14.666 0.5 -21.999
s0.833008 -15 1.5 -23c2.66699 -25.333 7.16699 -50.5 13.5 -75.5l19.5 -73.5c1.33301 -4 2.5 -7.83301 3.5 -11.5s2.16699 -7.5 3.5 -11.5l-95 -29c-0.666992 2 -1.16699 3.83301 -1.5 5.5s-0.833008 3.16699 -1.5 4.5c-10.667 38.667 -20.667 77.667 -30 117
s-13.666 79 -12.999 119h-114l32 99h96c12.667 47.333 30 90.833 52 130.5s46.333 74.167 73 103.5c19.333 21.333 39.5 39.833 60.5 55.5s42.167 28.5 63.5 38.5c15.333 6.66699 30.333 11.667 45 15s29 5 43 5c28.667 0 53.5 -4.83301 74.5 -14.5
s37.833 -25.167 50.5 -46.5c20.667 16.667 43.334 31.334 68.001 44.001s50 22.667 76 30c13.333 3.33301 26.666 6 39.999 8s26.333 3 39 3c17.333 -0.666992 33.833 -2.83398 49.5 -6.50098s29.834 -9.5 42.501 -17.5c10 -6.66699 18.833 -14.5 26.5 -23.5
s13.5 -19.167 17.5 -30.5v0zM509.993 466.999c-2.66699 9.33301 -7.66895 16.166 -15.002 20.499s-17 6.5 -29 6.5c-13.333 0 -27.833 -3.16699 -43.5 -9.5s-31.5 -15.5 -47.5 -27.5c-8 -6 -15.833 -12.667 -23.5 -20s-15.5 -15.333 -23.5 -24
c-20 -22 -38.167 -47.167 -54.5 -75.5s-30.166 -59.166 -41.499 -92.499h240c2.66699 8 5.33398 16.667 8.00098 26s5.66699 19 9 29s6.33301 20.5 9 31.5l8 33.5c2.66699 11.333 4.66699 22.666 6 33.999s2 22.333 2 33c0 6.66699 -0.333008 12.834 -1 18.501
s-1.66699 11.167 -3 16.5v0z" />
    <glyph glyph-name="Ccedilla" unicode="&#xc7;" horiz-adv-x="455" 
d="M287 -134c-8 -16.667 -19.666 -30.001 -34.999 -40.001s-31.666 -15 -48.999 -15h-23h-32h-10.5h-9.5h-19.5h-14.5l30 73h66c11.333 0.666992 19.166 2.83398 23.499 6.50098s6.16602 7.83398 5.49902 12.501c0 1.33301 -0.166992 2.5 -0.5 3.5s-0.5 2.16699 -0.5 3.5
c-1.33301 3.33301 -3.33301 6.66602 -6 9.99902s-5.66699 6 -9 8l-26.5 16l-26.5 16c9.33301 16.667 19 33 29 49l30 49l65 -40l-19 -34c12.667 -9.33301 22.5 -21 29.5 -35s10.5 -28.667 10.5 -44c0 -6.66699 -0.666992 -13.167 -2 -19.5s-3.33301 -12.5 -6 -18.5v-1z
M511.001 592.999c14.667 -10.667 24.9922 -22.668 30.9922 -36.001s9 -27.666 9 -42.999c0 -4.66699 -0.333008 -9.66699 -1 -15s-1.66699 -10.333 -3 -15c-3.33301 -15.333 -8.66602 -30.5 -15.999 -45.5s-15 -28.833 -23 -41.5c-10 -15.333 -21.667 -31.166 -35 -47.499
s-27.666 -32.5 -42.999 -48.5c-22 -24 -46 -47.5 -72 -70.5s-52.333 -44.833 -79 -65.5l-2.5 -2.5c-1 -1 -2.16699 -1.83301 -3.5 -2.5l-60 78c22 16.667 43.5 34.334 64.5 53.001s40.833 37.334 59.5 56.001c18 18 34.333 35.667 49 53s27.334 34 38.001 50
c1.33301 1.33301 3.33301 4.16602 6 8.49902s5.33398 9.5 8.00098 15.5l2 4l2 4c3.33301 6 6 11.833 8 17.5s3 9.83398 3 12.501v0.5v0.5l-1 1v0c-4 3.33301 -8.16699 5.5 -12.5 6.5s-9.16602 1.5 -14.499 1.5c-6.66699 0 -13.5 -0.833008 -20.5 -2.5
s-13.833 -3.83398 -20.5 -6.50098l-21.5 -10c-7 -3.33301 -13.833 -7 -20.5 -11l-20 -13l-15 -10c-9.33301 -6.66699 -19.166 -14.167 -29.499 -22.5s-20.5 -17.5 -30.5 -27.5c-28.667 -26.667 -55.667 -57 -81 -91s-43.666 -69 -54.999 -105
c-3.33301 -10 -5.83301 -20 -7.5 -30s-2.5 -20 -2.5 -30c0 -17.333 3.5 -31.833 10.5 -43.5s19.833 -17.5 38.5 -17.5h64h73h73h64l-32 -99h-55.5h-64.5h-66h-56c-46.667 0 -83.167 15.5 -109.5 46.5s-39.5 68.833 -39.5 113.5c0 4 0.166992 8 0.5 12s0.5 8 0.5 12
c6 61.333 29.5 121.166 70.5 179.499s85.833 107.833 134.5 148.5l21.5 17.5c7 5.66699 14.167 11.167 21.5 16.5c2 1.33301 3.83301 2.66602 5.5 3.99902s3.5 2.33301 5.5 3c18.667 12.667 39.167 24.667 61.5 36s45.166 19 68.499 23c6 1.33301 12.333 2.33301 19 3
s13 1 19 1c14.667 0 28.834 -2 42.501 -6s26.834 -10.667 39.501 -20v0z" />
    <glyph glyph-name="Egrave" unicode="&#xc8;" horiz-adv-x="549" 
d="M583 540c2 -6 3.49414 -11.833 4.49414 -17.5s1.5 -11.167 1.5 -16.5c0 -29.333 -11.167 -56.833 -33.5 -82.5s-46.833 -48.834 -73.5 -69.501l-41 -30l-35 -25l-61 79l24.5 17c14.333 10 29.833 21.667 46.5 35l9.5 7.5l9.5 7.5c14.667 12 27.167 23.333 37.5 34
s15.5 19 15.5 25c0 1.33301 -0.166992 2.5 -0.5 3.5s-1.16602 1.83301 -2.49902 2.5c-5.33301 3.33301 -11.166 5.66602 -17.499 6.99902s-13.166 2 -20.499 2c-5.33301 0 -10.666 -0.333008 -15.999 -1s-11 -1.66699 -17 -3c-10 -2 -20 -4.66699 -30 -8
s-19 -6.66602 -27 -9.99902c-3.33301 -1.33301 -6.66602 -2.83301 -9.99902 -4.5l-9 -4.5c-4 -2 -10.333 -5.83301 -19 -11.5l-27 -18.5c-6.66699 -5.33301 -13.167 -10.833 -19.5 -16.5s-11.833 -11.5 -16.5 -17.5c-4 -5.33301 -7.33301 -10.666 -10 -15.999
s-4 -10.333 -4 -15c0 -2 0.166992 -3.83301 0.5 -5.5s0.833008 -3.16699 1.5 -4.5l-1 2l74 -130l-34.5 -25.5l-34.5 -25.5l-68 -50.5l-68 -51.5h417l-32 -99h-192.5h-193.5c-35.333 0 -62.666 8.66699 -81.999 26s-29 37.666 -29 60.999c0 4.66699 0.5 9.33398 1.5 14.001
s2.16699 9.33398 3.5 14.001c4 11.333 10 22.5 18 33.5s18.333 21.167 31 30.5l33.5 24.5l33.5 25.5l33.5 25.5l33.5 24.5c-0.666992 2 -1.66699 3.83301 -3 5.5s-2.33301 3.16699 -3 4.5s-1.5 2.66602 -2.5 3.99902s-1.83301 2.66602 -2.5 3.99902
c-8.66699 14 -16.5 28.333 -23.5 43s-10.833 30.667 -11.5 48c0 48.667 23.5 92.834 70.5 132.501s98.833 66.834 155.5 81.501c13.333 4 26.666 6.83301 39.999 8.5s26.333 2.5 39 2.5c17.333 0 33.833 -1.83301 49.5 -5.5s29.834 -9.5 42.501 -17.5
c10.667 -6.66699 19.667 -14.334 27 -23.001s13 -18.667 17 -30v0zM502.994 703l-25 -73l-219 74l25 73l219 -74v0z" />
    <glyph glyph-name="Eacute" unicode="&#xc9;" horiz-adv-x="549" 
d="M583 540c2 -6 3.49414 -11.833 4.49414 -17.5s1.5 -11.167 1.5 -16.5c0 -29.333 -11.167 -56.833 -33.5 -82.5s-46.833 -48.834 -73.5 -69.501l-41 -30l-35 -25l-61 79l24.5 17c14.333 10 29.833 21.667 46.5 35l9.5 7.5l9.5 7.5c14.667 12 27.167 23.333 37.5 34
s15.5 19 15.5 25c0 1.33301 -0.166992 2.5 -0.5 3.5s-1.16602 1.83301 -2.49902 2.5c-5.33301 3.33301 -11.166 5.66602 -17.499 6.99902s-13.166 2 -20.499 2c-5.33301 0 -10.666 -0.333008 -15.999 -1s-11 -1.66699 -17 -3c-10 -2 -20 -4.66699 -30 -8
s-19 -6.66602 -27 -9.99902c-3.33301 -1.33301 -6.66602 -2.83301 -9.99902 -4.5l-9 -4.5c-4 -2 -10.333 -5.83301 -19 -11.5l-27 -18.5c-6.66699 -5.33301 -13.167 -10.833 -19.5 -16.5s-11.833 -11.5 -16.5 -17.5c-4 -5.33301 -7.33301 -10.666 -10 -15.999
s-4 -10.333 -4 -15c0 -2 0.166992 -3.83301 0.5 -5.5s0.833008 -3.16699 1.5 -4.5l-1 2l74 -130l-34.5 -25.5l-34.5 -25.5l-68 -50.5l-68 -51.5h417l-32 -99h-192.5h-193.5c-35.333 0 -62.666 8.66699 -81.999 26s-29 37.666 -29 60.999c0 4.66699 0.5 9.33398 1.5 14.001
s2.16699 9.33398 3.5 14.001c4 11.333 10 22.5 18 33.5s18.333 21.167 31 30.5l33.5 24.5l33.5 25.5l33.5 25.5l33.5 24.5c-0.666992 2 -1.66699 3.83301 -3 5.5s-2.33301 3.16699 -3 4.5s-1.5 2.66602 -2.5 3.99902s-1.83301 2.66602 -2.5 3.99902
c-8.66699 14 -16.5 28.333 -23.5 43s-10.833 30.667 -11.5 48c0 48.667 23.5 92.834 70.5 132.501s98.833 66.834 155.5 81.501c13.333 4 26.666 6.83301 39.999 8.5s26.333 2.5 39 2.5c17.333 0 33.833 -1.83301 49.5 -5.5s29.834 -9.5 42.501 -17.5
c10.667 -6.66699 19.667 -14.334 27 -23.001s13 -18.667 17 -30v0zM653.994 706l-219 -74l-25 73l219 74l25 -73v0z" />
    <glyph glyph-name="Ecircumflex" unicode="&#xca;" horiz-adv-x="549" 
d="M583 540c2 -6 3.49414 -11.833 4.49414 -17.5s1.5 -11.167 1.5 -16.5c0 -29.333 -11.167 -56.833 -33.5 -82.5s-46.833 -48.834 -73.5 -69.501l-41 -30l-35 -25l-61 79l24.5 17c14.333 10 29.833 21.667 46.5 35l9.5 7.5l9.5 7.5c14.667 12 27.167 23.333 37.5 34
s15.5 19 15.5 25c0 1.33301 -0.166992 2.5 -0.5 3.5s-1.16602 1.83301 -2.49902 2.5c-5.33301 3.33301 -11.166 5.66602 -17.499 6.99902s-13.166 2 -20.499 2c-5.33301 0 -10.666 -0.333008 -15.999 -1s-11 -1.66699 -17 -3c-10 -2 -20 -4.66699 -30 -8
s-19 -6.66602 -27 -9.99902c-3.33301 -1.33301 -6.66602 -2.83301 -9.99902 -4.5l-9 -4.5c-4 -2 -10.333 -5.83301 -19 -11.5l-27 -18.5c-6.66699 -5.33301 -13.167 -10.833 -19.5 -16.5s-11.833 -11.5 -16.5 -17.5c-4 -5.33301 -7.33301 -10.666 -10 -15.999
s-4 -10.333 -4 -15c0 -2 0.166992 -3.83301 0.5 -5.5s0.833008 -3.16699 1.5 -4.5l-1 2l74 -130l-34.5 -25.5l-34.5 -25.5l-68 -50.5l-68 -51.5h417l-32 -99h-192.5h-193.5c-35.333 0 -62.666 8.66699 -81.999 26s-29 37.666 -29 60.999c0 4.66699 0.5 9.33398 1.5 14.001
s2.16699 9.33398 3.5 14.001c4 11.333 10 22.5 18 33.5s18.333 21.167 31 30.5l33.5 24.5l33.5 25.5l33.5 25.5l33.5 24.5c-0.666992 2 -1.66699 3.83301 -3 5.5s-2.33301 3.16699 -3 4.5s-1.5 2.66602 -2.5 3.99902s-1.83301 2.66602 -2.5 3.99902
c-8.66699 14 -16.5 28.333 -23.5 43s-10.833 30.667 -11.5 48c0 48.667 23.5 92.834 70.5 132.501s98.833 66.834 155.5 81.501c13.333 4 26.666 6.83301 39.999 8.5s26.333 2.5 39 2.5c17.333 0 33.833 -1.83301 49.5 -5.5s29.834 -9.5 42.501 -17.5
c10.667 -6.66699 19.667 -14.334 27 -23.001s13 -18.667 17 -30v0zM595.994 678l-38 -67l-114 64l-115 -64l-38 67l153 85l152 -85v0z" />
    <glyph glyph-name="Edieresis" unicode="&#xcb;" horiz-adv-x="549" 
d="M583 540c2 -6 3.49414 -11.833 4.49414 -17.5s1.5 -11.167 1.5 -16.5c0 -29.333 -11.167 -56.833 -33.5 -82.5s-46.833 -48.834 -73.5 -69.501l-41 -30l-35 -25l-61 79l24.5 17c14.333 10 29.833 21.667 46.5 35l9.5 7.5l9.5 7.5c14.667 12 27.167 23.333 37.5 34
s15.5 19 15.5 25c0 1.33301 -0.166992 2.5 -0.5 3.5s-1.16602 1.83301 -2.49902 2.5c-5.33301 3.33301 -11.166 5.66602 -17.499 6.99902s-13.166 2 -20.499 2c-5.33301 0 -10.666 -0.333008 -15.999 -1s-11 -1.66699 -17 -3c-10 -2 -20 -4.66699 -30 -8
s-19 -6.66602 -27 -9.99902c-3.33301 -1.33301 -6.66602 -2.83301 -9.99902 -4.5l-9 -4.5c-4 -2 -10.333 -5.83301 -19 -11.5l-27 -18.5c-6.66699 -5.33301 -13.167 -10.833 -19.5 -16.5s-11.833 -11.5 -16.5 -17.5c-4 -5.33301 -7.33301 -10.666 -10 -15.999
s-4 -10.333 -4 -15c0 -2 0.166992 -3.83301 0.5 -5.5s0.833008 -3.16699 1.5 -4.5l-1 2l74 -130l-34.5 -25.5l-34.5 -25.5l-68 -50.5l-68 -51.5h417l-32 -99h-192.5h-193.5c-35.333 0 -62.666 8.66699 -81.999 26s-29 37.666 -29 60.999c0 4.66699 0.5 9.33398 1.5 14.001
s2.16699 9.33398 3.5 14.001c4 11.333 10 22.5 18 33.5s18.333 21.167 31 30.5l33.5 24.5l33.5 25.5l33.5 25.5l33.5 24.5c-0.666992 2 -1.66699 3.83301 -3 5.5s-2.33301 3.16699 -3 4.5s-1.5 2.66602 -2.5 3.99902s-1.83301 2.66602 -2.5 3.99902
c-8.66699 14 -16.5 28.333 -23.5 43s-10.833 30.667 -11.5 48c0 48.667 23.5 92.834 70.5 132.501s98.833 66.834 155.5 81.501c13.333 4 26.666 6.83301 39.999 8.5s26.333 2.5 39 2.5c17.333 0 33.833 -1.83301 49.5 -5.5s29.834 -9.5 42.501 -17.5
c10.667 -6.66699 19.667 -14.334 27 -23.001s13 -18.667 17 -30v0zM452.994 718l-57 -92l-65 41l57 91l65 -40v0zM591.994 718l-56 -92l-66 41l56 91l66 -40v0z" />
    <glyph glyph-name="Igrave" unicode="&#xcc;" horiz-adv-x="469" 
d="M536 470l-52.0039 -161.499l-52 -160.5c-12.667 -40 -37.667 -74.167 -75 -102.5s-77 -42.5 -119 -42.5h-237l32 99h51.5h51.5h51h51c2.66699 0 5.33398 0.166992 8.00098 0.5s5.33398 0.833008 8.00098 1.5c18 4 35.167 13.167 51.5 27.5s27.166 29.833 32.499 46.5
l26 80.5l26 80.5l26 80.5l26 80.5c0.666992 1.33301 1.16699 2.83301 1.5 4.5s0.5 2.83398 0.5 3.50098c-2.66699 1.33301 -5.16699 2 -7.5 2h-8.5c-5.33301 0 -11.166 -0.833008 -17.499 -2.5s-12.5 -3.5 -18.5 -5.5c-7.33301 -3.33301 -14.5 -6.83301 -21.5 -10.5
s-13.5 -7.5 -19.5 -11.5c-6 -3.33301 -11.333 -6.83301 -16 -10.5s-9 -6.83398 -13 -9.50098l-18.5 -13.5c-7 -5 -13.833 -10.5 -20.5 -16.5c-16 -13.333 -30.833 -28.666 -44.5 -45.999s-20.5 -35.666 -20.5 -54.999c0 -4.66699 0.5 -9.16699 1.5 -13.5
s2.5 -8.83301 4.5 -13.5c4 -9.33301 9 -18.333 15 -27s12.333 -17.334 19 -26.001c0 -0.666992 0.333008 -1.33398 1 -2.00098l2 -2c2 -3.33301 4.16699 -6.5 6.5 -9.5s4.5 -6.16699 6.5 -9.5l-84 -54c-3.33301 5.33301 -6.66602 10.333 -9.99902 15l-10 14
c-6.66699 9.33301 -13.167 19 -19.5 29s-12.166 20.667 -17.499 32c-4.66699 11.333 -8.16699 22.666 -10.5 33.999s-3.5 22.666 -3.5 33.999c0 26 5.83301 51.333 17.5 76s27.167 46.334 46.5 65.001c7.33301 7.33301 15.333 14.833 24 22.5l27 23.5
c21.333 17.333 44.333 33.833 69 49.5s49.667 27.167 75 34.5c9.33301 3.33301 18.5 5.66602 27.5 6.99902s17.833 2 26.5 2c12 0 23.667 -1.5 35 -4.5s22.333 -8.16699 33 -15.5c15.333 -10 26.333 -22.167 33 -36.5s10 -29.166 10 -44.499
c0 -6.66699 -0.666992 -13.167 -2 -19.5s-3 -12.833 -5 -19.5v0zM510.996 693.001l-25 -73l-219 74l25 73l219 -74v0z" />
    <glyph glyph-name="Iacute" unicode="&#xcd;" horiz-adv-x="469" 
d="M536 470l-52.0039 -161.499l-52 -160.5c-12.667 -40 -37.667 -74.167 -75 -102.5s-77 -42.5 -119 -42.5h-237l32 99h51.5h51.5h51h51c2.66699 0 5.33398 0.166992 8.00098 0.5s5.33398 0.833008 8.00098 1.5c18 4 35.167 13.167 51.5 27.5s27.166 29.833 32.499 46.5
l26 80.5l26 80.5l26 80.5l26 80.5c0.666992 1.33301 1.16699 2.83301 1.5 4.5s0.5 2.83398 0.5 3.50098c-2.66699 1.33301 -5.16699 2 -7.5 2h-8.5c-5.33301 0 -11.166 -0.833008 -17.499 -2.5s-12.5 -3.5 -18.5 -5.5c-7.33301 -3.33301 -14.5 -6.83301 -21.5 -10.5
s-13.5 -7.5 -19.5 -11.5c-6 -3.33301 -11.333 -6.83301 -16 -10.5s-9 -6.83398 -13 -9.50098l-18.5 -13.5c-7 -5 -13.833 -10.5 -20.5 -16.5c-16 -13.333 -30.833 -28.666 -44.5 -45.999s-20.5 -35.666 -20.5 -54.999c0 -4.66699 0.5 -9.16699 1.5 -13.5
s2.5 -8.83301 4.5 -13.5c4 -9.33301 9 -18.333 15 -27s12.333 -17.334 19 -26.001c0 -0.666992 0.333008 -1.33398 1 -2.00098l2 -2c2 -3.33301 4.16699 -6.5 6.5 -9.5s4.5 -6.16699 6.5 -9.5l-84 -54c-3.33301 5.33301 -6.66602 10.333 -9.99902 15l-10 14
c-6.66699 9.33301 -13.167 19 -19.5 29s-12.166 20.667 -17.499 32c-4.66699 11.333 -8.16699 22.666 -10.5 33.999s-3.5 22.666 -3.5 33.999c0 26 5.83301 51.333 17.5 76s27.167 46.334 46.5 65.001c7.33301 7.33301 15.333 14.833 24 22.5l27 23.5
c21.333 17.333 44.333 33.833 69 49.5s49.667 27.167 75 34.5c9.33301 3.33301 18.5 5.66602 27.5 6.99902s17.833 2 26.5 2c12 0 23.667 -1.5 35 -4.5s22.333 -8.16699 33 -15.5c15.333 -10 26.333 -22.167 33 -36.5s10 -29.166 10 -44.499
c0 -6.66699 -0.666992 -13.167 -2 -19.5s-3 -12.833 -5 -19.5v0zM655.996 700.001l-219 -74l-25 73l219 74l25 -73v0z" />
    <glyph glyph-name="Icircumflex" unicode="&#xce;" horiz-adv-x="469" 
d="M536 470l-52.0039 -161.499l-52 -160.5c-12.667 -40 -37.667 -74.167 -75 -102.5s-77 -42.5 -119 -42.5h-237l32 99h51.5h51.5h51h51c2.66699 0 5.33398 0.166992 8.00098 0.5s5.33398 0.833008 8.00098 1.5c18 4 35.167 13.167 51.5 27.5s27.166 29.833 32.499 46.5
l26 80.5l26 80.5l26 80.5l26 80.5c0.666992 1.33301 1.16699 2.83301 1.5 4.5s0.5 2.83398 0.5 3.50098c-2.66699 1.33301 -5.16699 2 -7.5 2h-8.5c-5.33301 0 -11.166 -0.833008 -17.499 -2.5s-12.5 -3.5 -18.5 -5.5c-7.33301 -3.33301 -14.5 -6.83301 -21.5 -10.5
s-13.5 -7.5 -19.5 -11.5c-6 -3.33301 -11.333 -6.83301 -16 -10.5s-9 -6.83398 -13 -9.50098l-18.5 -13.5c-7 -5 -13.833 -10.5 -20.5 -16.5c-16 -13.333 -30.833 -28.666 -44.5 -45.999s-20.5 -35.666 -20.5 -54.999c0 -4.66699 0.5 -9.16699 1.5 -13.5
s2.5 -8.83301 4.5 -13.5c4 -9.33301 9 -18.333 15 -27s12.333 -17.334 19 -26.001c0 -0.666992 0.333008 -1.33398 1 -2.00098l2 -2c2 -3.33301 4.16699 -6.5 6.5 -9.5s4.5 -6.16699 6.5 -9.5l-84 -54c-3.33301 5.33301 -6.66602 10.333 -9.99902 15l-10 14
c-6.66699 9.33301 -13.167 19 -19.5 29s-12.166 20.667 -17.499 32c-4.66699 11.333 -8.16699 22.666 -10.5 33.999s-3.5 22.666 -3.5 33.999c0 26 5.83301 51.333 17.5 76s27.167 46.334 46.5 65.001c7.33301 7.33301 15.333 14.833 24 22.5l27 23.5
c21.333 17.333 44.333 33.833 69 49.5s49.667 27.167 75 34.5c9.33301 3.33301 18.5 5.66602 27.5 6.99902s17.833 2 26.5 2c12 0 23.667 -1.5 35 -4.5s22.333 -8.16699 33 -15.5c15.333 -10 26.333 -22.167 33 -36.5s10 -29.166 10 -44.499
c0 -6.66699 -0.666992 -13.167 -2 -19.5s-3 -12.833 -5 -19.5v0zM577.996 662.001l-38 -67l-114 64l-115 -64l-38 67l153 85l152 -85v0z" />
    <glyph glyph-name="Idieresis" unicode="&#xcf;" horiz-adv-x="469" 
d="M536 470l-52.0039 -161.499l-52 -160.5c-12.667 -40 -37.667 -74.167 -75 -102.5s-77 -42.5 -119 -42.5h-237l32 99h51.5h51.5h51h51c2.66699 0 5.33398 0.166992 8.00098 0.5s5.33398 0.833008 8.00098 1.5c18 4 35.167 13.167 51.5 27.5s27.166 29.833 32.499 46.5
l26 80.5l26 80.5l26 80.5l26 80.5c0.666992 1.33301 1.16699 2.83301 1.5 4.5s0.5 2.83398 0.5 3.50098c-2.66699 1.33301 -5.16699 2 -7.5 2h-8.5c-5.33301 0 -11.166 -0.833008 -17.499 -2.5s-12.5 -3.5 -18.5 -5.5c-7.33301 -3.33301 -14.5 -6.83301 -21.5 -10.5
s-13.5 -7.5 -19.5 -11.5c-6 -3.33301 -11.333 -6.83301 -16 -10.5s-9 -6.83398 -13 -9.50098l-18.5 -13.5c-7 -5 -13.833 -10.5 -20.5 -16.5c-16 -13.333 -30.833 -28.666 -44.5 -45.999s-20.5 -35.666 -20.5 -54.999c0 -4.66699 0.5 -9.16699 1.5 -13.5
s2.5 -8.83301 4.5 -13.5c4 -9.33301 9 -18.333 15 -27s12.333 -17.334 19 -26.001c0 -0.666992 0.333008 -1.33398 1 -2.00098l2 -2c2 -3.33301 4.16699 -6.5 6.5 -9.5s4.5 -6.16699 6.5 -9.5l-84 -54c-3.33301 5.33301 -6.66602 10.333 -9.99902 15l-10 14
c-6.66699 9.33301 -13.167 19 -19.5 29s-12.166 20.667 -17.499 32c-4.66699 11.333 -8.16699 22.666 -10.5 33.999s-3.5 22.666 -3.5 33.999c0 26 5.83301 51.333 17.5 76s27.167 46.334 46.5 65.001c7.33301 7.33301 15.333 14.833 24 22.5l27 23.5
c21.333 17.333 44.333 33.833 69 49.5s49.667 27.167 75 34.5c9.33301 3.33301 18.5 5.66602 27.5 6.99902s17.833 2 26.5 2c12 0 23.667 -1.5 35 -4.5s22.333 -8.16699 33 -15.5c15.333 -10 26.333 -22.167 33 -36.5s10 -29.166 10 -44.499
c0 -6.66699 -0.666992 -13.167 -2 -19.5s-3 -12.833 -5 -19.5v0zM442.996 710.001l-57 -92l-65 41l57 91l65 -40v0zM581.996 710.001l-56 -92l-66 41l56 91l66 -40v0z" />
    <glyph glyph-name="Eth" unicode="&#xd0;" horiz-adv-x="589" 
d="M622 543c10.667 -14 18.4941 -28.9961 23.4941 -44.9961s7.5 -32.667 7.5 -50c0 -30.667 -7.5 -63 -22.5 -97s-36.5 -68.333 -64.5 -103c-17.333 -22 -37.5 -43.833 -60.5 -65.5s-48.167 -43.167 -75.5 -64.5c-28.667 -22 -56.5 -40.333 -83.5 -55
s-54.167 -26.667 -81.5 -36c-11.333 -4 -22.666 -7.33301 -33.999 -10s-22.333 -4.66699 -33 -6c-26.667 -4.66699 -53.5 -7.33398 -80.5 -8.00098s-54.167 -1 -81.5 -1h-4.5h-4.5l47 144h-68l32 99h68l47 145h104l-47 -145h63l-32 -99h-63l-13 -40
c38.667 5.33301 74.834 15.833 108.501 31.5s65.834 35.5 96.501 59.5l37.5 31c15.667 13.333 31.834 28.333 48.501 45l38 41.5c12.667 14.333 23.667 29.166 33 44.499c9.33301 14 16.666 27.833 21.999 41.5s8 26.834 8 39.501c0 8.66699 -1.5 17 -4.5 25
s-7.83301 15.333 -14.5 22c-6.66699 7.33301 -16.167 12.666 -28.5 15.999s-26.833 5 -43.5 5c-10 0 -20.833 -0.5 -32.5 -1.5s-24.167 -2.83301 -37.5 -5.5c-40 -6.66699 -83.167 -17.834 -129.5 -33.501s-93.166 -34.167 -140.499 -55.5l-26 -12l-26 -12l-43 88l41.5 20
c13.667 6.66699 27.5 13 41.5 19c46 20 91.667 37.333 137 52s88.333 25.334 129 32.001c13.333 2 26.833 3.83301 40.5 5.5s27.5 2.5 41.5 2.5c30.667 -0.666992 60.334 -5.33398 89.001 -14.001s52.334 -25.334 71.001 -50.001v0z" />
    <glyph glyph-name="Ntilde" unicode="&#xd1;" horiz-adv-x="635" 
d="M747 594l-24.5029 -58l-27.5 -63l-6 -14c-2 -4.66699 -4 -9 -6 -13l-31 -67l-28 -58c-23.333 -44.667 -48.333 -88.667 -75 -132s-55 -84 -85 -122c-2 -2.66699 -4 -5.16699 -6 -7.5s-4 -4.83301 -6 -7.5c-11.333 -12 -24.166 -23.333 -38.499 -34s-29.833 -16 -46.5 -16
c-2.66699 0 -5.33398 0.166992 -8.00098 0.5s-5.66699 0.833008 -9 1.5c-19.333 5.33301 -32.666 15.833 -39.999 31.5s-11.333 32.167 -12 49.5c-0.666992 3.33301 -0.833984 6.83301 -0.500977 10.5s0.5 7.16699 0.5 10.5c2.66699 31.333 5.83398 64.666 9.50098 99.999
s7.83398 71.666 12.501 108.999l-24 -44c-8 -14.667 -16.333 -29 -25 -43l-72 -118c-24 -38 -48 -73.667 -72 -107h-123l38 52l40 58l20 30.5l20 30.5l33 53c10.667 17.333 20.667 34.333 30 51l56 100l55 102l30 57.5l29 56.5h101c-1.33301 -12.667 -3 -26.667 -5 -42
l-6 -46c0 -1.33301 -0.166992 -3 -0.5 -5s-0.5 -3.66699 -0.5 -5c-2.66699 -17.333 -5 -34.166 -7 -50.499s-4 -30.833 -6 -43.5c-2 -14 -3.83301 -28.167 -5.5 -42.5s-3.5 -28.833 -5.5 -43.5l-10 -85.5c-3.33301 -28.333 -6.33301 -56.166 -9 -83.499
c24.667 33.333 48.334 68.5 71.001 105.5s43.667 74.833 63 113.5c20 39.333 38.667 78.5 56 117.5s33 75.833 47 110.5h109v0zM733.997 673c-12 -20.667 -28 -36.5 -48 -47.5s-41.333 -16.5 -64 -16.5c-10.667 0 -21.167 1.33301 -31.5 4s-20.166 6.66699 -29.499 12
c-4 2 -8 3.5 -12 4.5s-8 1.5 -12 1.5c-8.66699 0 -17 -2.16699 -25 -6.5s-14.667 -10.5 -20 -18.5l-67 38c12 20.667 28 36.5 48 47.5s41.333 16.5 64 16.5c10.667 0 21.167 -1.33301 31.5 -4s20.166 -6.66699 29.499 -12c4 -2 8 -3.5 12 -4.5s8 -1.5 12 -1.5
c9.33301 0 18 2.16699 26 6.5s14.333 10.833 19 19.5l67 -39v0z" />
    <glyph glyph-name="Ograve" unicode="&#xd2;" 
 />
    <glyph glyph-name="Oacute" unicode="&#xd3;" horiz-adv-x="617" 
d="M727 429l-31.9971 -99h-112c-3.33301 -84.667 -38 -160.334 -104 -227.001s-141.667 -100 -227 -100c-8 0 -16 0.333008 -24 1s-16 1.66699 -24 3c-60.667 10.667 -109.334 39.334 -146.001 86.001s-55 100.334 -55 161.001c0 87.333 33.5 165.833 100.5 235.5
s144.833 104.5 233.5 104.5c53.333 0 101.166 -14.833 143.499 -44.5s72.166 -69.834 89.499 -120.501h157v0zM484.003 330l-6.5 -0.00292969h-6.5c-19.333 0 -37.666 1.33301 -54.999 4s-32.333 13.334 -45 32.001c-5.33301 8 -9.33301 16 -12 24s-4 15.667 -4 23
c0 10.667 1.66699 21.334 5 32.001s7 21.667 11 33l2 6l2 6c-6.66699 1.33301 -13.167 2.5 -19.5 3.5s-12.5 1.5 -18.5 1.5c-62 0 -116.667 -25 -164 -75s-71 -105.333 -71 -166c0 -43.333 13.667 -79.5 41 -108.5s63 -43.5 107 -43.5c59.333 0 112.166 23.333 158.499 70
s71.5 99.334 75.5 158.001v0zM496.003 679.997l-219 -74l-25 73l219 74l25 -73v0z" />
    <glyph glyph-name="Ocircumflex" unicode="&#xd4;" horiz-adv-x="617" 
d="M727 429l-31.9971 -99h-112c-3.33301 -84.667 -38 -160.334 -104 -227.001s-141.667 -100 -227 -100c-8 0 -16 0.333008 -24 1s-16 1.66699 -24 3c-60.667 10.667 -109.334 39.334 -146.001 86.001s-55 100.334 -55 161.001c0 87.333 33.5 165.833 100.5 235.5
s144.833 104.5 233.5 104.5c53.333 0 101.166 -14.833 143.499 -44.5s72.166 -69.834 89.499 -120.501h157v0zM484.003 330l-6.5 -0.00292969h-6.5c-19.333 0 -37.666 1.33301 -54.999 4s-32.333 13.334 -45 32.001c-5.33301 8 -9.33301 16 -12 24s-4 15.667 -4 23
c0 10.667 1.66699 21.334 5 32.001s7 21.667 11 33l2 6l2 6c-6.66699 1.33301 -13.167 2.5 -19.5 3.5s-12.5 1.5 -18.5 1.5c-62 0 -116.667 -25 -164 -75s-71 -105.333 -71 -166c0 -43.333 13.667 -79.5 41 -108.5s63 -43.5 107 -43.5c59.333 0 112.166 23.333 158.499 70
s71.5 99.334 75.5 158.001v0zM494.003 649.997l-38 -67l-114 64l-115 -64l-38 67l153 85l152 -85v0z" />
    <glyph glyph-name="Otilde" unicode="&#xd5;" horiz-adv-x="617" 
d="M727 429l-31.9971 -99h-112c-3.33301 -84.667 -38 -160.334 -104 -227.001s-141.667 -100 -227 -100c-8 0 -16 0.333008 -24 1s-16 1.66699 -24 3c-60.667 10.667 -109.334 39.334 -146.001 86.001s-55 100.334 -55 161.001c0 87.333 33.5 165.833 100.5 235.5
s144.833 104.5 233.5 104.5c53.333 0 101.166 -14.833 143.499 -44.5s72.166 -69.834 89.499 -120.501h157v0zM484.003 330l-6.5 -0.00292969h-6.5c-19.333 0 -37.666 1.33301 -54.999 4s-32.333 13.334 -45 32.001c-5.33301 8 -9.33301 16 -12 24s-4 15.667 -4 23
c0 10.667 1.66699 21.334 5 32.001s7 21.667 11 33l2 6l2 6c-6.66699 1.33301 -13.167 2.5 -19.5 3.5s-12.5 1.5 -18.5 1.5c-62 0 -116.667 -25 -164 -75s-71 -105.333 -71 -166c0 -43.333 13.667 -79.5 41 -108.5s63 -43.5 107 -43.5c59.333 0 112.166 23.333 158.499 70
s71.5 99.334 75.5 158.001v0zM500.003 672.997c-12 -20.667 -28 -36.5 -48 -47.5s-41.333 -16.5 -64 -16.5c-10.667 0 -21.167 1.33301 -31.5 4s-20.166 6.66699 -29.499 12c-4 2 -8 3.5 -12 4.5s-8 1.5 -12 1.5c-8.66699 0 -17 -2.16699 -25 -6.5s-14.667 -10.5 -20 -18.5
l-67 38c12 20.667 28 36.5 48 47.5s41.333 16.5 64 16.5c10.667 0 21.167 -1.33301 31.5 -4s20.166 -6.66699 29.499 -12c4 -2 8 -3.5 12 -4.5s8 -1.5 12 -1.5c9.33301 0 18 2.16699 26 6.5s14.333 10.833 19 19.5l67 -39v0z" />
    <glyph glyph-name="Odieresis" unicode="&#xd6;" horiz-adv-x="617" 
d="M727 429l-31.9971 -99h-112c-3.33301 -84.667 -38 -160.334 -104 -227.001s-141.667 -100 -227 -100c-8 0 -16 0.333008 -24 1s-16 1.66699 -24 3c-60.667 10.667 -109.334 39.334 -146.001 86.001s-55 100.334 -55 161.001c0 87.333 33.5 165.833 100.5 235.5
s144.833 104.5 233.5 104.5c53.333 0 101.166 -14.833 143.499 -44.5s72.166 -69.834 89.499 -120.501h157v0zM484.003 330l-6.5 -0.00292969h-6.5c-19.333 0 -37.666 1.33301 -54.999 4s-32.333 13.334 -45 32.001c-5.33301 8 -9.33301 16 -12 24s-4 15.667 -4 23
c0 10.667 1.66699 21.334 5 32.001s7 21.667 11 33l2 6l2 6c-6.66699 1.33301 -13.167 2.5 -19.5 3.5s-12.5 1.5 -18.5 1.5c-62 0 -116.667 -25 -164 -75s-71 -105.333 -71 -166c0 -43.333 13.667 -79.5 41 -108.5s63 -43.5 107 -43.5c59.333 0 112.166 23.333 158.499 70
s71.5 99.334 75.5 158.001v0zM341.003 687.997l-57 -92l-65 41l57 91l65 -40v0zM480.003 687.997l-56 -92l-66 41l56 91l66 -40v0z" />
    <glyph glyph-name="multiply" unicode="&#xd7;" horiz-adv-x="500" 
 />
    <glyph glyph-name="Oslash" unicode="&#xd8;" horiz-adv-x="621" 
d="M730 429l-32 -98.9971h-112c-3.33301 -84.667 -38.166 -160.334 -104.499 -227.001s-142.166 -100 -227.499 -100c-8 0 -16 0.333008 -24 1s-16 1.66699 -24 3c-8.66699 1.33301 -17 3.16602 -25 5.49902s-15.667 4.83301 -23 7.5l-70 -113h-57l85 135
c-34.667 22.667 -61.834 52.667 -81.501 90s-29.5 78 -29.5 122c0 87.333 33.5 165.833 100.5 235.5s144.833 104.5 233.5 104.5c19.333 0 38 -2 56 -6s35.333 -10 52 -18l54 85h56l-69 -109c19.333 -14.667 36.166 -31.834 50.499 -51.501s25.5 -41.5 33.5 -65.5h158v0z
M486 330.003l-6.50098 -0.000976562h-6.5c-18.667 0 -36.667 1.33301 -54 4s-32.333 12.667 -45 30l-162 -257c6.66699 -2 13.334 -3.33301 20.001 -4s13.334 -1 20.001 -1c60 0 113.167 23.333 159.5 70s71.166 99.334 74.499 158.001v0zM376.999 490.002
c-3.33301 0.666992 -6.50195 1.33008 -9.50195 1.99707s-6.16699 1.33398 -9.5 2.00098c-3.33301 0 -6.5 0.166992 -9.5 0.5s-6.16699 0.5 -9.5 0.5c-61.333 0 -115.666 -25 -162.999 -75s-71 -105.333 -71 -166c0 -27.333 5.66699 -52.166 17 -74.499
s26.666 -40.166 45.999 -53.499l191 304c1.33301 8.66699 3.33301 17.167 6 25.5l8 24.5c0.666992 2 1.33398 3.83301 2.00098 5.5s1.33398 3.16699 2.00098 4.5v0z" />
    <glyph glyph-name="Ugrave" unicode="&#xd9;" horiz-adv-x="501" 
d="M583 594l-19.5059 -36.0039l-19.5 -37l-6 -10.5c-2 -3.66699 -3.66699 -7.16699 -5 -10.5c-5.33301 -8.66699 -10.333 -17.667 -15 -27s-8.66699 -18.666 -12 -27.999l-29 -86l-28 -85c-2.66699 -10 -5.5 -19.667 -8.5 -29l-9.5 -29l-18 -56.5l-18 -57.5h98l-29 -99h-83
c-20.667 0 -39 6.66699 -55 20s-26.333 29.666 -31 48.999c-22 -21.333 -45.5 -38.166 -70.5 -50.499s-52.167 -18.5 -81.5 -18.5c-51.333 0 -87.166 13.5 -107.499 40.5s-30.5 61.833 -30.5 104.5c0 40 6.16699 79.5 18.5 118.5s25.833 77.5 40.5 115.5l14 35.5
c4.66699 11.667 9 23.5 13 35.5c4.66699 13.333 8 23.5 10 30.5s3 11.833 3 14.5c0 1.33301 -0.166992 2.5 -0.5 3.5s-1.16602 1.5 -2.49902 1.5c-6.66699 2.66699 -13.667 4.66699 -21 6l-22 4c-1.33301 0.666992 -2.5 1 -3.5 1s-2.16699 0.333008 -3.5 1l-14 2
c-4.66699 0.666992 -9.33398 1.66699 -14.001 3l20 96c4.66699 -0.666992 9.33398 -1.5 14.001 -2.5s9.33398 -1.83301 14.001 -2.5c1.33301 0 2.83301 -0.166992 4.5 -0.5s3.16699 -0.5 4.5 -0.5c8.66699 -1.33301 17.667 -3 27 -5s18.333 -4.66699 27 -8
c26.667 -9.33301 45 -22 55 -38s15 -33.667 15 -53c0 -10 -1 -20.167 -3 -30.5s-4.66699 -20.833 -8 -31.5l-8 -22.5l-8 -23.5c-2 -4 -3.83301 -8 -5.5 -12s-3.16699 -8 -4.5 -12c-2.66699 -7.33301 -5.66699 -15.166 -9 -23.499l-10 -25.5l-10.5 -30
c-3.66699 -10 -7.16699 -20.333 -10.5 -31c-6.66699 -20.667 -12.167 -41 -16.5 -61s-6.5 -38.333 -6.5 -55c0 -13.333 2.83301 -24.333 8.5 -33s15.834 -13 30.501 -13c46.667 0 88.834 31.5 126.501 94.5s73.834 132.167 108.501 207.5
c1.33301 3.33301 2.83301 6.5 4.5 9.5s3.16699 6.16699 4.5 9.5c1.33301 2.66699 2.5 5.16699 3.5 7.5s2.16699 4.5 3.5 6.5l10 21.5c3.33301 7 6.33301 14.167 9 21.5c5.33301 12.667 10 25.334 14 38.001s7.66699 25.334 11 38.001c0.666992 0.666992 1.16699 1.5 1.5 2.5
s0.5 1.83301 0.5 2.5c1.33301 5.33301 2.83301 10.833 4.5 16.5s3.5 11.167 5.5 16.5h133v0zM408.994 672.996l-25 -73l-219 74l25 73l219 -74v0z" />
    <glyph glyph-name="Uacute" unicode="&#xda;" horiz-adv-x="501" 
d="M583 594l-19.5059 -36.0039l-19.5 -37l-6 -10.5c-2 -3.66699 -3.66699 -7.16699 -5 -10.5c-5.33301 -8.66699 -10.333 -17.667 -15 -27s-8.66699 -18.666 -12 -27.999l-29 -86l-28 -85c-2.66699 -10 -5.5 -19.667 -8.5 -29l-9.5 -29l-18 -56.5l-18 -57.5h98l-29 -99h-83
c-20.667 0 -39 6.66699 -55 20s-26.333 29.666 -31 48.999c-22 -21.333 -45.5 -38.166 -70.5 -50.499s-52.167 -18.5 -81.5 -18.5c-51.333 0 -87.166 13.5 -107.499 40.5s-30.5 61.833 -30.5 104.5c0 40 6.16699 79.5 18.5 118.5s25.833 77.5 40.5 115.5l14 35.5
c4.66699 11.667 9 23.5 13 35.5c4.66699 13.333 8 23.5 10 30.5s3 11.833 3 14.5c0 1.33301 -0.166992 2.5 -0.5 3.5s-1.16602 1.5 -2.49902 1.5c-6.66699 2.66699 -13.667 4.66699 -21 6l-22 4c-1.33301 0.666992 -2.5 1 -3.5 1s-2.16699 0.333008 -3.5 1l-14 2
c-4.66699 0.666992 -9.33398 1.66699 -14.001 3l20 96c4.66699 -0.666992 9.33398 -1.5 14.001 -2.5s9.33398 -1.83301 14.001 -2.5c1.33301 0 2.83301 -0.166992 4.5 -0.5s3.16699 -0.5 4.5 -0.5c8.66699 -1.33301 17.667 -3 27 -5s18.333 -4.66699 27 -8
c26.667 -9.33301 45 -22 55 -38s15 -33.667 15 -53c0 -10 -1 -20.167 -3 -30.5s-4.66699 -20.833 -8 -31.5l-8 -22.5l-8 -23.5c-2 -4 -3.83301 -8 -5.5 -12s-3.16699 -8 -4.5 -12c-2.66699 -7.33301 -5.66699 -15.166 -9 -23.499l-10 -25.5l-10.5 -30
c-3.66699 -10 -7.16699 -20.333 -10.5 -31c-6.66699 -20.667 -12.167 -41 -16.5 -61s-6.5 -38.333 -6.5 -55c0 -13.333 2.83301 -24.333 8.5 -33s15.834 -13 30.501 -13c46.667 0 88.834 31.5 126.501 94.5s73.834 132.167 108.501 207.5
c1.33301 3.33301 2.83301 6.5 4.5 9.5s3.16699 6.16699 4.5 9.5c1.33301 2.66699 2.5 5.16699 3.5 7.5s2.16699 4.5 3.5 6.5l10 21.5c3.33301 7 6.33301 14.167 9 21.5c5.33301 12.667 10 25.334 14 38.001s7.66699 25.334 11 38.001c0.666992 0.666992 1.16699 1.5 1.5 2.5
s0.5 1.83301 0.5 2.5c1.33301 5.33301 2.83301 10.833 4.5 16.5s3.5 11.167 5.5 16.5h133v0zM509.994 683.996l-219 -74l-25 73l219 74l25 -73v0z" />
    <glyph glyph-name="Ucircumflex" unicode="&#xdb;" horiz-adv-x="501" 
d="M583 594l-19.5059 -36.0039l-19.5 -37l-6 -10.5c-2 -3.66699 -3.66699 -7.16699 -5 -10.5c-5.33301 -8.66699 -10.333 -17.667 -15 -27s-8.66699 -18.666 -12 -27.999l-29 -86l-28 -85c-2.66699 -10 -5.5 -19.667 -8.5 -29l-9.5 -29l-18 -56.5l-18 -57.5h98l-29 -99h-83
c-20.667 0 -39 6.66699 -55 20s-26.333 29.666 -31 48.999c-22 -21.333 -45.5 -38.166 -70.5 -50.499s-52.167 -18.5 -81.5 -18.5c-51.333 0 -87.166 13.5 -107.499 40.5s-30.5 61.833 -30.5 104.5c0 40 6.16699 79.5 18.5 118.5s25.833 77.5 40.5 115.5l14 35.5
c4.66699 11.667 9 23.5 13 35.5c4.66699 13.333 8 23.5 10 30.5s3 11.833 3 14.5c0 1.33301 -0.166992 2.5 -0.5 3.5s-1.16602 1.5 -2.49902 1.5c-6.66699 2.66699 -13.667 4.66699 -21 6l-22 4c-1.33301 0.666992 -2.5 1 -3.5 1s-2.16699 0.333008 -3.5 1l-14 2
c-4.66699 0.666992 -9.33398 1.66699 -14.001 3l20 96c4.66699 -0.666992 9.33398 -1.5 14.001 -2.5s9.33398 -1.83301 14.001 -2.5c1.33301 0 2.83301 -0.166992 4.5 -0.5s3.16699 -0.5 4.5 -0.5c8.66699 -1.33301 17.667 -3 27 -5s18.333 -4.66699 27 -8
c26.667 -9.33301 45 -22 55 -38s15 -33.667 15 -53c0 -10 -1 -20.167 -3 -30.5s-4.66699 -20.833 -8 -31.5l-8 -22.5l-8 -23.5c-2 -4 -3.83301 -8 -5.5 -12s-3.16699 -8 -4.5 -12c-2.66699 -7.33301 -5.66699 -15.166 -9 -23.499l-10 -25.5l-10.5 -30
c-3.66699 -10 -7.16699 -20.333 -10.5 -31c-6.66699 -20.667 -12.167 -41 -16.5 -61s-6.5 -38.333 -6.5 -55c0 -13.333 2.83301 -24.333 8.5 -33s15.834 -13 30.501 -13c46.667 0 88.834 31.5 126.501 94.5s73.834 132.167 108.501 207.5
c1.33301 3.33301 2.83301 6.5 4.5 9.5s3.16699 6.16699 4.5 9.5c1.33301 2.66699 2.5 5.16699 3.5 7.5s2.16699 4.5 3.5 6.5l10 21.5c3.33301 7 6.33301 14.167 9 21.5c5.33301 12.667 10 25.334 14 38.001s7.66699 25.334 11 38.001c0.666992 0.666992 1.16699 1.5 1.5 2.5
s0.5 1.83301 0.5 2.5c1.33301 5.33301 2.83301 10.833 4.5 16.5s3.5 11.167 5.5 16.5h133v0zM477.994 667.996l-38 -67l-114 64l-115 -64l-38 67l153 85l152 -85v0z" />
    <glyph glyph-name="Udieresis" unicode="&#xdc;" horiz-adv-x="501" 
d="M583 594l-19.5059 -36.0039l-19.5 -37l-6 -10.5c-2 -3.66699 -3.66699 -7.16699 -5 -10.5c-5.33301 -8.66699 -10.333 -17.667 -15 -27s-8.66699 -18.666 -12 -27.999l-29 -86l-28 -85c-2.66699 -10 -5.5 -19.667 -8.5 -29l-9.5 -29l-18 -56.5l-18 -57.5h98l-29 -99h-83
c-20.667 0 -39 6.66699 -55 20s-26.333 29.666 -31 48.999c-22 -21.333 -45.5 -38.166 -70.5 -50.499s-52.167 -18.5 -81.5 -18.5c-51.333 0 -87.166 13.5 -107.499 40.5s-30.5 61.833 -30.5 104.5c0 40 6.16699 79.5 18.5 118.5s25.833 77.5 40.5 115.5l14 35.5
c4.66699 11.667 9 23.5 13 35.5c4.66699 13.333 8 23.5 10 30.5s3 11.833 3 14.5c0 1.33301 -0.166992 2.5 -0.5 3.5s-1.16602 1.5 -2.49902 1.5c-6.66699 2.66699 -13.667 4.66699 -21 6l-22 4c-1.33301 0.666992 -2.5 1 -3.5 1s-2.16699 0.333008 -3.5 1l-14 2
c-4.66699 0.666992 -9.33398 1.66699 -14.001 3l20 96c4.66699 -0.666992 9.33398 -1.5 14.001 -2.5s9.33398 -1.83301 14.001 -2.5c1.33301 0 2.83301 -0.166992 4.5 -0.5s3.16699 -0.5 4.5 -0.5c8.66699 -1.33301 17.667 -3 27 -5s18.333 -4.66699 27 -8
c26.667 -9.33301 45 -22 55 -38s15 -33.667 15 -53c0 -10 -1 -20.167 -3 -30.5s-4.66699 -20.833 -8 -31.5l-8 -22.5l-8 -23.5c-2 -4 -3.83301 -8 -5.5 -12s-3.16699 -8 -4.5 -12c-2.66699 -7.33301 -5.66699 -15.166 -9 -23.499l-10 -25.5l-10.5 -30
c-3.66699 -10 -7.16699 -20.333 -10.5 -31c-6.66699 -20.667 -12.167 -41 -16.5 -61s-6.5 -38.333 -6.5 -55c0 -13.333 2.83301 -24.333 8.5 -33s15.834 -13 30.501 -13c46.667 0 88.834 31.5 126.501 94.5s73.834 132.167 108.501 207.5
c1.33301 3.33301 2.83301 6.5 4.5 9.5s3.16699 6.16699 4.5 9.5c1.33301 2.66699 2.5 5.16699 3.5 7.5s2.16699 4.5 3.5 6.5l10 21.5c3.33301 7 6.33301 14.167 9 21.5c5.33301 12.667 10 25.334 14 38.001s7.66699 25.334 11 38.001c0.666992 0.666992 1.16699 1.5 1.5 2.5
s0.5 1.83301 0.5 2.5c1.33301 5.33301 2.83301 10.833 4.5 16.5s3.5 11.167 5.5 16.5h133v0zM318.994 687.996l-57 -92l-65 41l57 91l65 -40v0zM457.994 687.996l-56 -92l-66 41l56 91l66 -40v0z" />
    <glyph glyph-name="Yacute" unicode="&#xdd;" 
 />
    <glyph glyph-name="Thorn" unicode="&#xde;" horiz-adv-x="530" 
d="M576 354c-1.33301 -12.667 -3.33105 -25.665 -5.99805 -38.998s-6 -26.666 -10 -39.999c-16 -56 -42.5 -107.333 -79.5 -154s-86.5 -70 -148.5 -70h-27.5h-32.5h-58.5c-17.667 0 -25.167 0 -22.5 0l50 100h27h19h19h26c30 0 57.333 16 82 48s42.667 67.333 54 106
c4 13.333 7.16699 26.666 9.5 39.999s3.5 26 3.5 38c0 7.33301 -0.333008 14.166 -1 20.499s-2 12.166 -4 17.499c-0.666992 1.33301 -1.33398 2.16602 -2.00098 2.49902s-1.66699 0.5 -3 0.5c-2.66699 0 -6.33398 -1 -11.001 -3l-14 -6l-4 -2
c-1.33301 -0.666992 -2.33301 -1.33398 -3 -2.00098l-15.5 -8.5c-4.33301 -2.33301 -6.83301 -3.83301 -7.5 -4.5c-44.667 -36.667 -87.167 -76 -127.5 -118s-73.166 -89 -98.499 -141l-96 -189h-116l217 420c8.66699 16.667 14.834 31.167 18.501 43.5s5.5 22.833 5.5 31.5
c0 24 -11.667 38.167 -35 42.5s-52 6.83301 -86 7.5h-2h-2l32 98h60c51.333 0 86.666 -15 105.999 -45s27.666 -64.667 24.999 -104c23.333 20.667 48 38.834 74 54.501s53 23.5 81 23.5h4.5c1.66699 0 3.5 -0.333008 5.5 -1c1.33301 0 2.83301 -0.166992 4.5 -0.5
s3.16699 -0.5 4.5 -0.5c34 -6 57.167 -21.667 69.5 -47s18.5 -52.666 18.5 -81.999v-9c0 -3.33301 -0.333008 -6.33301 -1 -9c0 -3.33301 -0.166992 -6.5 -0.5 -9.5s-0.833008 -6.16699 -1.5 -9.5v0z" />
    <glyph glyph-name="germandbls" unicode="&#xdf;" horiz-adv-x="520" 
d="M532 102l-32.001 -99.9971h-323l33 100h67c18 0 33.167 4.66699 45.5 14s18.5 23.666 18.5 42.999c0 21.333 -6.16699 40 -18.5 56s-26.166 30.667 -41.499 44c-3.33301 4 -7 7.66699 -11 11s-7.66699 6.66602 -11 9.99902l-11.5 11.5
c-3.66699 3.66699 -7.5 7.16699 -11.5 10.5l-11.5 11.5c-3.66699 3.66699 -7.5 7.16699 -11.5 10.5l24 15.5l24 15.5c8 5.33301 16.167 10.5 24.5 15.5s16.5 10.167 24.5 15.5c2 1.33301 4.16699 2.66602 6.5 3.99902s4.5 3 6.5 5c11.333 8.66699 22 19.334 32 32.001
s15 26.334 15 41.001c0 9.33301 -2.66699 16 -8 20s-12.333 6 -21 6c-2 0 -4.16699 -0.166992 -6.5 -0.5s-4.5 -0.5 -6.5 -0.5c-18.667 -3.33301 -36.167 -12.166 -52.5 -26.499s-27.166 -29.833 -32.499 -46.5l-156 -479h-104l46.5 142.5l46.5 142.5h-64l32 99h64l10 31.5
l10 31.5l10 30.5l10 31.5c12 38 36.167 71.167 72.5 99.5s74.833 43.166 115.5 44.499h2h2c7.33301 0 14.833 -0.5 22.5 -1.5s15.167 -2.83301 22.5 -5.5c26 -8.66699 46.5 -23.834 61.5 -45.501s22.5 -46.167 22.5 -73.5c0 -32.667 -9.33301 -62.834 -28 -90.501
s-41.334 -50.5 -68.001 -68.5c18.667 -19.333 34 -41.333 46 -66s19 -50 21 -76v-4.5v-5.5c0 -9.33301 -0.833008 -18.5 -2.5 -27.5s-4.16699 -18.167 -7.5 -27.5h102v0z" />
    <glyph glyph-name="agrave" unicode="&#xe0;" horiz-adv-x="367" 
d="M389 101l-32.001 -98.9971h-97c-10.667 0 -20.334 1.66699 -29.001 5s-16.667 7.66602 -24 12.999c-10 -6 -20.833 -11 -32.5 -15s-23.167 -6.66699 -34.5 -8c-4 -0.666992 -8 -1.16699 -12 -1.5s-8 -0.5 -12 -0.5c-20.667 0 -40.167 4.66699 -58.5 14
s-32.833 24.333 -43.5 45c-4 8.66699 -7 17.167 -9 25.5s-3 16.833 -3 25.5c0 17.333 3.33301 34.166 10 50.499s15.334 31.5 26.001 45.5c33.333 44.667 74.833 76.167 124.5 94.5s101.167 28.166 154.5 29.499h6.5h7.5v-99c-21.333 0 -42.5 -1.33301 -63.5 -4
s-41.167 -7.66699 -60.5 -15c-17.333 -6 -33.666 -14.333 -48.999 -25s-28.666 -23.667 -39.999 -39c-0.666992 -1.33301 -1.66699 -3 -3 -5s-2.66602 -4.33301 -3.99902 -7c-1.33301 -2 -2.5 -4 -3.5 -6l-3.5 -7c-0.666992 -2 -1.33398 -4.33301 -2.00098 -7s-1 -5 -1 -7
c0 -2.66699 1 -5.16699 3 -7.5s5.33301 -3.5 10 -3.5c26 0 45.333 8.66699 58 26s22.667 36.333 30 57c1.33301 4.66699 2.66602 9 3.99902 13l4 12l94 -31l-22 -69h107v0zM322.999 427.003l-25 -73l-219 74l25 73l219 -74v0z" />
    <glyph glyph-name="aacute" unicode="&#xe1;" horiz-adv-x="367" 
d="M389 101l-32.001 -98.9971h-97c-10.667 0 -20.334 1.66699 -29.001 5s-16.667 7.66602 -24 12.999c-10 -6 -20.833 -11 -32.5 -15s-23.167 -6.66699 -34.5 -8c-4 -0.666992 -8 -1.16699 -12 -1.5s-8 -0.5 -12 -0.5c-20.667 0 -40.167 4.66699 -58.5 14
s-32.833 24.333 -43.5 45c-4 8.66699 -7 17.167 -9 25.5s-3 16.833 -3 25.5c0 17.333 3.33301 34.166 10 50.499s15.334 31.5 26.001 45.5c33.333 44.667 74.833 76.167 124.5 94.5s101.167 28.166 154.5 29.499h6.5h7.5v-99c-21.333 0 -42.5 -1.33301 -63.5 -4
s-41.167 -7.66699 -60.5 -15c-17.333 -6 -33.666 -14.333 -48.999 -25s-28.666 -23.667 -39.999 -39c-0.666992 -1.33301 -1.66699 -3 -3 -5s-2.66602 -4.33301 -3.99902 -7c-1.33301 -2 -2.5 -4 -3.5 -6l-3.5 -7c-0.666992 -2 -1.33398 -4.33301 -2.00098 -7s-1 -5 -1 -7
c0 -2.66699 1 -5.16699 3 -7.5s5.33301 -3.5 10 -3.5c26 0 45.333 8.66699 58 26s22.667 36.333 30 57c1.33301 4.66699 2.66602 9 3.99902 13l4 12l94 -31l-22 -69h107v0zM417.999 416.003l-219 -74l-25 73l219 74l25 -73v0z" />
    <glyph glyph-name="acircumflex" unicode="&#xe2;" horiz-adv-x="367" 
d="M389 101l-32.001 -98.9971h-97c-10.667 0 -20.334 1.66699 -29.001 5s-16.667 7.66602 -24 12.999c-10 -6 -20.833 -11 -32.5 -15s-23.167 -6.66699 -34.5 -8c-4 -0.666992 -8 -1.16699 -12 -1.5s-8 -0.5 -12 -0.5c-20.667 0 -40.167 4.66699 -58.5 14
s-32.833 24.333 -43.5 45c-4 8.66699 -7 17.167 -9 25.5s-3 16.833 -3 25.5c0 17.333 3.33301 34.166 10 50.499s15.334 31.5 26.001 45.5c33.333 44.667 74.833 76.167 124.5 94.5s101.167 28.166 154.5 29.499h6.5h7.5v-99c-21.333 0 -42.5 -1.33301 -63.5 -4
s-41.167 -7.66699 -60.5 -15c-17.333 -6 -33.666 -14.333 -48.999 -25s-28.666 -23.667 -39.999 -39c-0.666992 -1.33301 -1.66699 -3 -3 -5s-2.66602 -4.33301 -3.99902 -7c-1.33301 -2 -2.5 -4 -3.5 -6l-3.5 -7c-0.666992 -2 -1.33398 -4.33301 -2.00098 -7s-1 -5 -1 -7
c0 -2.66699 1 -5.16699 3 -7.5s5.33301 -3.5 10 -3.5c26 0 45.333 8.66699 58 26s22.667 36.333 30 57c1.33301 4.66699 2.66602 9 3.99902 13l4 12l94 -31l-22 -69h107v0zM401.999 400.003l-38 -67l-114 64l-115 -64l-38 67l153 85l152 -85v0z" />
    <glyph glyph-name="atilde" unicode="&#xe3;" horiz-adv-x="367" 
d="M389 101l-32.001 -98.9971h-97c-10.667 0 -20.334 1.66699 -29.001 5s-16.667 7.66602 -24 12.999c-10 -6 -20.833 -11 -32.5 -15s-23.167 -6.66699 -34.5 -8c-4 -0.666992 -8 -1.16699 -12 -1.5s-8 -0.5 -12 -0.5c-20.667 0 -40.167 4.66699 -58.5 14
s-32.833 24.333 -43.5 45c-4 8.66699 -7 17.167 -9 25.5s-3 16.833 -3 25.5c0 17.333 3.33301 34.166 10 50.499s15.334 31.5 26.001 45.5c33.333 44.667 74.833 76.167 124.5 94.5s101.167 28.166 154.5 29.499h6.5h7.5v-99c-21.333 0 -42.5 -1.33301 -63.5 -4
s-41.167 -7.66699 -60.5 -15c-17.333 -6 -33.666 -14.333 -48.999 -25s-28.666 -23.667 -39.999 -39c-0.666992 -1.33301 -1.66699 -3 -3 -5s-2.66602 -4.33301 -3.99902 -7c-1.33301 -2 -2.5 -4 -3.5 -6l-3.5 -7c-0.666992 -2 -1.33398 -4.33301 -2.00098 -7s-1 -5 -1 -7
c0 -2.66699 1 -5.16699 3 -7.5s5.33301 -3.5 10 -3.5c26 0 45.333 8.66699 58 26s22.667 36.333 30 57c1.33301 4.66699 2.66602 9 3.99902 13l4 12l94 -31l-22 -69h107v0zM401.999 409.003c-12 -20.667 -28 -36.5 -48 -47.5s-41.333 -16.5 -64 -16.5
c-10.667 0 -21.167 1.33301 -31.5 4s-20.166 6.66699 -29.499 12c-4 2 -8 3.5 -12 4.5s-8 1.5 -12 1.5c-8.66699 0 -17 -2.16699 -25 -6.5s-14.667 -10.5 -20 -18.5l-67 38c12 20.667 28 36.5 48 47.5s41.333 16.5 64 16.5c10.667 0 21.167 -1.33301 31.5 -4
s20.166 -6.66699 29.499 -12c4 -2 8 -3.5 12 -4.5s8 -1.5 12 -1.5c9.33301 0 18 2.16699 26 6.5s14.333 10.833 19 19.5l67 -39v0z" />
    <glyph glyph-name="adieresis" unicode="&#xe4;" horiz-adv-x="367" 
d="M389 101l-32.001 -98.9971h-97c-10.667 0 -20.334 1.66699 -29.001 5s-16.667 7.66602 -24 12.999c-10 -6 -20.833 -11 -32.5 -15s-23.167 -6.66699 -34.5 -8c-4 -0.666992 -8 -1.16699 -12 -1.5s-8 -0.5 -12 -0.5c-20.667 0 -40.167 4.66699 -58.5 14
s-32.833 24.333 -43.5 45c-4 8.66699 -7 17.167 -9 25.5s-3 16.833 -3 25.5c0 17.333 3.33301 34.166 10 50.499s15.334 31.5 26.001 45.5c33.333 44.667 74.833 76.167 124.5 94.5s101.167 28.166 154.5 29.499h6.5h7.5v-99c-21.333 0 -42.5 -1.33301 -63.5 -4
s-41.167 -7.66699 -60.5 -15c-17.333 -6 -33.666 -14.333 -48.999 -25s-28.666 -23.667 -39.999 -39c-0.666992 -1.33301 -1.66699 -3 -3 -5s-2.66602 -4.33301 -3.99902 -7c-1.33301 -2 -2.5 -4 -3.5 -6l-3.5 -7c-0.666992 -2 -1.33398 -4.33301 -2.00098 -7s-1 -5 -1 -7
c0 -2.66699 1 -5.16699 3 -7.5s5.33301 -3.5 10 -3.5c26 0 45.333 8.66699 58 26s22.667 36.333 30 57c1.33301 4.66699 2.66602 9 3.99902 13l4 12l94 -31l-22 -69h107v0zM248.999 432.003l-57 -92l-65 41l57 91l65 -40v0zM387.999 432.003l-56 -92l-66 41l56 91l66 -40v0z
" />
    <glyph glyph-name="aring" unicode="&#xe5;" horiz-adv-x="367" 
d="M389 101l-32.001 -98.9971h-97c-10.667 0 -20.334 1.66699 -29.001 5s-16.667 7.66602 -24 12.999c-10 -6 -20.833 -11 -32.5 -15s-23.167 -6.66699 -34.5 -8c-4 -0.666992 -8 -1.16699 -12 -1.5s-8 -0.5 -12 -0.5c-20.667 0 -40.167 4.66699 -58.5 14
s-32.833 24.333 -43.5 45c-4 8.66699 -7 17.167 -9 25.5s-3 16.833 -3 25.5c0 17.333 3.33301 34.166 10 50.499s15.334 31.5 26.001 45.5c33.333 44.667 74.833 76.167 124.5 94.5s101.167 28.166 154.5 29.499h6.5h7.5v-99c-21.333 0 -42.5 -1.33301 -63.5 -4
s-41.167 -7.66699 -60.5 -15c-17.333 -6 -33.666 -14.333 -48.999 -25s-28.666 -23.667 -39.999 -39c-0.666992 -1.33301 -1.66699 -3 -3 -5s-2.66602 -4.33301 -3.99902 -7c-1.33301 -2 -2.5 -4 -3.5 -6l-3.5 -7c-0.666992 -2 -1.33398 -4.33301 -2.00098 -7s-1 -5 -1 -7
c0 -2.66699 1 -5.16699 3 -7.5s5.33301 -3.5 10 -3.5c26 0 45.333 8.66699 58 26s22.667 36.333 30 57c1.33301 4.66699 2.66602 9 3.99902 13l4 12l94 -31l-22 -69h107v0zM335.999 411.003c0 -9.33301 -1.83008 -18.168 -5.49707 -26.501s-8.83398 -15.833 -15.501 -22.5
c-6 -6.66699 -13.333 -11.667 -22 -15s-17.667 -5 -27 -5c-18.667 0 -35 6.83301 -49 20.5s-21 29.834 -21 48.501c0 10 1.83301 19.167 5.5 27.5s8.5 15.5 14.5 21.5v1c7.33301 6.66699 15.166 11.667 23.499 15s17.166 5 26.499 5c19.333 0 35.833 -6.83301 49.5 -20.5
s20.5 -30.167 20.5 -49.5v0zM284.002 411.001c0 5.33301 -1.66895 9.83301 -5.00195 13.5s-7.66602 5.5 -12.999 5.5c-2.66699 0 -5.16699 -0.5 -7.5 -1.5s-4.16602 -2.16699 -5.49902 -3.5c-2 -1.33301 -3.33301 -3.16602 -4 -5.49902s-1 -5.16602 -1 -8.49902
c0 -4.66699 1.83301 -8.83398 5.5 -12.501s7.83398 -5.5 12.501 -5.5c2.66699 0 5.16699 0.5 7.5 1.5s4.16602 2.16699 5.49902 3.5s2.5 3.16602 3.5 5.49902s1.5 4.83301 1.5 7.5v0z" />
    <glyph glyph-name="ae" unicode="&#xe6;" horiz-adv-x="611" 
d="M616 101l-32.999 -98.9961h-319c-10.667 0 -20.334 1.66699 -29.001 5s-16.667 7.66602 -24 12.999c-10 -6 -20.833 -11 -32.5 -15s-23.167 -6.66699 -34.5 -8c-4 -0.666992 -8 -1.16699 -12 -1.5s-8 -0.5 -12 -0.5c-20.667 0 -40.167 4.66699 -58.5 14
s-32.833 24.333 -43.5 45c-4 8.66699 -6.83301 17.167 -8.5 25.5s-2.5 16.833 -2.5 25.5c0 17.333 3.16699 34.166 9.5 50.499s14.833 31.5 25.5 45.5c33.333 46 75.666 78 126.999 96s104.333 27.333 159 28h3.5h3.5v-71c13.333 17.333 27.5 32 42.5 44
s30.5 21.333 46.5 28c7.33301 3.33301 15 6.16602 23 8.49902s15.667 4.16602 23 5.49902c4 0.666992 8 1.16699 12 1.5s8.33301 0.5 13 0.5c27.333 0 51.5 -7.83301 72.5 -23.5s31.5 -37.167 31.5 -64.5c0 -5.33301 -0.5 -11 -1.5 -17s-2.83301 -12.333 -5.5 -19
c-5.33301 -16 -16.166 -34 -32.499 -54s-39.833 -41 -70.5 -63h127v0zM316.001 225.004c-18 -0.666992 -35.8369 -2.50098 -53.5039 -5.50098s-34.834 -7.16699 -51.501 -12.5c-17.333 -6 -33.666 -14.333 -48.999 -25s-28.666 -23.667 -39.999 -39
c-0.666992 -1.33301 -1.66699 -3 -3 -5l-4 -6c-1.33301 -2 -2.5 -4.16699 -3.5 -6.5s-1.83301 -4.83301 -2.5 -7.5c-1.33301 -2 -2.16602 -4.33301 -2.49902 -7s-0.5 -5 -0.5 -7c0 -2.66699 1 -5.16699 3 -7.5s5.33301 -3.5 10 -3.5c26 0 45.167 8.66699 57.5 26
s22.166 36.333 29.499 57c1.33301 4.66699 2.66602 9 3.99902 13l4 12l79 -26c0.666992 1.33301 1.33398 2.83301 2.00098 4.5s1.33398 3.16699 2.00098 4.5c0 1.33301 0.333008 2.83301 1 4.5s1.33398 3.16699 2.00098 4.5l8 16.5
c2.66699 5.66699 5.33398 10.834 8.00098 15.501v0zM495.997 244.003c-24 -0.666992 -45.001 -9.83301 -63.001 -27.5s-31.333 -37.167 -40 -58.5c0 -0.666992 -0.166992 -1.16699 -0.5 -1.5s-0.5 -0.833008 -0.5 -1.5c30.667 18.667 54.334 35.5 71.001 50.5
s27.667 27.833 33 38.5v0z" />
    <glyph glyph-name="ccedilla" unicode="&#xe7;" horiz-adv-x="342" 
d="M248 -146c-8 -16.667 -19.666 -30.001 -34.999 -40.001s-31.666 -15 -48.999 -15h-23h-32h-10.5h-9.5h-19.5h-14.5l30 73h66c11.333 0.666992 19.166 2.83398 23.499 6.50098s6.16602 7.83398 5.49902 12.501c0 1.33301 -0.166992 2.5 -0.5 3.5s-0.5 2.16699 -0.5 3.5
c-1.33301 3.33301 -3.33301 6.66602 -6 9.99902s-5.66699 6 -9 8l-26.5 16l-26.5 16c9.33301 16.667 19 33 29 49l30 49l65 -40l-19 -34c12.667 -9.33301 22.5 -21 29.5 -35s10.5 -28.667 10.5 -44c0 -6.66699 -0.666992 -13.167 -2 -19.5s-3.33301 -12.5 -6 -18.5v-1z
M360.001 100.999l-33.001 -98.998h-222c-18.667 0 -36 4.16699 -52 12.5s-28.333 20.833 -37 37.5c-4 8 -6.83301 16.167 -8.5 24.5s-2.5 16.833 -2.5 25.5c0 16.667 2.5 33 7.5 49s10.833 31 17.5 45c0 0.666992 0.166992 1.16699 0.5 1.5s0.5 0.833008 0.5 1.5
c18 34.667 45.167 66.334 81.5 95.001s74.833 43 115.5 43h3.5h3.5c0.666992 -0.666992 1.66699 -1 3 -1h4c25.333 -2.66699 46 -12 62 -28s24 -36.333 24 -61v-3v-3c0 -1.33301 -0.166992 -2.5 -0.5 -3.5s-0.5 -2.16699 -0.5 -3.5l-5 -44h-100l5 48
c-19.333 -1.33301 -37.666 -9 -54.999 -23s-31.333 -29.333 -42 -46l-5.5 -9c-1.66699 -2.66699 -3.16699 -5.33398 -4.5 -8.00098c0 -0.666992 -0.833008 -2.83398 -2.5 -6.50098s-3.5 -8.16699 -5.5 -13.5c-0.666992 -0.666992 -1.16699 -1.5 -1.5 -2.5
s-0.833008 -1.83301 -1.5 -2.5l-4 -13.5c-1.33301 -4.33301 -2 -7.5 -2 -9.5c0 -0.666992 0.166992 -1.33398 0.5 -2.00098s0.833008 -1 1.5 -1h255v0z" />
    <glyph glyph-name="egrave" unicode="&#xe8;" horiz-adv-x="342" 
d="M352 101l-32.9971 -99h-218c-18 0 -34.833 3.83301 -50.5 11.5s-27.834 19.5 -36.501 35.5c-4 7.33301 -7 15.333 -9 24s-3 17.334 -3 26.001c0 2 0.166992 4.16699 0.5 6.5s0.5 4.83301 0.5 7.5c1.33301 13.333 4.16602 26.833 8.49902 40.5s8.83301 26.167 13.5 37.5
c14 32 31.167 58.5 51.5 79.5s41.5 36.833 63.5 47.5c9.33301 5.33301 18.5 9.5 27.5 12.5s17.833 5.16699 26.5 6.5c4 0.666992 8 1.16699 12 1.5s8.33301 0.5 13 0.5c27.333 0 51.666 -7.66699 72.999 -23s32 -36.666 32 -63.999c0 -5.33301 -0.5 -10.833 -1.5 -16.5
s-2.83301 -11.834 -5.5 -18.501c-5.33301 -16.667 -16.333 -34.834 -33 -54.501s-40 -40.167 -70 -61.5h138v0zM221.003 242c-24 -1.33301 -45 -10.667 -63 -28s-31.333 -36.333 -40 -57c0 -0.666992 -0.166992 -1.16699 -0.5 -1.5s-0.5 -0.833008 -0.5 -1.5
c30.667 18 54.167 34.5 70.5 49.5s27.5 27.833 33.5 38.5v0zM301.003 430.999l-25 -73l-219 74l25 73l219 -74v0z" />
    <glyph glyph-name="eacute" unicode="&#xe9;" horiz-adv-x="342" 
d="M352 101l-32.9971 -99h-218c-18 0 -34.833 3.83301 -50.5 11.5s-27.834 19.5 -36.501 35.5c-4 7.33301 -7 15.333 -9 24s-3 17.334 -3 26.001c0 2 0.166992 4.16699 0.5 6.5s0.5 4.83301 0.5 7.5c1.33301 13.333 4.16602 26.833 8.49902 40.5s8.83301 26.167 13.5 37.5
c14 32 31.167 58.5 51.5 79.5s41.5 36.833 63.5 47.5c9.33301 5.33301 18.5 9.5 27.5 12.5s17.833 5.16699 26.5 6.5c4 0.666992 8 1.16699 12 1.5s8.33301 0.5 13 0.5c27.333 0 51.666 -7.66699 72.999 -23s32 -36.666 32 -63.999c0 -5.33301 -0.5 -10.833 -1.5 -16.5
s-2.83301 -11.834 -5.5 -18.501c-5.33301 -16.667 -16.333 -34.834 -33 -54.501s-40 -40.167 -70 -61.5h138v0zM221.003 242c-24 -1.33301 -45 -10.667 -63 -28s-31.333 -36.333 -40 -57c0 -0.666992 -0.166992 -1.16699 -0.5 -1.5s-0.5 -0.833008 -0.5 -1.5
c30.667 18 54.167 34.5 70.5 49.5s27.5 27.833 33.5 38.5v0zM396.003 433.999l-219 -74l-25 73l219 74l25 -73v0z" />
    <glyph glyph-name="ecircumflex" unicode="&#xea;" horiz-adv-x="342" 
d="M352 101l-32.9971 -99h-218c-18 0 -34.833 3.83301 -50.5 11.5s-27.834 19.5 -36.501 35.5c-4 7.33301 -7 15.333 -9 24s-3 17.334 -3 26.001c0 2 0.166992 4.16699 0.5 6.5s0.5 4.83301 0.5 7.5c1.33301 13.333 4.16602 26.833 8.49902 40.5s8.83301 26.167 13.5 37.5
c14 32 31.167 58.5 51.5 79.5s41.5 36.833 63.5 47.5c9.33301 5.33301 18.5 9.5 27.5 12.5s17.833 5.16699 26.5 6.5c4 0.666992 8 1.16699 12 1.5s8.33301 0.5 13 0.5c27.333 0 51.666 -7.66699 72.999 -23s32 -36.666 32 -63.999c0 -5.33301 -0.5 -10.833 -1.5 -16.5
s-2.83301 -11.834 -5.5 -18.501c-5.33301 -16.667 -16.333 -34.834 -33 -54.501s-40 -40.167 -70 -61.5h138v0zM221.003 242c-24 -1.33301 -45 -10.667 -63 -28s-31.333 -36.333 -40 -57c0 -0.666992 -0.166992 -1.16699 -0.5 -1.5s-0.5 -0.833008 -0.5 -1.5
c30.667 18 54.167 34.5 70.5 49.5s27.5 27.833 33.5 38.5v0zM368.003 393.999l-38 -67l-114 64l-115 -64l-38 67l153 85l152 -85v0z" />
    <glyph glyph-name="edieresis" unicode="&#xeb;" horiz-adv-x="342" 
d="M352 101l-32.9971 -99h-218c-18 0 -34.833 3.83301 -50.5 11.5s-27.834 19.5 -36.501 35.5c-4 7.33301 -7 15.333 -9 24s-3 17.334 -3 26.001c0 2 0.166992 4.16699 0.5 6.5s0.5 4.83301 0.5 7.5c1.33301 13.333 4.16602 26.833 8.49902 40.5s8.83301 26.167 13.5 37.5
c14 32 31.167 58.5 51.5 79.5s41.5 36.833 63.5 47.5c9.33301 5.33301 18.5 9.5 27.5 12.5s17.833 5.16699 26.5 6.5c4 0.666992 8 1.16699 12 1.5s8.33301 0.5 13 0.5c27.333 0 51.666 -7.66699 72.999 -23s32 -36.666 32 -63.999c0 -5.33301 -0.5 -10.833 -1.5 -16.5
s-2.83301 -11.834 -5.5 -18.501c-5.33301 -16.667 -16.333 -34.834 -33 -54.501s-40 -40.167 -70 -61.5h138v0zM221.003 242c-24 -1.33301 -45 -10.667 -63 -28s-31.333 -36.333 -40 -57c0 -0.666992 -0.166992 -1.16699 -0.5 -1.5s-0.5 -0.833008 -0.5 -1.5
c30.667 18 54.167 34.5 70.5 49.5s27.5 27.833 33.5 38.5v0zM205.003 435.999l-57 -92l-65 41l57 91l65 -40v0zM344.003 435.999l-56 -92l-66 41l56 91l66 -40v0z" />
    <glyph glyph-name="igrave" unicode="&#xec;" horiz-adv-x="198" 
d="M208 101l-32.002 -99h-90c-24.667 0 -44.667 8.16699 -60 24.5s-23 35.5 -23 57.5c0 2.66699 0.166992 5.16699 0.5 7.5s0.5 4.83301 0.5 7.5c0.666992 2 1.33398 4.16699 2.00098 6.5s1.33398 4.83301 2.00098 7.5l68 213h105l-72 -225h99v0zM176.998 421l-25 -73
l-219 74l25 73l219 -74v0z" />
    <glyph glyph-name="iacute" unicode="&#xed;" horiz-adv-x="198" 
d="M208 101l-32.002 -99h-90c-24.667 0 -44.667 8.16699 -60 24.5s-23 35.5 -23 57.5c0 2.66699 0.166992 5.16699 0.5 7.5s0.5 4.83301 0.5 7.5c0.666992 2 1.33398 4.16699 2.00098 6.5s1.33398 4.83301 2.00098 7.5l68 213h105l-72 -225h99v0zM335.998 418l-219 -74
l-25 73l219 74l25 -73v0z" />
    <glyph glyph-name="icircumflex" unicode="&#xee;" horiz-adv-x="198" 
d="M208 101l-32.002 -99h-90c-24.667 0 -44.667 8.16699 -60 24.5s-23 35.5 -23 57.5c0 2.66699 0.166992 5.16699 0.5 7.5s0.5 4.83301 0.5 7.5c0.666992 2 1.33398 4.16699 2.00098 6.5s1.33398 4.83301 2.00098 7.5l68 213h105l-72 -225h99v0zM283.998 388l-38 -67
l-114 64l-115 -64l-38 67l153 85l152 -85v0z" />
    <glyph glyph-name="idieresis" unicode="&#xef;" horiz-adv-x="198" 
d="M208 101l-32.002 -99h-90c-24.667 0 -44.667 8.16699 -60 24.5s-23 35.5 -23 57.5c0 2.66699 0.166992 5.16699 0.5 7.5s0.5 4.83301 0.5 7.5c0.666992 2 1.33398 4.16699 2.00098 6.5s1.33398 4.83301 2.00098 7.5l68 213h105l-72 -225h99v0zM132.998 438l-57 -92
l-65 41l57 91l65 -40v0zM271.998 438l-56 -92l-66 41l56 91l66 -40v0z" />
    <glyph glyph-name="eth" unicode="&#xf0;" horiz-adv-x="465" 
d="M502 498l-61.9941 -33.001c3.33301 -10.667 5.5 -21.834 6.5 -33.501s1.5 -23.5 1.5 -35.5c0 -5.33301 -0.166992 -10.833 -0.5 -16.5s-0.833008 -11.167 -1.5 -16.5l-2 -17.5l-2 -16.5c-2 -16 -5.33301 -32.833 -10 -50.5s-9.66699 -35.167 -15 -52.5
c-3.33301 -8.66699 -6.5 -17.5 -9.5 -26.5l-8.5 -26.5c-4.66699 -12 -9 -24 -13 -36l-12 -35h100l-32 -100h-90c-16.667 0 -31.334 4.16699 -44.001 12.5s-22.334 18.833 -29.001 31.5c-20.667 -13.333 -43 -24 -67 -32s-49.667 -12 -77 -12
c-40.667 -0.666992 -72.834 9.66602 -96.501 30.999s-35.5 48.333 -35.5 81c0 11.333 1.5 22.833 4.5 34.5s7.5 23.834 13.5 36.501c20.667 40 51.5 71 92.5 93s83.833 36.333 128.5 43c10 1.33301 20 2.33301 30 3s19.667 1 29 1c7.33301 0 14.166 -0.166992 20.499 -0.5
s12.833 -0.833008 19.5 -1.5c2.66699 12 4.66699 24.167 6 36.5s2 24.833 2 37.5v10.5c0 3.66699 -0.333008 7.16699 -1 10.5l-90 -46l-35 68l95 49c-4 2.66699 -8.5 4.5 -13.5 5.5s-10.167 1.5 -15.5 1.5c-2.66699 0 -5.16699 -0.166992 -7.5 -0.5s-4.5 -0.5 -6.5 -0.5
c-10.667 -2 -20.834 -5.16699 -30.501 -9.5s-17.5 -9.16602 -23.5 -14.499l-62 78c14.667 11.333 30.667 20.833 48 28.5s35.333 12.834 54 15.501c4.66699 0.666992 9.16699 1.16699 13.5 1.5s8.83301 0.5 13.5 0.5c23.333 0 45.666 -4.66699 66.999 -14
s39.333 -24.333 54 -45l58 29l35 -67v0zM307.006 225.999c-10.667 0 -22 -0.498047 -34 -1.49805s-24 -2.5 -36 -4.5c-26 -5.33301 -50.833 -14.333 -74.5 -27s-41.167 -30.334 -52.5 -53.001c-2.66699 -4.66699 -4.5 -8.83398 -5.5 -12.501s-1.5 -7.16699 -1.5 -10.5
c0 -5.33301 2.66699 -9.33301 8 -12s13.333 -4 24 -4c39.333 0.666992 73.5 13.5 102.5 38.5s52.167 53.833 69.5 86.5v0z" />
    <glyph glyph-name="ntilde" unicode="&#xf1;" horiz-adv-x="404" 
d="M406 101l-33.0029 -98.9971h-69c-24.667 0 -44.667 8 -60 24s-23 35.333 -23 58c0 4.66699 0.5 9.5 1.5 14.5s2.16699 9.83301 3.5 14.5l4 13.5l4 12.5l8 26l8 26c0.666992 1.33301 1.16699 2.66602 1.5 3.99902s0.5 2.66602 0.5 3.99902c1.33301 3.33301 2.5 7 3.5 11
s1.83301 8 2.5 12c-5.33301 -2 -11.666 -5.33301 -18.999 -10s-14.666 -10.334 -21.999 -17.001c-18.667 -16 -36.167 -35 -52.5 -57s-29.166 -44.667 -38.499 -68l-22 -68h-104l105 324h104l-7 -21c7.33301 4 14.833 7.5 22.5 10.5s15.5 5.16699 23.5 6.5
c4 1.33301 7.83301 2.16602 11.5 2.49902s7.5 0.5 11.5 0.5c5.33301 0 10.833 -0.5 16.5 -1.5s10.834 -2.5 15.501 -4.5c19.333 -6.66699 33.333 -18.334 42 -35.001s13 -34.667 13 -54c0 -10 -1.16699 -20.833 -3.5 -32.5s-5.83301 -24.167 -10.5 -37.5
c-2 -4.66699 -3.66699 -9.5 -5 -14.5l-4 -14.5c-0.666992 -2 -1.33398 -3.83301 -2.00098 -5.5s-1 -3.16699 -1 -4.5c-1.33301 -3.33301 -2.33301 -6.66602 -3 -9.99902s-1.66699 -6.66602 -3 -9.99902h80v0zM411.997 411.003c-12 -20.667 -28 -36.5 -48 -47.5
s-41.333 -16.5 -64 -16.5c-10.667 0 -21.167 1.33301 -31.5 4s-20.166 6.66699 -29.499 12c-4 2 -8 3.5 -12 4.5s-8 1.5 -12 1.5c-8.66699 0 -17 -2.16699 -25 -6.5s-14.667 -10.5 -20 -18.5l-67 38c12 20.667 28 36.5 48 47.5s41.333 16.5 64 16.5
c10.667 0 21.167 -1.33301 31.5 -4s20.166 -6.66699 29.499 -12c4 -2 8 -3.5 12 -4.5s8 -1.5 12 -1.5c9.33301 0 18 2.16699 26 6.5s14.333 10.833 19 19.5l67 -39v0z" />
    <glyph glyph-name="ograve" unicode="&#xf2;" horiz-adv-x="351" 
d="M400 248l-33.002 -102.001h-48c-8.66699 -38.667 -29.167 -72.334 -61.5 -101.001s-69.166 -43 -110.499 -43h-5.5c-1.66699 0 -3.5 0.333008 -5.5 1c-2 0 -3.83301 0.166992 -5.5 0.5s-3.5 0.5 -5.5 0.5c-36.667 5.33301 -66.167 21.833 -88.5 49.5
s-33.5 59.834 -33.5 96.501c0 47.333 17.333 89.5 52 126.5s76.334 55.5 125.001 55.5c29.333 0 55.5 -7.66699 78.5 -23s40.167 -35.666 51.5 -60.999h90v0zM211.998 147.999c-17.333 3.33301 -32.168 11.667 -44.501 25s-19.5 29.333 -21.5 48
c-10.667 -6.66699 -19.667 -15.5 -27 -26.5s-12 -22.5 -14 -34.5v-2.5v-2.5c-0.666992 -0.666992 -1 -1.5 -1 -2.5v-2.5c0.666992 -12 4.5 -22.667 11.5 -32s17.5 -14 31.5 -14c13.333 0 25.833 4.33301 37.5 13s20.834 19 27.501 31v0zM298.996 417l-25 -73l-219 74l25 73
l219 -74v0z" />
    <glyph glyph-name="oacute" unicode="&#xf3;" horiz-adv-x="351" 
d="M400 248l-33.002 -102.001h-48c-8.66699 -38.667 -29.167 -72.334 -61.5 -101.001s-69.166 -43 -110.499 -43h-5.5c-1.66699 0 -3.5 0.333008 -5.5 1c-2 0 -3.83301 0.166992 -5.5 0.5s-3.5 0.5 -5.5 0.5c-36.667 5.33301 -66.167 21.833 -88.5 49.5
s-33.5 59.834 -33.5 96.501c0 47.333 17.333 89.5 52 126.5s76.334 55.5 125.001 55.5c29.333 0 55.5 -7.66699 78.5 -23s40.167 -35.666 51.5 -60.999h90v0zM211.998 147.999c-17.333 3.33301 -32.168 11.667 -44.501 25s-19.5 29.333 -21.5 48
c-10.667 -6.66699 -19.667 -15.5 -27 -26.5s-12 -22.5 -14 -34.5v-2.5v-2.5c-0.666992 -0.666992 -1 -1.5 -1 -2.5v-2.5c0.666992 -12 4.5 -22.667 11.5 -32s17.5 -14 31.5 -14c13.333 0 25.833 4.33301 37.5 13s20.834 19 27.501 31v0zM403.996 430l-219 -74l-25 73l219 74
l25 -73v0z" />
    <glyph glyph-name="ocircumflex" unicode="&#xf4;" horiz-adv-x="351" 
d="M400 248l-33.002 -102.001h-48c-8.66699 -38.667 -29.167 -72.334 -61.5 -101.001s-69.166 -43 -110.499 -43h-5.5c-1.66699 0 -3.5 0.333008 -5.5 1c-2 0 -3.83301 0.166992 -5.5 0.5s-3.5 0.5 -5.5 0.5c-36.667 5.33301 -66.167 21.833 -88.5 49.5
s-33.5 59.834 -33.5 96.501c0 47.333 17.333 89.5 52 126.5s76.334 55.5 125.001 55.5c29.333 0 55.5 -7.66699 78.5 -23s40.167 -35.666 51.5 -60.999h90v0zM211.998 147.999c-17.333 3.33301 -32.168 11.667 -44.501 25s-19.5 29.333 -21.5 48
c-10.667 -6.66699 -19.667 -15.5 -27 -26.5s-12 -22.5 -14 -34.5v-2.5v-2.5c-0.666992 -0.666992 -1 -1.5 -1 -2.5v-2.5c0.666992 -12 4.5 -22.667 11.5 -32s17.5 -14 31.5 -14c13.333 0 25.833 4.33301 37.5 13s20.834 19 27.501 31v0zM327.996 390l-38 -67l-114 64
l-115 -64l-38 67l153 85l152 -85v0z" />
    <glyph glyph-name="otilde" unicode="&#xf5;" horiz-adv-x="351" 
d="M400 248l-33.002 -102.001h-48c-8.66699 -38.667 -29.167 -72.334 -61.5 -101.001s-69.166 -43 -110.499 -43h-5.5c-1.66699 0 -3.5 0.333008 -5.5 1c-2 0 -3.83301 0.166992 -5.5 0.5s-3.5 0.5 -5.5 0.5c-36.667 5.33301 -66.167 21.833 -88.5 49.5
s-33.5 59.834 -33.5 96.501c0 47.333 17.333 89.5 52 126.5s76.334 55.5 125.001 55.5c29.333 0 55.5 -7.66699 78.5 -23s40.167 -35.666 51.5 -60.999h90v0zM211.998 147.999c-17.333 3.33301 -32.168 11.667 -44.501 25s-19.5 29.333 -21.5 48
c-10.667 -6.66699 -19.667 -15.5 -27 -26.5s-12 -22.5 -14 -34.5v-2.5v-2.5c-0.666992 -0.666992 -1 -1.5 -1 -2.5v-2.5c0.666992 -12 4.5 -22.667 11.5 -32s17.5 -14 31.5 -14c13.333 0 25.833 4.33301 37.5 13s20.834 19 27.501 31v0zM351.996 413
c-12 -20.667 -28 -36.5 -48 -47.5s-41.333 -16.5 -64 -16.5c-10.667 0 -21.167 1.33301 -31.5 4s-20.166 6.66699 -29.499 12c-4 2 -8 3.5 -12 4.5s-8 1.5 -12 1.5c-8.66699 0 -17 -2.16699 -25 -6.5s-14.667 -10.5 -20 -18.5l-67 38c12 20.667 28 36.5 48 47.5
s41.333 16.5 64 16.5c10.667 0 21.167 -1.33301 31.5 -4s20.166 -6.66699 29.499 -12c4 -2 8 -3.5 12 -4.5s8 -1.5 12 -1.5c9.33301 0 18 2.16699 26 6.5s14.333 10.833 19 19.5l67 -39v0z" />
    <glyph glyph-name="odieresis" unicode="&#xf6;" horiz-adv-x="351" 
d="M400 248l-33.002 -102.001h-48c-8.66699 -38.667 -29.167 -72.334 -61.5 -101.001s-69.166 -43 -110.499 -43h-5.5c-1.66699 0 -3.5 0.333008 -5.5 1c-2 0 -3.83301 0.166992 -5.5 0.5s-3.5 0.5 -5.5 0.5c-36.667 5.33301 -66.167 21.833 -88.5 49.5
s-33.5 59.834 -33.5 96.501c0 47.333 17.333 89.5 52 126.5s76.334 55.5 125.001 55.5c29.333 0 55.5 -7.66699 78.5 -23s40.167 -35.666 51.5 -60.999h90v0zM211.998 147.999c-17.333 3.33301 -32.168 11.667 -44.501 25s-19.5 29.333 -21.5 48
c-10.667 -6.66699 -19.667 -15.5 -27 -26.5s-12 -22.5 -14 -34.5v-2.5v-2.5c-0.666992 -0.666992 -1 -1.5 -1 -2.5v-2.5c0.666992 -12 4.5 -22.667 11.5 -32s17.5 -14 31.5 -14c13.333 0 25.833 4.33301 37.5 13s20.834 19 27.501 31v0zM172.996 430l-57 -92l-65 41l57 91
l65 -40v0zM311.996 430l-56 -92l-66 41l56 91l66 -40v0z" />
    <glyph glyph-name="divide" unicode="&#xf7;" horiz-adv-x="500" 
 />
    <glyph glyph-name="oslash" unicode="&#xf8;" horiz-adv-x="344" 
d="M399 248l-32 -101.999h-49c-8.66699 -38.667 -29.167 -72.334 -61.5 -101.001s-69.166 -43 -110.499 -43c-3.33301 0 -6.83301 0.166992 -10.5 0.5s-7.16699 0.833008 -10.5 1.5c-1.33301 0 -2.66602 0.166992 -3.99902 0.5s-2.66602 0.5 -3.99902 0.5
c-2.66699 0.666992 -5.33398 1.5 -8.00098 2.5s-5.33398 1.83301 -8.00098 2.5l-45 -71h-56l58 93c-17.333 13.333 -31 30.333 -41 51s-15 43 -15 67c0 47.333 17.5 89.5 52.5 126.5s76.5 55.5 124.5 55.5c11.333 0 22 -1 32 -3s19.333 -5 28 -9l44 70h56l-61 -97
c6.66699 -6.66699 12.667 -13.667 18 -21s9.66602 -15.333 12.999 -24h90v0zM212 148.001c-3.33301 1.33301 -6.66797 2.5 -10.001 3.5s-6.66602 2.16699 -9.99902 3.5l-32 -50c11.333 3.33301 21.5 8.83301 30.5 16.5s16.167 16.5 21.5 26.5v0zM155.998 188.001
c-2.66699 5.33301 -4.83203 10.667 -6.49902 16s-2.83398 11 -3.50098 17c-10.667 -6.66699 -19.834 -15.5 -27.501 -26.5s-12.167 -22.5 -13.5 -34.5c-0.666992 -2 -1 -4 -1 -6v-6c0 -5.33301 0.833008 -10.5 2.5 -15.5s3.83398 -9.16699 6.50098 -12.5l43 68v0z" />
    <glyph glyph-name="ugrave" unicode="&#xf9;" horiz-adv-x="338" 
d="M348 101l-33.001 -98.9941h-14.5h-15.5c-14.667 0 -28.834 2.66699 -42.501 8s-25.834 12.666 -36.501 21.999c-13.333 -9.33301 -27.833 -16.666 -43.5 -21.999s-31.5 -8 -47.5 -8c-3.33301 0 -6.5 0.166992 -9.5 0.5s-6.16699 0.833008 -9.5 1.5
c-3.33301 0 -6.5 0.5 -9.5 1.5s-6.16699 1.83301 -9.5 2.5c-24 8 -42.167 21.667 -54.5 41s-18.166 40.333 -17.499 63c0 3.33301 0.166992 6.66602 0.5 9.99902s0.833008 6.66602 1.5 9.99902c0 3.33301 0.5 6.66602 1.5 9.99902s1.83301 6.66602 2.5 9.99902l56 174h104
l-66 -205c-0.666992 -2 -1.16699 -4 -1.5 -6s-0.5 -3.66699 -0.5 -5c0 -2.66699 0.833008 -4.83398 2.5 -6.50098s4.83398 -2.5 9.50098 -2.5c2 0 4 0.166992 6 0.5s4 0.833008 6 1.5c11.333 2.66699 22 8.5 32 17.5s16.667 18.5 20 28.5
c0 0.666992 0.166992 1.16699 0.5 1.5s0.5 0.833008 0.5 1.5l57 174h103l-65 -205c-0.666992 -2 -1.16699 -4 -1.5 -6s-0.5 -3.66699 -0.5 -5c0 -2.66699 0.833008 -4.83398 2.5 -6.50098s4.83398 -2.5 9.50098 -2.5h63v0zM312.999 419.006l-25 -73l-219 74l25 73l219 -74v0
z" />
    <glyph glyph-name="uacute" unicode="&#xfa;" horiz-adv-x="338" 
d="M348 101l-33.001 -98.9941h-14.5h-15.5c-14.667 0 -28.834 2.66699 -42.501 8s-25.834 12.666 -36.501 21.999c-13.333 -9.33301 -27.833 -16.666 -43.5 -21.999s-31.5 -8 -47.5 -8c-3.33301 0 -6.5 0.166992 -9.5 0.5s-6.16699 0.833008 -9.5 1.5
c-3.33301 0 -6.5 0.5 -9.5 1.5s-6.16699 1.83301 -9.5 2.5c-24 8 -42.167 21.667 -54.5 41s-18.166 40.333 -17.499 63c0 3.33301 0.166992 6.66602 0.5 9.99902s0.833008 6.66602 1.5 9.99902c0 3.33301 0.5 6.66602 1.5 9.99902s1.83301 6.66602 2.5 9.99902l56 174h104
l-66 -205c-0.666992 -2 -1.16699 -4 -1.5 -6s-0.5 -3.66699 -0.5 -5c0 -2.66699 0.833008 -4.83398 2.5 -6.50098s4.83398 -2.5 9.50098 -2.5c2 0 4 0.166992 6 0.5s4 0.833008 6 1.5c11.333 2.66699 22 8.5 32 17.5s16.667 18.5 20 28.5
c0 0.666992 0.166992 1.16699 0.5 1.5s0.5 0.833008 0.5 1.5l57 174h103l-65 -205c-0.666992 -2 -1.16699 -4 -1.5 -6s-0.5 -3.66699 -0.5 -5c0 -2.66699 0.833008 -4.83398 2.5 -6.50098s4.83398 -2.5 9.50098 -2.5h63v0zM419.999 428.006l-219 -74l-25 73l219 74l25 -73v0
z" />
    <glyph glyph-name="ucircumflex" unicode="&#xfb;" horiz-adv-x="338" 
d="M348 101l-33.001 -98.9941h-14.5h-15.5c-14.667 0 -28.834 2.66699 -42.501 8s-25.834 12.666 -36.501 21.999c-13.333 -9.33301 -27.833 -16.666 -43.5 -21.999s-31.5 -8 -47.5 -8c-3.33301 0 -6.5 0.166992 -9.5 0.5s-6.16699 0.833008 -9.5 1.5
c-3.33301 0 -6.5 0.5 -9.5 1.5s-6.16699 1.83301 -9.5 2.5c-24 8 -42.167 21.667 -54.5 41s-18.166 40.333 -17.499 63c0 3.33301 0.166992 6.66602 0.5 9.99902s0.833008 6.66602 1.5 9.99902c0 3.33301 0.5 6.66602 1.5 9.99902s1.83301 6.66602 2.5 9.99902l56 174h104
l-66 -205c-0.666992 -2 -1.16699 -4 -1.5 -6s-0.5 -3.66699 -0.5 -5c0 -2.66699 0.833008 -4.83398 2.5 -6.50098s4.83398 -2.5 9.50098 -2.5c2 0 4 0.166992 6 0.5s4 0.833008 6 1.5c11.333 2.66699 22 8.5 32 17.5s16.667 18.5 20 28.5
c0 0.666992 0.166992 1.16699 0.5 1.5s0.5 0.833008 0.5 1.5l57 174h103l-65 -205c-0.666992 -2 -1.16699 -4 -1.5 -6s-0.5 -3.66699 -0.5 -5c0 -2.66699 0.833008 -4.83398 2.5 -6.50098s4.83398 -2.5 9.50098 -2.5h63v0zM359.999 406.006l-38 -67l-114 64l-115 -64l-38 67
l153 85l152 -85v0z" />
    <glyph glyph-name="udieresis" unicode="&#xfc;" horiz-adv-x="338" 
d="M348 101l-33.001 -98.9941h-14.5h-15.5c-14.667 0 -28.834 2.66699 -42.501 8s-25.834 12.666 -36.501 21.999c-13.333 -9.33301 -27.833 -16.666 -43.5 -21.999s-31.5 -8 -47.5 -8c-3.33301 0 -6.5 0.166992 -9.5 0.5s-6.16699 0.833008 -9.5 1.5
c-3.33301 0 -6.5 0.5 -9.5 1.5s-6.16699 1.83301 -9.5 2.5c-24 8 -42.167 21.667 -54.5 41s-18.166 40.333 -17.499 63c0 3.33301 0.166992 6.66602 0.5 9.99902s0.833008 6.66602 1.5 9.99902c0 3.33301 0.5 6.66602 1.5 9.99902s1.83301 6.66602 2.5 9.99902l56 174h104
l-66 -205c-0.666992 -2 -1.16699 -4 -1.5 -6s-0.5 -3.66699 -0.5 -5c0 -2.66699 0.833008 -4.83398 2.5 -6.50098s4.83398 -2.5 9.50098 -2.5c2 0 4 0.166992 6 0.5s4 0.833008 6 1.5c11.333 2.66699 22 8.5 32 17.5s16.667 18.5 20 28.5
c0 0.666992 0.166992 1.16699 0.5 1.5s0.5 0.833008 0.5 1.5l57 174h103l-65 -205c-0.666992 -2 -1.16699 -4 -1.5 -6s-0.5 -3.66699 -0.5 -5c0 -2.66699 0.833008 -4.83398 2.5 -6.50098s4.83398 -2.5 9.50098 -2.5h63v0zM212.999 430.006l-57 -92l-65 41l57 91l65 -40v0z
M351.999 430.006l-56 -92l-66 41l56 91l66 -40v0z" />
    <glyph glyph-name="yacute" unicode="&#xfd;" 
 />
    <glyph glyph-name="thorn" unicode="&#xfe;" horiz-adv-x="464" 
d="M475 102l-32 -100h-281l32 100h41c4.66699 0 9.16699 0.333008 13.5 1s8.83301 2 13.5 4c20 6.66699 38.167 18.5 54.5 35.5s24.5 35.5 24.5 55.5c0 10 -3.33301 17.167 -10 21.5s-14.667 6.5 -24 6.5c-14.667 0 -31.167 -6.33301 -49.5 -19s-37.166 -30 -56.499 -52
c-19.333 -22.667 -38 -48.834 -56 -78.501s-32.667 -61.5 -44 -95.5l-55 -170h-104l65 201l44 134.5l44 133.5c6 20.667 10.833 39.834 14.5 57.501s5.83398 35.167 6.50098 52.5v6.5v6.5c0 15.333 -1 30.666 -3 45.999s-4.66699 31.333 -8 48l97 21
c4 -17.333 7 -33.833 9 -49.5s3.33301 -31.167 4 -46.5v-8.5v-9.5c0 -18.667 -1.33301 -37.667 -4 -57s-6.66699 -39.666 -12 -60.999c17.333 11.333 35.166 20.666 53.499 27.999s37.5 11 57.5 11c7.33301 0 14.666 -0.5 21.999 -1.5s14.666 -2.83301 21.999 -5.5
c26.667 -8.66699 47.667 -24 63 -46s23 -46.667 23 -74c0 -17.333 -2.66699 -34.166 -8 -50.499s-12.666 -31.5 -21.999 -45.5h65v0z" />
    <glyph glyph-name="ydieresis" unicode="&#xff;" horiz-adv-x="325" 
d="M369 326c-2.66699 -6.66699 -5.66699 -13.5 -9 -20.5l-10 -20.5l-23.5 -52c-9 -19.333 -18.833 -38.666 -29.5 -57.999c-2.66699 -6 -5.66699 -11.833 -9 -17.5l-10 -16.5c0 -18 -0.333008 -36.167 -1 -54.5s-2 -36.833 -4 -55.5
c-8.66699 -72.667 -30.667 -140.834 -66 -204.501s-92 -105.5 -170 -125.5l-24 95c51.333 13.333 88.833 41.833 112.5 85.5s39.167 90.167 46.5 139.5c-10 -6 -20.167 -10.5 -30.5 -13.5s-21.166 -4.5 -32.499 -4.5c-32.667 0 -58.834 10.833 -78.501 32.5
s-29.5 47.167 -29.5 76.5c0 6.66699 0.666992 13.5 2 20.5s3 13.833 5 20.5l28.5 86.5c9.66699 29 18.834 57.833 27.501 86.5h104l-32.5 -102l-33.5 -102c0 -0.666992 -0.166992 -1.33398 -0.5 -2.00098s-0.5 -1.33398 -0.5 -2.00098
c0 -1.33301 -0.166992 -2.66602 -0.5 -3.99902s-0.5 -2.66602 -0.5 -3.99902c0 -2.66699 0.666992 -4.66699 2 -6s3.66602 -2 6.99902 -2c8 0 16.333 3.33301 25 10s17.667 15.667 27 27c10 13.333 19.833 28.5 29.5 45.5s18.834 34.5 27.501 52.5l23 46.5
c7.33301 15 13.666 28.833 18.999 41.5v0v1h109v0zM221 428l-57 -92l-65 41l57 91l65 -40v0zM360 428l-56 -92l-66 41l56 91l66 -40v0z" />
    <glyph glyph-name="Abreve" unicode="&#x102;" 
 />
    <glyph glyph-name="abreve" unicode="&#x103;" 
 />
    <glyph glyph-name="Aogonek" unicode="&#x104;" 
 />
    <glyph glyph-name="aogonek" unicode="&#x105;" 
 />
    <glyph glyph-name="Cacute" unicode="&#x106;" 
 />
    <glyph glyph-name="cacute" unicode="&#x107;" 
 />
    <glyph glyph-name="Ccaron" unicode="&#x10c;" 
 />
    <glyph glyph-name="ccaron" unicode="&#x10d;" 
 />
    <glyph glyph-name="Dcaron" unicode="&#x10e;" 
 />
    <glyph glyph-name="dcaron" unicode="&#x10f;" 
 />
    <glyph glyph-name="Dslash" unicode="&#x110;" 
 />
    <glyph glyph-name="dslash" unicode="&#x111;" 
 />
    <glyph glyph-name="Eogonek" unicode="&#x118;" 
 />
    <glyph glyph-name="eogonek" unicode="&#x119;" 
 />
    <glyph glyph-name="Ecaron" unicode="&#x11a;" 
 />
    <glyph glyph-name="ecaron" unicode="&#x11b;" 
 />
    <glyph glyph-name="Gbreve" unicode="&#x11e;" 
 />
    <glyph glyph-name="gbreve" unicode="&#x11f;" 
 />
    <glyph glyph-name="Idotaccent" unicode="&#x130;" 
 />
    <glyph glyph-name="dotlessi" unicode="&#x131;" horiz-adv-x="198" 
d="M208 101l-32.002 -99h-90c-24.667 0 -44.667 8.16699 -60 24.5s-23 35.5 -23 57.5c0 2.66699 0.166992 5.16699 0.5 7.5s0.5 4.83301 0.5 7.5c0.666992 2 1.33398 4.16699 2.00098 6.5s1.33398 4.83301 2.00098 7.5l68 213h105l-72 -225h99v0z" />
    <glyph glyph-name="Lacute" unicode="&#x139;" 
 />
    <glyph glyph-name="lacute" unicode="&#x13a;" 
 />
    <glyph glyph-name="Lcaron" unicode="&#x13d;" 
 />
    <glyph glyph-name="lcaron" unicode="&#x13e;" 
 />
    <glyph glyph-name="Ldot" unicode="&#x13f;" 
 />
    <glyph glyph-name="ldot" unicode="&#x140;" 
 />
    <glyph glyph-name="Lslash" unicode="&#x141;" horiz-adv-x="500" 
 />
    <glyph glyph-name="lslash" unicode="&#x142;" horiz-adv-x="500" 
 />
    <glyph glyph-name="Nacute" unicode="&#x143;" 
 />
    <glyph glyph-name="nacute" unicode="&#x144;" 
 />
    <glyph glyph-name="Ncaron" unicode="&#x147;" 
 />
    <glyph glyph-name="ncaron" unicode="&#x148;" 
 />
    <glyph glyph-name="Odblacute" unicode="&#x150;" 
 />
    <glyph glyph-name="odblacute" unicode="&#x151;" 
 />
    <glyph glyph-name="OE" unicode="&#x152;" horiz-adv-x="863" 
d="M920 539c2 -6 3.49316 -11.832 4.49316 -17.499s1.5 -11.167 1.5 -16.5c0 -29.333 -11.167 -56.666 -33.5 -81.999s-46.833 -48.333 -73.5 -69c-14 -10.667 -27.833 -20.667 -41.5 -30l-35.5 -25l-59 78c2 1.33301 10.167 7.16602 24.5 17.499s29.833 22.166 46.5 35.499
l9.5 7.5l8.5 6.5c14.667 12 27.334 23.5 38.001 34.5s16 19.5 16 25.5c0 1.33301 -0.166992 2.5 -0.5 3.5s-1.16602 1.83301 -2.49902 2.5c-5.33301 3.33301 -11.166 5.83301 -17.499 7.5s-13.166 2.5 -20.499 2.5c-4.66699 0 -9.5 -0.333008 -14.5 -1
s-10.167 -1.66699 -15.5 -3c-10 -2 -20 -4.66699 -30 -8s-19.333 -6.66602 -28 -9.99902l-11.5 -6c-3.66699 -2 -7.16699 -3.66699 -10.5 -5c-29.333 -14.667 -51.166 -28.167 -65.499 -40.5s-23.166 -24.166 -26.499 -35.499
c-1.33301 -2.66699 -2.16602 -5.33398 -2.49902 -8.00098s-0.5 -5.33398 -0.5 -8.00098c0 -18 7.66699 -37.833 23 -59.5s32.333 -48.5 51 -80.5l-34 -25.5l-34 -25.5l-68 -50.5l-68 -51.5h413l-33 -100h-190.5h-191.5c-16.667 0 -32 2.33301 -46 7s-25.667 10.667 -35 18
c-18.667 -8 -38.167 -14 -58.5 -18s-40.833 -6 -61.5 -6c-35.333 0 -69.5 7.16699 -102.5 21.5s-62.167 36.833 -87.5 67.5c-18.667 24 -32.5 49.667 -41.5 77s-13.5 55 -13.5 83v4v4c1.33301 46.667 13.166 92 35.499 136s50.833 81.667 85.5 113
c27.333 24 57.833 43.167 91.5 57.5s67.834 22.833 102.501 25.5c3.33301 0.666992 7 1 11 1h11c35.333 0 69.5 -7 102.5 -21s61.833 -36.667 86.5 -68c0.666992 0 1 -0.166992 1 -0.5v-1.5c22 24 48.667 45.167 80 63.5s63.666 31.833 96.999 40.5
c13.333 3.33301 26.5 6 39.5 8s25.833 3 38.5 3c17.333 0 33.833 -2 49.5 -6s29.834 -10 42.501 -18c10.667 -6.66699 19.667 -14.5 27 -23.5s13 -19.167 17 -30.5v0zM450.993 226.001c10 17.333 17.9951 35.998 23.9951 55.998s9 40.333 9 61c0 18 -2.66699 35.333 -8 52
s-13.666 32.334 -24.999 47.001c-14.667 18.667 -31.667 32 -51 40s-39.666 12 -60.999 12h-9c-3.33301 0 -6.33301 -0.333008 -9 -1c-24 -2 -47.5 -8.33301 -70.5 -19s-43.5 -23.667 -61.5 -39c-22 -19.333 -41.167 -43.666 -57.5 -72.999s-26.166 -60 -29.499 -92
c0 -2.66699 -0.166992 -5.66699 -0.5 -9s-0.5 -6.66602 -0.5 -9.99902c0.666992 -16.667 3.5 -33.334 8.5 -50.001s13.5 -32.334 25.5 -47.001c15.333 -18.667 33 -32.167 53 -40.5s40.333 -12.166 61 -11.499h8c2.66699 0 5.66699 0.333008 9 1
c13.333 1.33301 26.833 4 40.5 8s26.5 9 38.5 15c4.66699 10 10.834 19.667 18.501 29s16.834 18.333 27.501 27l30 22l30 22v0z" />
    <glyph glyph-name="oe" unicode="&#x153;" horiz-adv-x="542" 
d="M552 101l-32.001 -99.001h-207c-13.333 0 -26.333 2.33301 -39 7s-23.667 11.334 -33 20.001c-13.333 -8.66699 -27.666 -15.334 -42.999 -20.001s-31 -7 -47 -7h-6c-2 0 -3.66699 0.333008 -5 1c-2 0 -4 0.166992 -6 0.5s-4 0.5 -6 0.5
c-37.333 5.33301 -67.5 22.333 -90.5 51s-34.5 61.334 -34.5 98.001c0 48 17.833 91 53.5 129s78.167 57 127.5 57c23.333 0 45 -5 65 -15s36.333 -23.333 49 -40c8.66699 8 17.5 15.333 26.5 22s18.167 12.334 27.5 17.001c9.33301 4 18.5 7.5 27.5 10.5
s17.833 5.16699 26.5 6.5c4.66699 1.33301 9.16699 2 13.5 2h12.5c27.333 0 51.5 -7.83301 72.5 -23.5s31.167 -37.167 30.5 -64.5c0 -5.33301 -0.5 -11 -1.5 -17s-2.5 -12.333 -4.5 -19c-5.33301 -16 -16.333 -33.833 -33 -53.5s-40 -40.834 -70 -63.501h126v0z
M216.999 150.999c-18 4 -33.332 12.8311 -45.999 26.498s-20 29.834 -22 48.501c-10.667 -6.66699 -19.834 -15.667 -27.501 -27s-12.167 -23.333 -13.5 -36c0 -0.666992 -0.166992 -1.5 -0.5 -2.5s-0.5 -1.83301 -0.5 -2.5v-3v-3c0 -12 3.66699 -22.667 11 -32
s18 -14 32 -14s27 4.33301 39 13s21.333 19.334 28 32.001v0zM433 243.997c-24 -0.666992 -44.999 -9.83301 -62.999 -27.5s-31.667 -37.167 -41 -58.5c0 -0.666992 -0.166992 -1.16699 -0.5 -1.5s-0.5 -0.833008 -0.5 -1.5c31.333 18.667 55.166 35.5 71.499 50.5
s27.5 27.833 33.5 38.5v0z" />
    <glyph glyph-name="Racute" unicode="&#x154;" 
 />
    <glyph glyph-name="racute" unicode="&#x155;" 
 />
    <glyph glyph-name="Rcaron" unicode="&#x158;" 
 />
    <glyph glyph-name="rcaron" unicode="&#x159;" 
 />
    <glyph glyph-name="Sacute" unicode="&#x15a;" 
 />
    <glyph glyph-name="sacute" unicode="&#x15b;" 
 />
    <glyph glyph-name="Scedilla" unicode="&#x15e;" 
 />
    <glyph glyph-name="scedilla" unicode="&#x15f;" 
 />
    <glyph glyph-name="Scaron" unicode="&#x160;" horiz-adv-x="525" 
d="M591 568c5.33301 -8 8.99609 -16.5 10.9961 -25.5s3 -18.167 3 -27.5c0 -2.66699 -0.166992 -5.66699 -0.5 -9s-0.5 -6.33301 -0.5 -9c-2.66699 -16.667 -7.66699 -33 -15 -49s-15.333 -30.333 -24 -43l-45.5 -63.5l-45.5 -63.5l-81 57l45.5 64l45.5 63
c2.66699 3.33301 5 6.83301 7 10.5l6 11.5c2 4.66699 3.83301 9.5 5.5 14.5s2.83398 9.5 3.50098 13.5c-6.66699 0.666992 -15.167 -0.166016 -25.5 -2.49902s-23.166 -6.5 -38.499 -12.5l-27.5 -10.5c-9.66699 -3.66699 -19.5 -7.83398 -29.5 -12.501
c-7.33301 -3.33301 -14.5 -6.83301 -21.5 -10.5s-13.833 -7.5 -20.5 -11.5l-14 -9.5c-5.33301 -3.66699 -10.666 -7.83398 -15.999 -12.501c-9.33301 -7.33301 -17.833 -15.666 -25.5 -24.999s-12.5 -18.666 -14.5 -27.999c-0.666992 -2 -1 -3.66699 -1 -5v-4
c0 -4 0.833008 -8 2.5 -12s4.16699 -8 7.5 -12l64.5 -70.5l64.5 -70.5c6.66699 -6.66699 11.5 -14.334 14.5 -23.001s5.16699 -17.667 6.5 -27v-4.5v-4.5c0 -10 -1 -19.667 -3 -29s-5 -18.333 -9 -27c-10.667 -25.333 -27.167 -45.833 -49.5 -61.5
s-47.833 -23.5 -76.5 -23.5h-293l32 99h130.5h130.5c10 0 18.833 4 26.5 12s11.834 17 12.501 27l-30.5 34l-31.5 34l-31.5 34l-31.5 34c-12.667 13.333 -21.834 28.166 -27.501 44.499s-8.5 32.833 -8.5 49.5c1.33301 43.333 18.5 80.5 51.5 111.5
s69.167 56.167 108.5 75.5c13.333 6.66699 26.333 12.667 39 18l37 15c12 4.66699 25.333 8.83398 40 12.501s29.334 6.16699 44.001 7.5h6.5h6.5c17.333 0 33.5 -3.16699 48.5 -9.5s27.5 -17.5 37.5 -33.5v0zM667.996 707l-152 -84l-153 84l38 67l115 -64l114 64l38 -67v0z
" />
    <glyph glyph-name="scaron" unicode="&#x161;" horiz-adv-x="258" 
d="M251 153c0 -44.667 -13.666 -80.9961 -40.999 -108.996s-63.666 -42 -108.999 -42h-101l32 99h69c17.333 0 30.166 4.16699 38.499 12.5s12.5 21.5 12.5 39.5c0 9.33301 -1 18.166 -3 26.499s-4.66699 15.833 -8 22.5l-32.5 -44.5c-9 -12.333 -13.5 -18.833 -13.5 -19.5
l-80 58l21.5 30l48.5 66l47 66c14.667 20 22 30.333 22 31l89 -44c-0.666992 -0.666992 -4.66699 -6.33398 -12 -17.001l-28 -39c15.333 -18.667 27.166 -39.834 35.499 -63.501s12.5 -47.834 12.5 -72.501v0zM353.001 473.004l-152 -84l-153 84l38 67l115 -64l114 64
l38 -67v0z" />
    <glyph glyph-name="Tcedilla" unicode="&#x162;" 
 />
    <glyph glyph-name="tcedilla" unicode="&#x163;" 
 />
    <glyph glyph-name="Tcaron" unicode="&#x164;" 
 />
    <glyph glyph-name="tcaron" unicode="&#x165;" 
 />
    <glyph glyph-name="Uring" unicode="&#x16e;" 
 />
    <glyph glyph-name="uring" unicode="&#x16f;" 
 />
    <glyph glyph-name="udblacute" unicode="&#x170;" 
 />
    <glyph glyph-name="Udblacute" unicode="&#x171;" 
 />
    <glyph glyph-name="Ydieresis" unicode="&#x178;" horiz-adv-x="454" 
d="M567 594l-53.999 -105l-51 -107c-1.33301 -3.33301 -2.83301 -6.66602 -4.5 -9.99902s-3.5 -6.33301 -5.5 -9l-2 -4l-2 -4c-3.33301 -6.66699 -6.5 -13.334 -9.5 -20.001s-5.83301 -13.667 -8.5 -21c-6.66699 -21.333 -18.167 -60.5 -34.5 -117.5
s-35.5 -117.167 -57.5 -180.5l-14 -40c-4.66699 -13.333 -9.66699 -26.333 -15 -39c-14.667 -36.667 -29.667 -71.5 -45 -104.5s-31 -61.5 -47 -85.5c-3.33301 -5.33301 -7 -10.666 -11 -15.999s-8 -10.333 -12 -15l-74 64c10 12 20.333 27.833 31 47.5
s21.667 41.834 33 66.501l16 38.5l16 40.5c4.66699 10.667 9.16699 21.667 13.5 33s8.16602 22.666 11.499 33.999c-16.667 -12 -34.334 -21.167 -53.001 -27.5s-38.667 -9.5 -60 -9.5c-47.333 0 -79.5 13.667 -96.5 41s-25.5 60.333 -25.5 99c0 10.667 0.5 21.667 1.5 33
s2.5 22.333 4.5 33c2.66699 18 6 35.667 10 53l12 50l11 36l9 30c1.33301 2.66699 3.33301 8.66699 6 18l9 32c0.666992 2 1.33398 4.16699 2.00098 6.5s1.33398 4.83301 2.00098 7.5c3.33301 12.667 6.16602 24.5 8.49902 35.5s3.5 19.167 3.5 24.5v2.5
c0 0.333008 -0.333008 0.833008 -1 1.5c-2.66699 1.33301 -10 2 -22 2s-27.667 -0.666992 -47 -2l-5 99c29.333 2 55.166 2.16699 77.499 0.5s41.833 -9.16699 58.5 -22.5c13.333 -10.667 22.5 -23.334 27.5 -38.001s7.5 -30.667 7.5 -48
c0 -7.33301 -0.333008 -14.833 -1 -22.5s-1.66699 -15.167 -3 -22.5c-2 -10.667 -4.5 -21.5 -7.5 -32.5l-8.5 -31.5l-6 -19.5l-6 -18.5c-1.33301 -4 -4 -13 -8 -27l-14 -49c-2 -7.33301 -3.83301 -15 -5.5 -23s-3.5 -16 -5.5 -24c-3.33301 -14.667 -6 -29 -8 -43
s-3 -26.667 -3 -38c0 -12.667 1.66699 -23.167 5 -31.5s9.33301 -12.5 18 -12.5c40.667 0 78.334 24.333 113.001 73s66.334 105.667 95.001 171c3.33301 7.33301 6.16602 15.333 8.49902 24l7.5 28c2 7.33301 3.83301 14.833 5.5 22.5s3.5 15.5 5.5 23.5
c1.33301 2 2.33301 4.33301 3 7l2 8c6.66699 22.667 13.667 45.167 21 67.5l23 67.5h155v0zM297.001 682l-57 -92l-65 41l57 91l65 -40v0zM436.001 682l-56 -92l-66 41l56 91l66 -40v0z" />
    <glyph glyph-name="Zacute" unicode="&#x179;" 
 />
    <glyph glyph-name="zacute" unicode="&#x17a;" 
 />
    <glyph glyph-name="Zdot" unicode="&#x17b;" 
 />
    <glyph glyph-name="zdot" unicode="&#x17c;" 
 />
    <glyph glyph-name="Zcaron" unicode="&#x17d;" horiz-adv-x="500" 
 />
    <glyph glyph-name="zcaron" unicode="&#x17e;" horiz-adv-x="500" 
 />
    <glyph glyph-name="florin" unicode="&#x192;" horiz-adv-x="500" 
 />
    <glyph glyph-name="hungarumlaut" unicode="&#x2ba;" horiz-adv-x="500" 
 />
    <glyph glyph-name="tilde" unicode="&#x2c6;" horiz-adv-x="341" 
d="M324 549c-12 -20.667 -28 -36.5 -48 -47.5s-41.333 -16.5 -64 -16.5c-10.667 0 -21.167 1.33301 -31.5 4s-20.166 6.66699 -29.499 12c-4 2 -8 3.5 -12 4.5s-8 1.5 -12 1.5c-8.66699 0 -17 -2.16699 -25 -6.5s-14.667 -10.5 -20 -18.5l-67 38c12 20.667 28 36.5 48 47.5
s41.333 16.5 64 16.5c10.667 0 21.167 -1.33301 31.5 -4s20.166 -6.66699 29.499 -12c4 -2 8 -3.5 12 -4.5s8 -1.5 12 -1.5c9.33301 0 18 2.16699 26 6.5s14.333 10.833 19 19.5l67 -39v0z" />
    <glyph glyph-name="caron" unicode="&#x2c7;" horiz-adv-x="341" 
d="M326 563l-152 -84l-153 84l38 67l115 -64l114 64l38 -67v0z" />
    <glyph glyph-name="macron" unicode="&#x2c9;" horiz-adv-x="500" 
 />
    <glyph glyph-name="breve" unicode="&#x2d8;" horiz-adv-x="500" 
 />
    <glyph glyph-name="dotaccent" unicode="&#x2d9;" horiz-adv-x="500" 
 />
    <glyph glyph-name="ring" unicode="&#x2da;" horiz-adv-x="287" 
d="M219 561c0 -9.33301 -1.83008 -18.168 -5.49707 -26.501s-8.83398 -15.833 -15.501 -22.5c-6 -6.66699 -13.333 -11.667 -22 -15s-17.667 -5 -27 -5c-18.667 0 -35 6.83301 -49 20.5s-21 29.834 -21 48.501c0 10 1.83301 19.167 5.5 27.5s8.5 15.5 14.5 21.5v1
c7.33301 6.66699 15.166 11.667 23.499 15s17.166 5 26.499 5c19.333 0 35.833 -6.83301 49.5 -20.5s20.5 -30.167 20.5 -49.5v0zM167.003 560.998c0 5.33301 -1.66895 9.83301 -5.00195 13.5s-7.66602 5.5 -12.999 5.5c-2.66699 0 -5.16699 -0.5 -7.5 -1.5
s-4.16602 -2.16699 -5.49902 -3.5c-2 -1.33301 -3.33301 -3.16602 -4 -5.49902s-1 -5.16602 -1 -8.49902c0 -4.66699 1.83301 -8.83398 5.5 -12.501s7.83398 -5.5 12.501 -5.5c2.66699 0 5.16699 0.5 7.5 1.5s4.16602 2.16699 5.49902 3.5s2.5 3.16602 3.5 5.49902
s1.5 4.83301 1.5 7.5v0z" />
    <glyph glyph-name="ogonek" unicode="&#x2db;" horiz-adv-x="500" 
 />
    <glyph glyph-name="circumflex" unicode="&#x2dc;" horiz-adv-x="341" 
d="M326 554l-38 -67l-114 64l-115 -64l-38 67l153 85l152 -85v0z" />
    <glyph glyph-name="Gamma" unicode="&#x393;" horiz-adv-x="500" 
 />
    <glyph glyph-name="Theta" unicode="&#x398;" horiz-adv-x="500" 
 />
    <glyph glyph-name="summation" unicode="&#x3a3;" horiz-adv-x="500" 
 />
    <glyph glyph-name="Phi" unicode="&#x3a6;" horiz-adv-x="500" 
 />
    <glyph glyph-name="Omega" unicode="&#x3a9;" horiz-adv-x="500" 
 />
    <glyph glyph-name="alpha" unicode="&#x3b1;" horiz-adv-x="500" 
 />
    <glyph glyph-name="delta" unicode="&#x3b4;" horiz-adv-x="500" 
 />
    <glyph glyph-name="epsilon" unicode="&#x3b5;" horiz-adv-x="500" 
 />
    <glyph glyph-name="pi" unicode="&#x3c0;" horiz-adv-x="500" 
 />
    <glyph glyph-name="sigma" unicode="&#x3c3;" 
 />
    <glyph glyph-name="tau" unicode="&#x3c4;" horiz-adv-x="500" 
 />
    <glyph glyph-name="phi" unicode="&#x3c6;" 
 />
    <glyph glyph-name="endash" unicode="&#x2013;" horiz-adv-x="477" 
d="M475 348l-33 -99h-440l32 99h441v0z" />
    <glyph glyph-name="emdash" unicode="&#x2014;" horiz-adv-x="724" 
d="M731 348l-33 -99h-710l32 99h711v0z" />
    <glyph glyph-name="underscoredbl" unicode="&#x2017;" horiz-adv-x="500" 
 />
    <glyph glyph-name="quoteleft" unicode="&#x2018;" horiz-adv-x="33" 
d="M166 617l-62 -115h-95l63 115h94v0z" />
    <glyph glyph-name="quoteright" unicode="&#x2019;" horiz-adv-x="33" 
d="M166 617l-62 -115h-95l63 115h94v0z" />
    <glyph glyph-name="quotesinglbase" unicode="&#x201a;" horiz-adv-x="173" 
d="M36 87l-62 -115h-95l63 115h94v0z" />
    <glyph glyph-name="quotedblleft" unicode="&#x201c;" horiz-adv-x="127" 
d="M171 617l-62 -115h-95l63 115h94v0zM291 617l-62 -115h-95l63 115h94v0z" />
    <glyph glyph-name="quotedblright" unicode="&#x201d;" horiz-adv-x="139" 
d="M171 617l-62 -115h-95l63 115h94v0zM291 617l-62 -115h-95l63 115h94v0z" />
    <glyph glyph-name="quotedblbase" unicode="&#x201e;" horiz-adv-x="305" 
d="M171 87l-62 -115h-95l63 115h94v0zM291 87l-62 -115h-95l63 115h94v0z" />
    <glyph glyph-name="dagger" unicode="&#x2020;" horiz-adv-x="500" 
 />
    <glyph glyph-name="daggerdbl" unicode="&#x2021;" horiz-adv-x="500" 
 />
    <glyph glyph-name="bullet" unicode="&#x2022;" horiz-adv-x="251" 
d="M132 372c30 0 55.833 -10.833 77.5 -32.5s32.5 -47.5 32.5 -77.5s-10.833 -55.667 -32.5 -77s-47.5 -32 -77.5 -32s-55.833 10.667 -77.5 32s-32.5 47 -32.5 77s10.833 55.833 32.5 77.5s47.5 32.5 77.5 32.5v0z" />
    <glyph glyph-name="ellipsis" unicode="&#x2026;" horiz-adv-x="500" 
 />
    <glyph glyph-name="perthousand" unicode="&#x2030;" horiz-adv-x="500" 
 />
    <glyph glyph-name="guilsinglleft" unicode="&#x2039;" horiz-adv-x="229" 
d="M219 190l-50 -50l-159 158l159 159l50 -51l-108 -108l108 -108v0z" />
    <glyph glyph-name="guilsinglright" unicode="&#x203a;" horiz-adv-x="229" 
d="M9 190l108 108l-108 108l50 51l159 -159l-159 -158l-50 50v0z" />
    <glyph glyph-name="exclamdbl" unicode="&#x203c;" horiz-adv-x="500" 
 />
    <glyph glyph-name="nsuperior" unicode="&#x207f;" horiz-adv-x="500" 
 />
    <glyph glyph-name="franc" unicode="&#x20a3;" horiz-adv-x="500" 
 />
    <glyph glyph-name="peseta" unicode="&#x20a7;" horiz-adv-x="500" 
 />
    <glyph glyph-name="currency" unicode="&#x20ac;" horiz-adv-x="550" 
d="M638 515l-70.0039 -70.9951c-12 16.667 -27.5 29 -46.5 37s-40.167 12 -63.5 12h-4h-4c-42 -1.33301 -82.5 -13.333 -121.5 -36s-72.167 -51 -99.5 -85h267l-67 -66h-241l-4 -10.5l-4 -10.5h228l-66 -66h-174c0 -34.667 10.833 -63.5 32.5 -86.5
s53.834 -34.5 96.501 -34.5c14.667 0 29.834 1.5 45.501 4.5s31.167 7.5 46.5 13.5c12.667 5.33301 25.5 11.666 38.5 18.999s25.833 15.666 38.5 24.999l60 -79c-26 -20 -55.833 -37.167 -89.5 -51.5s-67.834 -23.5 -102.501 -27.5c-7.33301 -1.33301 -14.5 -2 -21.5 -2
h-20.5c-36.667 0 -71.167 7.16699 -103.5 21.5s-60.166 38.166 -83.499 71.499c-11.333 16 -20 32.833 -26 50.5s-9.33301 35.5 -10 53.5c-0.666992 4 -1 7.83301 -1 11.5v10.5h-65l21 66h52c1.33301 3.33301 2.5 6.83301 3.5 10.5s1.83301 7.16699 2.5 10.5h-56l21 66h64
c15.333 27.333 33.333 53 54 77s42.334 44.333 65.001 61c26 19.333 55.833 36.166 89.5 50.499s67.834 23.833 102.501 28.5c7.33301 1.33301 14.5 2.16602 21.5 2.49902s13.833 0.5 20.5 0.5c33.333 0 65 -6 95 -18s56.333 -31.667 79 -59v0z" />
    <glyph glyph-name="trademark" unicode="&#x2122;" horiz-adv-x="500" 
 />
    <glyph glyph-name="arrowleft" unicode="&#x2190;" 
 />
    <glyph glyph-name="arrowup" unicode="&#x2191;" 
 />
    <glyph glyph-name="arrowright" unicode="&#x2192;" horiz-adv-x="500" 
 />
    <glyph glyph-name="arrowdown" unicode="&#x2193;" 
 />
    <glyph glyph-name="arrowboth" unicode="&#x2194;" 
 />
    <glyph glyph-name="arrowupdn" unicode="&#x2195;" 
 />
    <glyph glyph-name="arrowupdnbase" unicode="&#x21a8;" 
 />
    <glyph glyph-name="partialdiff" unicode="&#x2202;" horiz-adv-x="500" 
 />
    <glyph glyph-name="Delta" unicode="&#x2206;" horiz-adv-x="500" 
 />
    <glyph glyph-name="product" unicode="&#x220f;" 
 />
    <glyph glyph-name="minus" unicode="&#x2212;" horiz-adv-x="500" 
 />
    <glyph glyph-name="fraction" unicode="&#x2215;" horiz-adv-x="500" 
 />
    <glyph glyph-name="periodcentered" unicode="&#x2219;" horiz-adv-x="131" 
d="M125 322c0 -16.667 -5.83301 -30.834 -17.5 -42.501s-25.834 -17.5 -42.501 -17.5c-16 0 -29.833 5.83301 -41.5 17.5s-17.5 25.834 -17.5 42.501s5.83301 30.667 17.5 42s25.5 17 41.5 17c16.667 0 30.834 -5.66699 42.501 -17s17.5 -25.333 17.5 -42v0z" />
    <glyph glyph-name="radical" unicode="&#x221a;" horiz-adv-x="500" 
 />
    <glyph glyph-name="infinity" unicode="&#x221e;" 
 />
    <glyph glyph-name="orthogonal" unicode="&#x221f;" 
 />
    <glyph glyph-name="intersection" unicode="&#x2229;" 
 />
    <glyph glyph-name="integral" unicode="&#x222b;" 
 />
    <glyph glyph-name="approxequal" unicode="&#x2248;" horiz-adv-x="500" 
 />
    <glyph glyph-name="notequal" unicode="&#x2260;" horiz-adv-x="500" 
 />
    <glyph glyph-name="equivalence" unicode="&#x2261;" 
 />
    <glyph glyph-name="lessequal" unicode="&#x2264;" horiz-adv-x="500" 
 />
    <glyph glyph-name="greaterequal" unicode="&#x2265;" horiz-adv-x="500" 
 />
    <glyph glyph-name="house" unicode="&#x2302;" 
 />
    <glyph glyph-name="revlogicalnot" unicode="&#x2310;" 
 />
    <glyph glyph-name="integraltp" unicode="&#x2320;" 
 />
    <glyph glyph-name="integralbt" unicode="&#x2321;" 
 />
    <glyph glyph-name="2500" unicode="&#x2500;" 
 />
    <glyph glyph-name="2502" unicode="&#x2502;" 
 />
    <glyph glyph-name="250c" unicode="&#x250c;" 
 />
    <glyph glyph-name="2510" unicode="&#x2510;" 
 />
    <glyph glyph-name="2514" unicode="&#x2514;" 
 />
    <glyph glyph-name="2518" unicode="&#x2518;" 
 />
    <glyph glyph-name="251c" unicode="&#x251c;" 
 />
    <glyph glyph-name="2524" unicode="&#x2524;" 
 />
    <glyph glyph-name="252c" unicode="&#x252c;" 
 />
    <glyph glyph-name="2534" unicode="&#x2534;" 
 />
    <glyph glyph-name="253c" unicode="&#x253c;" 
 />
    <glyph glyph-name="2550" unicode="&#x2550;" 
 />
    <glyph glyph-name="2551" unicode="&#x2551;" 
 />
    <glyph glyph-name="2552" unicode="&#x2552;" 
 />
    <glyph glyph-name="2553" unicode="&#x2553;" 
 />
    <glyph glyph-name="2554" unicode="&#x2554;" 
 />
    <glyph glyph-name="2555" unicode="&#x2555;" 
 />
    <glyph glyph-name="2556" unicode="&#x2556;" 
 />
    <glyph glyph-name="2557" unicode="&#x2557;" 
 />
    <glyph glyph-name="2558" unicode="&#x2558;" 
 />
    <glyph glyph-name="2559" unicode="&#x2559;" 
 />
    <glyph glyph-name="255a" unicode="&#x255a;" 
 />
    <glyph glyph-name="255b" unicode="&#x255b;" 
 />
    <glyph glyph-name="255c" unicode="&#x255c;" 
 />
    <glyph glyph-name="255d" unicode="&#x255d;" 
 />
    <glyph glyph-name="255e" unicode="&#x255e;" 
 />
    <glyph glyph-name="255f" unicode="&#x255f;" 
 />
    <glyph glyph-name="2560" unicode="&#x2560;" 
 />
    <glyph glyph-name="2561" unicode="&#x2561;" 
 />
    <glyph glyph-name="2562" unicode="&#x2562;" 
 />
    <glyph glyph-name="2563" unicode="&#x2563;" 
 />
    <glyph glyph-name="2564" unicode="&#x2564;" 
 />
    <glyph glyph-name="2565" unicode="&#x2565;" 
 />
    <glyph glyph-name="2566" unicode="&#x2566;" 
 />
    <glyph glyph-name="2567" unicode="&#x2567;" 
 />
    <glyph glyph-name="2568" unicode="&#x2568;" 
 />
    <glyph glyph-name="2569" unicode="&#x2569;" 
 />
    <glyph glyph-name="256a" unicode="&#x256a;" 
 />
    <glyph glyph-name="256b" unicode="&#x256b;" 
 />
    <glyph glyph-name="256c" unicode="&#x256c;" 
 />
    <glyph glyph-name="upblock" unicode="&#x2580;" 
 />
    <glyph glyph-name="dnblock" unicode="&#x2584;" 
 />
    <glyph glyph-name="block" unicode="&#x2588;" 
 />
    <glyph glyph-name="lfblock" unicode="&#x258c;" 
 />
    <glyph glyph-name="rtblock" unicode="&#x2590;" 
 />
    <glyph glyph-name="ltshade" unicode="&#x2591;" 
 />
    <glyph glyph-name="shade" unicode="&#x2592;" 
 />
    <glyph glyph-name="dkshade" unicode="&#x2593;" 
 />
    <glyph glyph-name="filledbox" unicode="&#x25a0;" horiz-adv-x="500" 
 />
    <glyph glyph-name="filledrect" unicode="&#x25ac;" 
 />
    <glyph glyph-name="triagup" unicode="&#x25b2;" 
 />
    <glyph glyph-name="triagrt" unicode="&#x25ba;" 
 />
    <glyph glyph-name="triagdn" unicode="&#x25bc;" 
 />
    <glyph glyph-name="triaglf" unicode="&#x25c4;" 
 />
    <glyph glyph-name="lozenge" unicode="&#x25ca;" horiz-adv-x="500" 
 />
    <glyph glyph-name="circle" unicode="&#x25cb;" 
 />
    <glyph glyph-name="invbullet" unicode="&#x25d8;" 
 />
    <glyph glyph-name="invcircle" unicode="&#x25d9;" 
 />
    <glyph glyph-name="smileface" unicode="&#x263a;" 
 />
    <glyph glyph-name="invsmileface" unicode="&#x263b;" 
 />
    <glyph glyph-name="sun" unicode="&#x263c;" 
 />
    <glyph glyph-name="female" unicode="&#x2640;" 
 />
    <glyph glyph-name="male" unicode="&#x2642;" 
 />
    <glyph glyph-name="spade" unicode="&#x2660;" 
 />
    <glyph glyph-name="club" unicode="&#x2663;" 
 />
    <glyph glyph-name="heart" unicode="&#x2665;" 
 />
    <glyph glyph-name="diamond" unicode="&#x2666;" 
 />
    <glyph glyph-name="musicalnote" unicode="&#x266a;" 
 />
    <glyph glyph-name="musicalnotedbl" unicode="&#x266b;" 
 />
    <glyph glyph-name="apple" unicode="&#xf000;" 
 />
    <glyph glyph-name="fi" unicode="&#xf001;" horiz-adv-x="500" 
 />
    <glyph glyph-name="fl" unicode="&#xf002;" horiz-adv-x="500" 
 />
    <glyph glyph-name="glyph1" horiz-adv-x="0" 
 />
    <glyph glyph-name="glyph2" 
 />
    <glyph glyph-name="glyph131" horiz-adv-x="500" 
 />
    <glyph glyph-name="glyph135" horiz-adv-x="251" 
d="M132 372c30 0 55.833 -10.833 77.5 -32.5s32.5 -47.5 32.5 -77.5s-10.833 -55.667 -32.5 -77s-47.5 -32 -77.5 -32s-55.833 10.667 -77.5 32s-32.5 47 -32.5 77s10.833 55.833 32.5 77.5s47.5 32.5 77.5 32.5v0z" />
    <glyph glyph-name="glyph177" horiz-adv-x="477" 
d="M475 348l-33 -99h-440l32 99h441v0z" />
    </font>
</defs>
</svg>
