<?xml version="1.0" standalone="no"?>
<!DOCTYPE svg PUBLIC "-//W3C//DTD SVG 1.1//EN" "http://www.w3.org/Graphics/SVG/1.1/DTD/svg11.dtd" >
<svg xmlns="http://www.w3.org/2000/svg">
<metadata></metadata>
<defs>
<font id="zektonregular" horiz-adv-x="1222" >
<font-face units-per-em="2048" ascent="1638" descent="-410" />
<missing-glyph horiz-adv-x="495" />
<glyph unicode="&#x28;C&#x29;" horiz-adv-x="1562" d="M86 293v911q0 291 293 291h829q295 0 295 -291v-915q0 -289 -295 -289h-829q-293 0 -293 293zM184 272q0 -174 176 -174h871q170 0 170 168v957q0 174 -170 174h-871q-176 0 -176 -174v-951zM451 606v283q0 117 55 170t172 53h369v-90h-369q-139 0 -139 -133v-283 q0 -139 139 -139h369v-86h-369q-117 0 -172 54t-55 171z" />
<glyph unicode="&#x28;R&#x29;" horiz-adv-x="1562" d="M86 293v911q0 291 293 291h829q295 0 295 -291v-915q0 -289 -295 -289h-829q-293 0 -293 293zM184 272q0 -174 176 -174h871q170 0 170 168v957q0 174 -170 174h-871q-176 0 -176 -174v-951zM518 367v770h373q225 0 225 -228v-30q0 -111 -63.5 -162t-161.5 -51h-55 l227 -299h-127l-215 315v63h170q135 0 135 134v30q0 137 -135 138h-283v-680h-90z" />
<glyph horiz-adv-x="2048" />
<glyph horiz-adv-x="2048" />
<glyph unicode="&#xd;" horiz-adv-x="888" />
<glyph horiz-adv-x="495" />
<glyph unicode=" "  horiz-adv-x="495" />
<glyph unicode="&#x09;" horiz-adv-x="495" />
<glyph unicode="&#xa0;" horiz-adv-x="495" />
<glyph unicode="!" horiz-adv-x="460" d="M150 0v180h161v-180h-161zM150 354v1141h161v-1141h-161z" />
<glyph unicode="&#x22;" horiz-adv-x="585" d="M45 1276v219h186v-219l-49 -209h-86zM352 1278v217h187v-217l-47 -211h-97z" />
<glyph unicode="#" horiz-adv-x="1019" d="M88 748v94h186v280h-186v92h186v281h95v-281h280v281h92v-281h189v-92h-189v-280h189v-94h-189v-281h-92v281h-280v-281h-95v281h-186zM369 842h280v280h-280v-280z" />
<glyph unicode="$" horiz-adv-x="1132" d="M131 1016q0 301 301 301h55v178h160v-178h264v-160h-479q-141 0 -141 -141q0 -145 141 -146h266q303 0 303 -299q0 -305 -303 -305h-51v-176h-160v176h-268v160h479q143 0 144 145q0 141 -144 142h-266q-301 0 -301 303z" />
<glyph unicode="%" horiz-adv-x="1521" d="M117 931v430q0 164 162 164h217q162 0 162 -164v-432q0 -162 -162 -161h-217q-162 0 -162 163zM228 931q0 -53 51 -53h217q53 0 53 51v432q0 51 -53 52h-217q-51 0 -51 -52v-430zM289 0l811 1495h129l-813 -1495h-127zM852 143v430q0 164 162 164h217q162 0 162 -164 v-432q0 -162 -162 -161h-217q-162 0 -162 163zM963 143q0 -53 51 -53h217q53 0 53 51v432q0 51 -53 52h-217q-51 0 -51 -52v-430z" />
<glyph unicode="&#x26;" horiz-adv-x="1310" d="M131 303v268q0 143 78 222q-78 78 -78 223v176q0 303 301 303h215v-162h-215q-141 0 -141 -141v-176q0 -70 32.5 -108t102.5 -38h754v-157h-269v-553h269v-160h-748q-301 0 -301 303zM291 303q0 -143 141 -143h322v553h-332q-131 -8 -131 -142v-268z" />
<glyph unicode="'" horiz-adv-x="278" d="M45 1276v219h186v-219l-49 -209h-86z" />
<glyph unicode="(" horiz-adv-x="503" d="M131 752q0 233 38 464.5t112 466.5h94q-150 -467 -150 -933q0 -240 36 -470.5t114 -465.5h-94q-78 236 -114 466t-36 472z" />
<glyph unicode=")" horiz-adv-x="503" d="M131 -186q78 236 114 466t36 470q0 233 -38 465.5t-112 467.5h94q72 -236 111 -467t39 -464q0 -475 -150 -938h-94z" />
<glyph unicode="*" horiz-adv-x="1052" d="M131 940l27 88l329 -125v357h93v-357l311 123l33 -88l-316 -121l189 -258l-74 -57l-188 258l-201 -266l-76 55l203 266z" />
<glyph unicode="+" horiz-adv-x="1071" d="M106 668v159h365v365h160v-365h364v-159h-364v-365h-160v365h-365z" />
<glyph unicode="," horiz-adv-x="436" d="M131 0v180h176v-168l-49 -178h-82l33 166h-78z" />
<glyph unicode="-" horiz-adv-x="700" d="M94 444v160h514v-160h-514z" />
<glyph unicode="." horiz-adv-x="436" d="M131 0v180h176v-180h-176z" />
<glyph unicode="/" horiz-adv-x="571" d="M10 0l445 1495h98l-447 -1495h-96z" />
<glyph unicode="0" horiz-adv-x="1310" d="M131 303v889q0 303 301 303h445q303 0 303 -303v-893q0 -299 -303 -299h-445q-301 0 -301 303zM291 303q0 -143 141 -143h445q143 0 143 139v893q0 141 -143 141h-445q-141 0 -141 -141v-889z" />
<glyph unicode="1" horiz-adv-x="503" d="M39 1333v162q336 0 336 -303v-1192h-160v1192q0 141 -176 141z" />
<glyph unicode="2" horiz-adv-x="1107" d="M131 0v571q0 299 301 299h266q143 0 144 146v176q0 141 -144 141h-479v162h479q303 0 303 -303v-176q0 -303 -303 -303h-266q-141 0 -141 -142v-411h710v-160h-870z" />
<glyph unicode="3" horiz-adv-x="1128" d="M125 0v160h567q143 0 144 143v268q0 66 -34 104t-102 38h-575v157h580q131 8 131 146v176q0 141 -144 141h-567v162h567q303 0 303 -303v-176q0 -141 -75 -223q76 -82 75 -222v-268q0 -303 -303 -303h-567z" />
<glyph unicode="4" horiz-adv-x="1159" d="M59 266v135l443 1094h172l-432 -1069h618v1069h160v-1069h88v-160h-88v-266h-160v266h-801z" />
<glyph unicode="5" horiz-adv-x="1107" d="M131 0v160h567q143 0 144 139v272q0 141 -144 142h-567v782h780v-162h-620v-463h407q303 0 303 -299v-272q0 -299 -303 -299h-567z" />
<glyph unicode="6" horiz-adv-x="1208" d="M131 303v889q0 303 301 303h569v-162h-569q-141 0 -141 -141v-889q0 -143 141 -143h356q143 0 144 139v272q0 141 -144 142h-405v157h405q303 0 304 -299v-272q0 -299 -304 -299h-356q-301 0 -301 303z" />
<glyph unicode="7" horiz-adv-x="1019" d="M33 1333v162h946v-135l-549 -1360h-174l541 1333h-764z" />
<glyph unicode="8" horiz-adv-x="1310" d="M131 303v268q0 141 82 222q-82 76 -82 223v176q0 303 301 303h445q303 0 303 -303v-180q0 -145 -82 -221q82 -76 82 -220v-272q0 -299 -303 -299h-445q-301 0 -301 303zM291 303q0 -143 141 -143h445q143 0 143 139v272q0 141 -143 142h-445q-141 0 -141 -142v-268z M291 1016q0 -145 141 -146h445q143 0 143 142v180q0 141 -143 141h-445q-141 0 -141 -141v-176z" />
<glyph unicode="9" horiz-adv-x="1200" d="M109 922v274q0 299 301 299h358q301 0 301 -303v-889q0 -303 -301 -303h-571v160h571q139 0 139 143v889q0 141 -139 141h-358q-143 0 -144 -137v-274q0 -145 144 -146h405v-158h-405q-301 0 -301 304z" />
<glyph unicode=":" horiz-adv-x="436" d="M131 0v180h176v-180h-176zM131 647v178h176v-178h-176z" />
<glyph unicode=";" horiz-adv-x="436" d="M131 0v180h176v-168l-49 -178h-82l33 166h-78zM131 647v178h176v-178h-176z" />
<glyph unicode="&#x3c;" horiz-adv-x="747" d="M131 455v129l485 362v-151l-370 -277l370 -280v-150z" />
<glyph unicode="=" horiz-adv-x="747" d="M131 274v121h485v-121h-485zM131 639v123h485v-123h-485z" />
<glyph unicode="&#x3e;" horiz-adv-x="747" d="M131 88v150l371 278l-371 279v151l485 -366v-129z" />
<glyph unicode="?" horiz-adv-x="1067" d="M66 1333v162h567q303 0 303 -303v-176q0 -303 -303 -303h-88q-141 0 -142 -142v-249h-161v249q0 299 303 299h88q141 0 141 146v176q0 141 -141 141h-567zM240 0v180h163v-180h-163z" />
<glyph unicode="@" horiz-adv-x="1570" d="M131 281v933q0 281 279 281h749q279 0 279 -276v-938h-92v938q0 184 -187 184h-749q-184 0 -185 -189v-933q0 -186 185 -187h749v-94h-749q-279 0 -279 281zM410 551v22q0 268 280 269h189v-94h-189q-186 0 -186 -175v-22q0 -176 186 -176h189q186 0 186 186v375 q0 186 -186 186h-375v92h375q281 0 280 -278v-375q0 -281 -280 -280h-189q-281 0 -280 270z" />
<glyph unicode="A" horiz-adv-x="1372" d="M18 0l592 1495h148l596 -1495h-174l-142 354h-616l67 162h484l-289 746l-494 -1262h-172z" />
<glyph unicode="B" d="M131 0v1495h657q303 0 304 -303v-176q0 -145 -115 -223q115 -80 115 -222v-268q0 -303 -304 -303h-657zM291 160h497q143 0 144 143v268q0 141 -135 142h-414v157h416q133 0 133 146v176q0 141 -144 141h-497v-1173z" />
<glyph unicode="C" horiz-adv-x="1120" d="M131 303v889q0 303 301 303h604v-162h-604q-141 0 -141 -141v-889q0 -143 141 -143h604v-160h-604q-301 0 -301 303z" />
<glyph unicode="D" horiz-adv-x="1400" d="M131 0v1495h834q305 0 305 -303v-893q0 -299 -305 -299h-582v160h582q143 0 143 139v893q0 141 -143 141h-674v-1333h-160z" />
<glyph unicode="E" horiz-adv-x="1083" d="M131 0v1495h860v-162h-700v-463h682v-157h-682v-553h710v-160h-870z" />
<glyph unicode="F" horiz-adv-x="1052" d="M131 0v1495h870v-162h-710v-499h692v-158h-692v-676h-160z" />
<glyph unicode="G" horiz-adv-x="1382" d="M131 303v889q0 303 301 303h748v-162h-748q-141 0 -141 -141v-889q0 -143 141 -143h533q143 0 143 139v414h-500v157h662v-571q0 -299 -305 -299h-533q-301 0 -301 303z" />
<glyph unicode="H" horiz-adv-x="1310" d="M131 0v1495h160v-625h729v625h160v-1495h-160v713h-729v-713h-160z" />
<glyph unicode="I" horiz-adv-x="419" d="M131 0v1495h160v-1495h-160z" />
<glyph unicode="J" horiz-adv-x="778" d="M45 0v160h301q143 0 143 139v1196h160v-1196q0 -299 -303 -299h-301z" />
<glyph unicode="K" horiz-adv-x="1159" d="M131 0v1495h160v-733l506 733h194l-506 -713h254q303 0 303 -301v-481h-163v481q0 143 -140 144h-448v-625h-160z" />
<glyph unicode="L" horiz-adv-x="1046" d="M131 0v1495h162v-1335h708v-160h-870z" />
<glyph unicode="M" horiz-adv-x="1562" d="M131 0v1495h156l495 -1268l494 1268h156v-1495h-150v1087l-428 -1087h-143l-430 1085v-1085h-150z" />
<glyph unicode="N" horiz-adv-x="1400" d="M131 0v1495h141l842 -1223v1223h156v-1495h-142l-843 1214v-1214h-154z" />
<glyph unicode="O" horiz-adv-x="1400" d="M131 303v889q0 303 301 303h533q305 0 305 -303v-893q0 -299 -305 -299h-533q-301 0 -301 303zM291 303q0 -143 141 -143h533q143 0 143 139v893q0 141 -143 141h-533q-141 0 -141 -141v-889z" />
<glyph unicode="P" horiz-adv-x="1230" d="M131 0v1495h715q301 0 301 -303v-215q0 -301 -301 -301h-449v158h449q141 0 141 143v215q0 141 -141 141h-555v-1333h-160z" />
<glyph unicode="Q" horiz-adv-x="1400" d="M131 303v889q0 303 301 303h533q305 0 305 -303v-893q0 -299 -305 -299h-185q18 -121 142 -121h125v-160h-125q-285 0 -304 281h-186q-301 0 -301 303zM291 303q0 -143 141 -143h533q143 0 143 139v893q0 141 -143 141h-533q-141 0 -141 -141v-889z" />
<glyph unicode="R" horiz-adv-x="1177" d="M131 0v1495h657q303 0 304 -303v-176q0 -303 -304 -303h-176l518 -713h-194l-539 735v135h391q143 0 144 146v176q0 141 -144 141h-497v-1333h-160z" />
<glyph unicode="S" horiz-adv-x="1302" d="M121 1016v176q0 303 299 303h672v-162h-672q-141 0 -141 -141v-176q0 -145 141 -146h459q305 0 305 -299v-272q0 -299 -305 -299h-711v160h711q143 0 143 139v272q0 141 -143 142h-459q-299 0 -299 303z" />
<glyph unicode="T" horiz-adv-x="1093" d="M35 1333v162h1036v-162h-432v-1333h-160v1333h-444z" />
<glyph unicode="U" horiz-adv-x="1400" d="M131 303v1192h160v-1192q0 -143 141 -143h533q143 0 143 139v1196h162v-1196q0 -299 -305 -299h-533q-301 0 -301 303z" />
<glyph unicode="V" horiz-adv-x="1372" d="M18 1495h175l493 -1262l496 1262h172l-592 -1495h-148z" />
<glyph unicode="W" horiz-adv-x="1802" d="M18 1495h166l320 -1178l323 1178h148l321 -1178l322 1178h166l-416 -1495h-143l-322 1178l-325 -1178h-146z" />
<glyph unicode="X" horiz-adv-x="1439" d="M49 0l576 745l-576 750h203l471 -633l469 633h203l-572 -747l574 -748h-203l-471 631l-469 -631h-205z" />
<glyph unicode="Y" horiz-adv-x="1331" d="M-6 1495h203l471 -633l469 633h200l-589 -778v-717h-160v717z" />
<glyph unicode="Z" horiz-adv-x="1284" d="M76 0v137l911 1196h-911v162h1138v-139l-911 -1196h911v-160h-1138z" />
<glyph unicode="[" horiz-adv-x="448" d="M131 -186v1869h188v-94h-94v-1687h94v-88h-188z" />
<glyph unicode="\" horiz-adv-x="575" d="M20 1495h101l444 -1495h-98z" />
<glyph unicode="]" horiz-adv-x="448" d="M131 -94h94v1683h-59v94h153v-1869h-188v92z" />
<glyph unicode="^" horiz-adv-x="827" d="M76 535l276 694h146l276 -694h-174l-176 442l-178 -442h-170z" />
<glyph unicode="_" horiz-adv-x="776" d="M-2 -106h780v-160h-780v160z" />
<glyph unicode="`" horiz-adv-x="673" d="M76 1440v151l522 -270v-102z" />
<glyph unicode="a" horiz-adv-x="1208" d="M117 285v39q0 280 299 280h2h405v-160h-405q-141 0 -142 -120v-39q0 -125 142 -125h356q141 0 141 143v445q0 141 -141 141h-567v160h567q301 0 301 -301v-445q0 -303 -301 -303h-356q-301 0 -301 285z" />
<glyph unicode="b" d="M131 303v1192h160v-1192q0 -143 141 -143h356q143 0 144 143v445q0 141 -144 141h-405v160h405q303 0 304 -301v-445q0 -303 -304 -303h-356q-301 0 -301 303z" />
<glyph unicode="c" horiz-adv-x="950" d="M131 303v445q0 301 301 301h424v-160h-424q-141 0 -141 -141v-445q0 -143 141 -143h424v-160h-424q-301 0 -301 303z" />
<glyph unicode="d" d="M131 303v445q0 301 301 301h406v-160h-406q-141 0 -141 -141v-445q0 -143 141 -143h356q143 0 144 143v1192h160v-1192q0 -303 -304 -303h-356q-301 0 -301 303z" />
<glyph unicode="e" horiz-adv-x="1189" d="M131 303v445q0 301 301 301h356q303 0 304 -281v-43q0 -281 -304 -281h-405v160h405q143 0 144 121v43q0 121 -144 121h-356q-141 0 -141 -141v-445q0 -143 141 -143h569v-160h-569q-301 0 -301 303z" />
<glyph unicode="f" horiz-adv-x="477" d="M131 0v1192q0 303 336 303v-162q-176 0 -176 -141v-143h176v-160h-176v-889h-160z" />
<glyph unicode="g" d="M131 303v445q0 301 301 301h356q303 0 304 -301v-801q0 -301 -304 -301h-391v157h391q143 0 144 144v801q0 141 -144 141h-356q-141 0 -141 -141v-445q0 -143 141 -143h406v-160h-406q-301 0 -301 303z" />
<glyph unicode="h" d="M131 0v1495h160v-446h497q303 0 304 -301v-748h-160v748q0 141 -144 141h-497v-889h-160z" />
<glyph unicode="i" horiz-adv-x="421" d="M131 0v1049h162v-1049h-162zM131 1317v178h160v-178h-160z" />
<glyph unicode="j" horiz-adv-x="419" d="M-47 -197q178 0 178 144v1102h160v-1102q0 -301 -338 -301v157zM131 1317v178h160v-178h-160z" />
<glyph unicode="k" horiz-adv-x="1103" d="M131 0v1495h160v-922l393 476h193l-375 -453h196q303 0 303 -303v-293h-159v293q0 143 -144 143h-407v-436h-160z" />
<glyph unicode="l" horiz-adv-x="419" d="M131 0v1495h160v-1495h-160z" />
<glyph unicode="m" horiz-adv-x="1488" d="M131 0v1049h924q301 0 301 -301v-748h-158v748q0 141 -143 141h-232v-889h-161v889h-371v-889h-160z" />
<glyph unicode="n" d="M131 0v1049h657q303 0 304 -301v-748h-160v748q0 141 -144 141h-497v-889h-160z" />
<glyph unicode="o" d="M131 303v445q0 301 301 301h356q303 0 304 -301v-449q0 -299 -304 -299h-356q-301 0 -301 303zM291 303q0 -143 141 -143h356q143 0 144 139v449q0 141 -144 141h-356q-141 0 -141 -141v-445z" />
<glyph unicode="p" d="M131 -354v1102q0 301 301 301h356q303 0 304 -301v-445q0 -303 -304 -303h-405v160h405q143 0 144 143v445q0 141 -144 141h-356q-141 0 -141 -141v-1102h-160z" />
<glyph unicode="q" d="M131 303v445q0 301 301 301h356q303 0 304 -301v-1102h-160v1102q0 141 -144 141h-356q-141 0 -141 -141v-445q0 -143 141 -143h406v-160h-406q-301 0 -301 303z" />
<glyph unicode="r" horiz-adv-x="569" d="M131 0v748q0 301 301 301h125v-160h-125q-141 0 -141 -141v-748h-160z" />
<glyph unicode="s" horiz-adv-x="976" d="M98 748q0 301 303 301h416v-160h-416q-143 0 -143 -141q0 -143 143 -144h209q303 0 303 -301q0 -303 -303 -303h-458v160h458q143 0 144 143q0 141 -144 141h-209q-303 0 -303 304z" />
<glyph unicode="t" horiz-adv-x="454" d="M55 889v160h84v446h160v-446h186v-160h-186v-889h-160v889h-84z" />
<glyph unicode="u" d="M131 303v746h160v-746q0 -143 141 -143h356q143 0 144 139v750h160v-750q0 -299 -304 -299h-356q-301 0 -301 303z" />
<glyph unicode="v" horiz-adv-x="1107" d="M18 1049h172l365 -840l360 840h175l-465 -1049h-144z" />
<glyph unicode="w" horiz-adv-x="1652" d="M18 1049h168l287 -801l283 801h141l287 -801l282 801h168l-377 -1049h-143l-289 797l-278 -797h-141z" />
<glyph unicode="x" horiz-adv-x="1124" d="M14 0l443 524l-443 525h207l342 -420l342 420h205l-442 -525l442 -524h-205l-342 422l-342 -422h-207z" />
<glyph unicode="y" d="M131 303v746h160v-746q0 -143 141 -143h500v889h160v-1102q0 -301 -304 -301h-391v157h391q143 0 144 144v53h-500q-301 0 -301 303z" />
<glyph unicode="z" horiz-adv-x="1120" d="M86 0v137l731 752h-731v160h961v-140l-734 -749h734v-160h-961z" />
<glyph unicode="{" horiz-adv-x="542" d="M131 690v109q94 2 94 164v532q0 188 185 188v-94q-90 0 -91 -94v-532q0 -147 -81 -218q82 -70 81 -217v-528q0 -94 91 -94v-92q-184 0 -185 186v528q0 160 -94 162z" />
<glyph unicode="|" horiz-adv-x="354" d="M131 -186v1869h94v-1869h-94z" />
<glyph unicode="}" horiz-adv-x="542" d="M131 -94q94 0 94 94v532q0 145 78 218q-78 72 -78 215v530q0 94 -94 94v94q188 -4 188 -188v-530q0 -158 91 -162v-109q-90 -4 -91 -162v-532q0 -186 -188 -186v92z" />
<glyph unicode="~" horiz-adv-x="1009" d="M131 801q59 59 115.5 83.5t85.5 24.5q43 0 85 -12t83 -26.5t82 -27t84 -12.5q16 0 41.5 15.5t60.5 54.5l111 -127q-31 -31 -53.5 -51.5t-44 -33.5t-45 -18t-56.5 -5q-47 0 -90 12t-83 27.5t-80 27.5t-81 12q-20 0 -45 -14t-59 -53z" />
<glyph unicode="&#xa1;" horiz-adv-x="460" d="M150 0v1139h161v-1139h-161zM150 1317v178h161v-178h-161z" />
<glyph unicode="&#xa2;" horiz-adv-x="880" d="M98 481v267q0 301 301 301h7v180h161v-180h224v-160h-224v-551h224v-160h-224v-178h-161v178h-7q-301 0 -301 303zM256 481q0 -143 143 -143h7v551h-7q-143 0 -143 -141v-267z" />
<glyph unicode="&#xa3;" horiz-adv-x="917" d="M41 713v157h90v322q0 303 301 303h391v-162h-391q-141 0 -141 -141v-322h176v-157h-176v-553h532v-160h-692v713h-90z" />
<glyph unicode="&#xa5;" horiz-adv-x="1382" d="M18 1495h203l469 -633l469 633h203l-541 -713h172v-159h-221v-197h221v-160h-221v-266h-162v266h-213v160h213v197h-213v159h164z" />
<glyph unicode="&#xa6;" horiz-adv-x="419" d="M131 -178v788h160v-788h-160zM131 958v715h160v-715h-160z" />
<glyph unicode="&#xa7;" horiz-adv-x="1075" d="M98 748q0 143 74 221q-74 76 -74 223q0 303 301 303h338v-162h-338q-143 0 -143 -141q0 -143 143 -143h267q301 0 301 -301q0 -141 -76 -224q76 -76 76 -221q0 -303 -301 -303h-340v160h340q141 0 141 143q0 141 -141 141h-267q-301 0 -301 304zM256 748q0 -133 127 -144 h283q141 0 141 144q0 141 -141 141h-267q-143 0 -143 -141z" />
<glyph unicode="&#xa8;" horiz-adv-x="745" d="M76 1286v184h182v-184h-182zM487 1286v184h183v-184h-183z" />
<glyph unicode="&#xaa;" horiz-adv-x="905" d="M86 922v30q0 209 229 209h301v-119h-301q-106 0 -106 -90v-30q0 -94 106 -95h265q55 0 79.5 28t24.5 81v334q0 53 -24.5 79.5t-79.5 26.5h-426v119h426q227 0 227 -225v-334q0 -227 -227 -227h-265q-229 0 -229 213z" />
<glyph unicode="&#xab;" horiz-adv-x="1155" d="M76 455v145l426 318v-201l-258 -191l258 -196v-199zM654 455v145l426 318v-201l-258 -191l258 -196v-199z" />
<glyph unicode="&#xad;" horiz-adv-x="700" d="M94 444v160h514v-160h-514z" />
<glyph unicode="&#xaf;" horiz-adv-x="946" d="M76 1360v129h794v-129h-794z" />
<glyph unicode="&#xb0;" horiz-adv-x="823" d="M131 1214q0 281 279 281q281 0 280 -281q0 -279 -280 -278q-279 -1 -279 278zM225 1214q1 -186 185 -186q188 0 188 184q0 190 -188 191q-184 0 -185 -189z" />
<glyph unicode="&#xb2;" horiz-adv-x="614" d="M82 768v292q0 160 162 160h129q53 0 53 57v84q0 51 -53 52h-250v112h250q162 0 162 -164v-84q0 -164 -162 -163h-129q-53 0 -54 -54v-182h345v-110h-453z" />
<glyph unicode="&#xb3;" horiz-adv-x="624" d="M78 768v110h293q53 0 53 53v129q0 53 -49 54h-297v106h297q49 2 49 57v84q0 51 -53 52h-293v112h293q162 0 161 -164v-84q0 -63 -53 -110q53 -43 53 -107v-129q0 -164 -161 -163h-293z" />
<glyph unicode="&#xb4;" horiz-adv-x="673" d="M76 1219v102l522 270v-151z" />
<glyph unicode="&#xb6;" horiz-adv-x="925" d="M41 1157q0 338 303 338h451v-1495h-160v1157h-133v-1157h-160v1333q-141 -4 -141 -176h-160z" />
<glyph unicode="&#xb7;" horiz-adv-x="436" d="M131 635v180h176v-180h-176z" />
<glyph unicode="&#xb8;" horiz-adv-x="321" d="M76 -78h170v-162l-49 -180h-76l33 168h-78v174z" />
<glyph unicode="&#xb9;" horiz-adv-x="313" d="M33 1413v112q197 0 196 -164v-593h-110v593q0 51 -86 52z" />
<glyph unicode="&#xba;" horiz-adv-x="915" d="M98 936v334q0 225 224 225h270q227 0 227 -225v-336q0 -225 -227 -225h-270q-223 0 -224 227zM217 936q0 -109 105 -109h270q104 0 104 107v336q0 106 -104 106h-270q-104 0 -105 -106v-334z" />
<glyph unicode="&#xbb;" horiz-adv-x="1155" d="M76 131v201l256 190l-256 197v199l426 -322v-145zM654 131v201l256 190l-256 197v199l426 -322v-145z" />
<glyph unicode="&#xbc;" horiz-adv-x="1368" d="M129 1413v112q197 0 196 -164v-593h-110v593q0 51 -86 52zM131 0l811 1495h129l-813 -1495h-127zM700 109v84l219 544h117l-209 -518h262v518h109v-518h41v-110h-41v-129h-109v129h-389z" />
<glyph unicode="&#xbd;" horiz-adv-x="1376" d="M129 1413v112q197 0 196 -164v-593h-110v593q0 51 -86 52zM131 0l811 1495h129l-813 -1495h-127zM797 -20v292q0 160 162 160h129q53 0 53 57v84q0 51 -53 52h-250v112h250q162 0 162 -164v-84q0 -164 -162 -163h-129q-53 0 -54 -54v-182h345v-110h-453z" />
<glyph unicode="&#xbe;" horiz-adv-x="1417" d="M117 768v110h293q53 0 53 53v129q0 53 -49 54h-297v106h297q49 2 49 57v84q0 51 -53 52h-293v112h293q162 0 161 -164v-84q0 -63 -53 -110q53 -43 53 -107v-129q0 -164 -161 -163h-293zM221 0l811 1495h129l-813 -1495h-127zM749 109v84l219 544h117l-209 -518h262v518 h109v-518h41v-110h-41v-129h-109v129h-389z" />
<glyph unicode="&#xbf;" horiz-adv-x="1019" d="M96 303v178q0 301 303 301h88q141 0 142 144v248h159v-248q0 -301 -301 -301h-88q-143 0 -143 -144v-178q0 -143 143 -143h566v-160h-566q-303 0 -303 303zM629 1317v178h162v-178h-162z" />
<glyph unicode="&#xc0;" horiz-adv-x="1372" d="M18 0l592 1495h148l596 -1495h-174l-142 354h-616l67 162h484l-289 746l-494 -1262h-172zM363 1886v151l522 -270v-102z" />
<glyph unicode="&#xc1;" horiz-adv-x="1372" d="M18 0l592 1495h148l596 -1495h-174l-142 354h-616l67 162h484l-289 746l-494 -1262h-172zM486 1665v102l522 270v-151z" />
<glyph unicode="&#xc2;" horiz-adv-x="1372" d="M18 0l592 1495h148l596 -1495h-174l-142 354h-616l67 162h484l-289 746l-494 -1262h-172zM344 1665l284 372h123l277 -372h-142l-198 276l-203 -276h-141z" />
<glyph unicode="&#xc3;" horiz-adv-x="1372" d="M18 0l592 1495h148l596 -1495h-174l-142 354h-616l67 162h484l-289 746l-494 -1262h-172zM309 1824q41 72 97 96.5t103 24.5q53 0 98.5 -14.5t87.5 -30.5t82 -30.5t83 -14.5t68.5 20.5t47.5 61.5l84 -80q-33 -59 -85 -90t-115 -31q-53 0 -99.5 14.5t-87.5 31t-81 30.5 t-83 14t-69.5 -20.5t-46.5 -61.5z" />
<glyph unicode="&#xc4;" horiz-adv-x="1372" d="M18 0l592 1495h148l596 -1495h-174l-142 354h-616l67 162h484l-289 746l-494 -1262h-172zM389 1732v184h182v-184h-182zM800 1732v184h183v-184h-183z" />
<glyph unicode="&#xc5;" horiz-adv-x="1372" d="M18 0l592 1495h148l596 -1495h-174l-142 354h-616l67 162h484l-289 746l-494 -1262h-172zM500 1853q0 184 186 184t187 -184q0 -188 -187 -188q-186 0 -186 188zM574 1855q-1 -123 110 -123q121 0 121 117t-121 117q-111 0 -110 -111z" />
<glyph unicode="&#xc6;" horiz-adv-x="1591" d="M-6 0l854 1495h659v-162h-516v-641h516v-157h-516v-375h516v-160h-678v535h-342l-307 -535h-186zM575 692h254v441z" />
<glyph unicode="&#xc7;" horiz-adv-x="1120" d="M131 303v889q0 303 301 303h604v-162h-604q-141 0 -141 -141v-889q0 -143 141 -143h604v-160h-604q-301 0 -301 303zM537 -78h170v-162l-49 -180h-76l33 168h-78v174z" />
<glyph unicode="&#xc8;" horiz-adv-x="1083" d="M131 0v1495h860v-162h-700v-463h682v-157h-682v-553h710v-160h-870zM240 1886v151l522 -270v-102z" />
<glyph unicode="&#xc9;" horiz-adv-x="1083" d="M131 0v1495h860v-162h-700v-463h682v-157h-682v-553h710v-160h-870zM363 1665v102l522 270v-151z" />
<glyph unicode="&#xca;" horiz-adv-x="1083" d="M131 0v1495h860v-162h-700v-463h682v-157h-682v-553h710v-160h-870zM219 1665l284 372h123l277 -372h-142l-198 276l-203 -276h-141z" />
<glyph unicode="&#xcb;" horiz-adv-x="1083" d="M131 0v1495h860v-162h-700v-463h682v-157h-682v-553h710v-160h-870zM264 1732v184h182v-184h-182zM675 1732v184h183v-184h-183z" />
<glyph unicode="&#xcc;" horiz-adv-x="419" d="M-110 1886v151l522 -270v-102zM131 0v1495h160v-1495h-160z" />
<glyph unicode="&#xcd;" horiz-adv-x="419" d="M13 1665v102l522 270v-151zM131 0v1495h160v-1495h-160z" />
<glyph unicode="&#xce;" horiz-adv-x="419" d="M-129 1665l284 372h123l277 -372h-142l-198 276l-203 -276h-141zM131 0v1495h160v-1495h-160z" />
<glyph unicode="&#xcf;" horiz-adv-x="419" d="M-84 1732v184h182v-184h-182zM131 0v1495h160v-1495h-160zM327 1732v184h183v-184h-183z" />
<glyph unicode="&#xd0;" horiz-adv-x="1411" d="M18 655v160h121v680h838q303 0 303 -303v-893q0 -299 -303 -299h-569v160h569q143 0 143 139v893q0 141 -143 141h-676v-518h234v-160h-234v-655h-162v655h-121z" />
<glyph unicode="&#xd1;" horiz-adv-x="1400" d="M131 0v1495h141l842 -1223v1223h156v-1495h-142l-843 1214v-1214h-154zM324 1824q41 72 97 96.5t103 24.5q53 0 98.5 -14.5t87.5 -30.5t82 -30.5t83 -14.5t68.5 20.5t47.5 61.5l84 -80q-33 -59 -85 -90t-115 -31q-53 0 -99.5 14.5t-87.5 31t-81 30.5t-83 14t-69.5 -20.5 t-46.5 -61.5z" />
<glyph unicode="&#xd2;" horiz-adv-x="1400" d="M131 303v889q0 303 301 303h533q305 0 305 -303v-893q0 -299 -305 -299h-533q-301 0 -301 303zM291 303q0 -143 141 -143h533q143 0 143 139v893q0 141 -143 141h-533q-141 0 -141 -141v-889zM377 1886v151l522 -270v-102z" />
<glyph unicode="&#xd3;" horiz-adv-x="1400" d="M131 303v889q0 303 301 303h533q305 0 305 -303v-893q0 -299 -305 -299h-533q-301 0 -301 303zM291 303q0 -143 141 -143h533q143 0 143 139v893q0 141 -143 141h-533q-141 0 -141 -141v-889zM500 1665v102l522 270v-151z" />
<glyph unicode="&#xd4;" horiz-adv-x="1400" d="M131 303v889q0 303 301 303h533q305 0 305 -303v-893q0 -299 -305 -299h-533q-301 0 -301 303zM291 303q0 -143 141 -143h533q143 0 143 139v893q0 141 -143 141h-533q-141 0 -141 -141v-889zM359 1665l284 372h123l277 -372h-142l-198 276l-203 -276h-141z" />
<glyph unicode="&#xd5;" horiz-adv-x="1400" d="M131 303v889q0 303 301 303h533q305 0 305 -303v-893q0 -299 -305 -299h-533q-301 0 -301 303zM291 303q0 -143 141 -143h533q143 0 143 139v893q0 141 -143 141h-533q-141 0 -141 -141v-889zM324 1824q41 72 97 96.5t103 24.5q53 0 98.5 -14.5t87.5 -30.5t82 -30.5 t83 -14.5t68.5 20.5t47.5 61.5l84 -80q-33 -59 -85 -90t-115 -31q-53 0 -99.5 14.5t-87.5 31t-81 30.5t-83 14t-69.5 -20.5t-46.5 -61.5z" />
<glyph unicode="&#xd6;" horiz-adv-x="1400" d="M131 303v889q0 303 301 303h533q305 0 305 -303v-893q0 -299 -305 -299h-533q-301 0 -301 303zM291 303q0 -143 141 -143h533q143 0 143 139v893q0 141 -143 141h-533q-141 0 -141 -141v-889zM404 1732v184h182v-184h-182zM815 1732v184h183v-184h-183z" />
<glyph unicode="&#xd7;" horiz-adv-x="1071" d="M180 489l256 259l-256 258l113 114l258 -258l258 258l115 -114l-258 -258l258 -259l-115 -112l-258 256l-258 -256z" />
<glyph unicode="&#xd8;" horiz-adv-x="1400" d="M131 303v889q0 303 301 303h533q305 0 305 -303v-893q0 -299 -305 -299h-533q-301 0 -301 303zM291 303q0 -143 143 -143l348 1173h-350q-141 0 -141 -141v-889zM600 160h365q143 0 143 139v893q0 141 -158 141z" />
<glyph unicode="&#xd9;" horiz-adv-x="1400" d="M131 303v1192h160v-1192q0 -143 141 -143h533q143 0 143 139v1196h162v-1196q0 -299 -305 -299h-533q-301 0 -301 303zM377 1886v151l522 -270v-102z" />
<glyph unicode="&#xda;" horiz-adv-x="1400" d="M131 303v1192h160v-1192q0 -143 141 -143h533q143 0 143 139v1196h162v-1196q0 -299 -305 -299h-533q-301 0 -301 303zM500 1665v102l522 270v-151z" />
<glyph unicode="&#xdb;" horiz-adv-x="1400" d="M131 303v1192h160v-1192q0 -143 141 -143h533q143 0 143 139v1196h162v-1196q0 -299 -305 -299h-533q-301 0 -301 303zM359 1665l284 372h123l277 -372h-142l-198 276l-203 -276h-141z" />
<glyph unicode="&#xdc;" horiz-adv-x="1400" d="M131 303v1192h160v-1192q0 -143 141 -143h533q143 0 143 139v1196h162v-1196q0 -299 -305 -299h-533q-301 0 -301 303zM404 1732v184h182v-184h-182zM815 1732v184h183v-184h-183z" />
<glyph unicode="&#xdd;" horiz-adv-x="1331" d="M-6 1495h203l471 -633l469 633h200l-589 -778v-717h-160v717zM467 1665v102l522 270v-151z" />
<glyph unicode="&#xde;" horiz-adv-x="1173" d="M131 0v1495h160v-229h450q303 0 303 -303v-447q0 -301 -303 -301h-450v-215h-160zM291 377h450q141 0 142 139v447q0 141 -142 141h-450v-727z" />
<glyph unicode="&#xdf;" horiz-adv-x="1282" d="M131 0v1192q0 76 26.5 133t72.5 95t111 56.5t140 18.5q305 0 305 -303v-158q0 -72 34 -116t95 -44q131 0 188.5 -66.5t57.5 -219.5v-285q0 -303 -303 -303h-395v160h346q184 0 184 143v285q0 72 -28.5 98.5t-104.5 26.5q-111 0 -166 84t-55 237v158q0 72 -42 106.5 t-134 34.5q-184 0 -184 -141v-1192h-148z" />
<glyph unicode="&#xe0;" horiz-adv-x="1208" d="M117 285v39q0 281 301 280h405v-160h-405q-141 0 -142 -120v-39q0 -125 142 -125h356q141 0 141 143v445q0 141 -141 141h-567v160h567q301 0 301 -301v-445q0 -303 -301 -303h-356q-301 0 -301 285zM301 1440v151l522 -270v-102z" />
<glyph unicode="&#xe1;" horiz-adv-x="1208" d="M117 285v39q0 281 301 280h405v-160h-405q-141 0 -142 -120v-39q0 -125 142 -125h356q141 0 141 143v445q0 141 -141 141h-567v160h567q301 0 301 -301v-445q0 -303 -301 -303h-356q-301 0 -301 285zM424 1219v102l522 270v-151z" />
<glyph unicode="&#xe2;" horiz-adv-x="1208" d="M117 285v39q0 281 301 280h405v-160h-405q-141 0 -142 -120v-39q0 -125 142 -125h356q141 0 141 143v445q0 141 -141 141h-567v160h567q301 0 301 -301v-445q0 -303 -301 -303h-356q-301 0 -301 285zM283 1219l284 372h123l277 -372h-142l-198 276l-203 -276h-141z" />
<glyph unicode="&#xe3;" horiz-adv-x="1208" d="M117 285v39q0 281 301 280h405v-160h-405q-141 0 -142 -120v-39q0 -125 142 -125h356q141 0 141 143v445q0 141 -141 141h-567v160h567q301 0 301 -301v-445q0 -303 -301 -303h-356q-301 0 -301 285zM228 1378q41 72 97 96.5t103 24.5q53 0 98.5 -14.5t87.5 -30.5 t82 -30.5t83 -14.5t68.5 20.5t47.5 61.5l84 -80q-33 -59 -85 -90t-115 -31q-53 0 -99.5 14.5t-87.5 31t-81 30.5t-83 14t-69.5 -20.5t-46.5 -61.5z" />
<glyph unicode="&#xe4;" horiz-adv-x="1208" d="M117 285v39q0 281 301 280h405v-160h-405q-141 0 -142 -120v-39q0 -125 142 -125h356q141 0 141 143v445q0 141 -141 141h-567v160h567q301 0 301 -301v-445q0 -303 -301 -303h-356q-301 0 -301 285zM307 1286v184h182v-184h-182zM718 1286v184h183v-184h-183z" />
<glyph unicode="&#xe5;" horiz-adv-x="1208" d="M117 285v39q0 281 301 280h405v-160h-405q-141 0 -142 -120v-39q0 -125 142 -125h356q141 0 141 143v445q0 141 -141 141h-567v160h567q301 0 301 -301v-445q0 -303 -301 -303h-356q-301 0 -301 285zM418 1407q0 184 186 184t187 -184q0 -188 -187 -188q-186 0 -186 188z M492 1409q-1 -123 110 -123q121 0 121 117t-121 117q-111 0 -110 -111z" />
<glyph unicode="&#xe6;" horiz-adv-x="1634" d="M131 285v39q0 281 301 280h227v-160h-227q-141 0 -141 -120v-39q0 -125 141 -125h178q143 0 144 143v453q0 68 -38 100.5t-106 32.5h-391v160h391q72 0 127.5 -24t96.5 -77q70 100 221 101h178q303 0 303 -281v-43q0 -281 -303 -281h-225v160h225q143 0 143 121v43 q0 121 -143 121h-178q-68 0 -105 -35t-37 -109v-442q0 -72 37 -107.5t105 -35.5h391v-160h-391q-143 0 -221 102q-80 -102 -224 -102h-178q-301 0 -301 285z" />
<glyph unicode="&#xe7;" horiz-adv-x="950" d="M131 303v445q0 301 301 301h424v-160h-424q-141 0 -141 -141v-445q0 -143 141 -143h424v-160h-424q-301 0 -301 303zM451 -78h170v-162l-49 -180h-76l33 168h-78v174z" />
<glyph unicode="&#xe8;" horiz-adv-x="1189" d="M131 303v445q0 301 301 301h356q303 0 304 -281v-43q0 -281 -304 -281h-405v160h405q143 0 144 121v43q0 121 -144 121h-356q-141 0 -141 -141v-445q0 -143 141 -143h569v-160h-569q-301 0 -301 303zM273 1440v151l522 -270v-102z" />
<glyph unicode="&#xe9;" horiz-adv-x="1189" d="M131 303v445q0 301 301 301h356q303 0 304 -281v-43q0 -281 -304 -281h-405v160h405q143 0 144 121v43q0 121 -144 121h-356q-141 0 -141 -141v-445q0 -143 141 -143h569v-160h-569q-301 0 -301 303zM395 1219v102l522 270v-151z" />
<glyph unicode="&#xea;" horiz-adv-x="1189" d="M131 303v445q0 301 301 301h356q303 0 304 -281v-43q0 -281 -304 -281h-405v160h405q143 0 144 121v43q0 121 -144 121h-356q-141 0 -141 -141v-445q0 -143 141 -143h569v-160h-569q-301 0 -301 303zM252 1219l284 372h123l277 -372h-142l-198 276l-203 -276h-141z" />
<glyph unicode="&#xeb;" horiz-adv-x="1189" d="M131 303v445q0 301 301 301h356q303 0 304 -281v-43q0 -281 -304 -281h-405v160h405q143 0 144 121v43q0 121 -144 121h-356q-141 0 -141 -141v-445q0 -143 141 -143h569v-160h-569q-301 0 -301 303zM297 1286v184h182v-184h-182zM708 1286v184h183v-184h-183z" />
<glyph unicode="&#xec;" horiz-adv-x="419" d="M-110 1440v151l522 -270v-102zM131 0v1049h160v-1049h-160z" />
<glyph unicode="&#xed;" horiz-adv-x="419" d="M13 1219v102l522 270v-151zM131 0v1049h160v-1049h-160z" />
<glyph unicode="&#xee;" horiz-adv-x="419" d="M-129 1219l284 372h123l277 -372h-142l-198 276l-203 -276h-141zM131 0v1049h160v-1049h-160z" />
<glyph unicode="&#xef;" horiz-adv-x="419" d="M-84 1286v184h182v-184h-182zM131 0v1049h160v-1049h-160zM327 1286v184h183v-184h-183z" />
<glyph unicode="&#xf0;" d="M131 303v445q0 301 301 301h406v-160h-406q-141 0 -141 -141v-445q0 -143 141 -143h356q143 0 144 143v1192h160v-1192q0 -303 -304 -303h-356q-301 0 -301 303z" />
<glyph unicode="&#xf1;" d="M131 0v1049h657q303 0 304 -301v-748h-160v748q0 141 -144 141h-497v-889h-160zM215 1378q41 72 97 96.5t103 24.5q53 0 98.5 -14.5t87.5 -30.5t82 -30.5t83 -14.5t68.5 20.5t47.5 61.5l84 -80q-33 -59 -85 -90t-115 -31q-53 0 -99.5 14.5t-87.5 31t-81 30.5t-83 14 t-69.5 -20.5t-46.5 -61.5z" />
<glyph unicode="&#xf2;" d="M131 303v445q0 301 301 301h356q303 0 304 -301v-449q0 -299 -304 -299h-356q-301 0 -301 303zM289 1440v151l522 -270v-102zM291 303q0 -143 141 -143h356q143 0 144 139v449q0 141 -144 141h-356q-141 0 -141 -141v-445z" />
<glyph unicode="&#xf3;" d="M131 303v445q0 301 301 301h356q303 0 304 -301v-449q0 -299 -304 -299h-356q-301 0 -301 303zM291 303q0 -143 141 -143h356q143 0 144 139v449q0 141 -144 141h-356q-141 0 -141 -141v-445zM412 1219v102l522 270v-151z" />
<glyph unicode="&#xf4;" d="M131 303v445q0 301 301 301h356q303 0 304 -301v-449q0 -299 -304 -299h-356q-301 0 -301 303zM269 1219l284 372h123l277 -372h-142l-198 276l-203 -276h-141zM291 303q0 -143 141 -143h356q143 0 144 139v449q0 141 -144 141h-356q-141 0 -141 -141v-445z" />
<glyph unicode="&#xf5;" d="M131 303v445q0 301 301 301h356q303 0 304 -301v-449q0 -299 -304 -299h-356q-301 0 -301 303zM236 1378q41 72 97 96.5t103 24.5q53 0 98.5 -14.5t87.5 -30.5t82 -30.5t83 -14.5t68.5 20.5t47.5 61.5l84 -80q-33 -59 -85 -90t-115 -31q-53 0 -99.5 14.5t-87.5 31 t-81 30.5t-83 14t-69.5 -20.5t-46.5 -61.5zM291 303q0 -143 141 -143h356q143 0 144 139v449q0 141 -144 141h-356q-141 0 -141 -141v-445z" />
<glyph unicode="&#xf6;" d="M131 303v445q0 301 301 301h356q303 0 304 -301v-449q0 -299 -304 -299h-356q-301 0 -301 303zM291 303q0 -143 141 -143h356q143 0 144 139v449q0 141 -144 141h-356q-141 0 -141 -141v-445zM314 1286v184h182v-184h-182zM725 1286v184h183v-184h-183z" />
<glyph unicode="&#xf7;" horiz-adv-x="976" d="M53 668v159h891v-159h-891zM410 238v180h178v-180h-178zM410 1069v178h178v-178h-178z" />
<glyph unicode="&#xf8;" d="M131 303v445q0 301 301 301h356q303 0 304 -301v-449q0 -299 -304 -299h-356q-301 0 -301 303zM291 303q0 -141 135 -143l225 729h-219q-141 0 -141 -141v-445zM594 160h194q143 0 144 139v449q0 123 -117 139z" />
<glyph unicode="&#xf9;" d="M131 303v746h160v-746q0 -143 141 -143h356q143 0 144 139v750h160v-750q0 -299 -304 -299h-356q-301 0 -301 303zM289 1440v151l522 -270v-102z" />
<glyph unicode="&#xfa;" d="M131 303v746h160v-746q0 -143 141 -143h356q143 0 144 139v750h160v-750q0 -299 -304 -299h-356q-301 0 -301 303zM412 1219v102l522 270v-151z" />
<glyph unicode="&#xfb;" d="M131 303v746h160v-746q0 -143 141 -143h356q143 0 144 139v750h160v-750q0 -299 -304 -299h-356q-301 0 -301 303zM269 1219l284 372h123l277 -372h-142l-198 276l-203 -276h-141z" />
<glyph unicode="&#xfc;" d="M131 303v746h160v-746q0 -143 141 -143h356q143 0 144 139v750h160v-750q0 -299 -304 -299h-356q-301 0 -301 303zM314 1286v184h182v-184h-182zM725 1286v184h183v-184h-183z" />
<glyph unicode="&#xfd;" d="M131 303v746h160v-746q0 -143 141 -143h500v889h160v-1102q0 -301 -304 -301h-391v157h391q143 0 144 144v53h-500q-301 0 -301 303zM412 1219v102l522 270v-151z" />
<glyph unicode="&#xfe;" horiz-adv-x="1214" d="M131 -354v1849h160v-446h487q303 0 303 -301v-445q0 -303 -303 -303h-487v-354h-160zM291 160h487q143 0 144 143v445q0 141 -144 141h-487v-729z" />
<glyph unicode="&#xff;" d="M131 303v746h160v-746q0 -143 141 -143h500v889h160v-1102q0 -301 -304 -301h-391v157h391q143 0 144 144v53h-500q-301 0 -301 303zM314 1286v184h182v-184h-182zM725 1286v184h183v-184h-183z" />
<glyph unicode="&#x152;" horiz-adv-x="1474" d="M131 303v889q0 303 301 303h178q41 0 77 -6t65 -23v29h641v-162h-482v-463h482v-157h-484v-553h484v-160h-641v29q-29 -12 -65 -20.5t-77 -8.5h-178q-301 0 -301 303zM291 303q0 -143 141 -143h178q125 0 142 108v955q-16 111 -142 110h-178q-141 0 -141 -141v-889z" />
<glyph unicode="&#x153;" horiz-adv-x="1742" d="M131 303v445q0 301 301 301h232q147 0 221 -86q74 86 223 86h231q303 0 303 -293v-13q0 -299 -303 -299h-280v160h280q143 0 144 139v11q0 135 -144 135h-231q-66 0 -104.5 -35t-38.5 -109v-440q0 -72 39.5 -108.5t103.5 -36.5h444v-160h-444q-143 0 -223 84 q-78 -84 -221 -84h-232q-301 0 -301 303zM291 303q0 -143 141 -143h232q68 0 104.5 35.5t36.5 107.5v445q0 141 -141 141h-232q-141 0 -141 -141v-445z" />
<glyph unicode="&#x178;" horiz-adv-x="1331" d="M-6 1495h203l471 -633l469 633h200l-589 -778v-717h-160v717zM369 1732v184h182v-184h-182zM780 1732v184h183v-184h-183z" />
<glyph unicode="&#x2c6;" horiz-adv-x="835" d="M76 1219l284 372h123l277 -372h-142l-198 276l-203 -276h-141z" />
<glyph unicode="&#x2dc;" horiz-adv-x="907" d="M76 1378q41 72 97 96.5t103 24.5q53 0 98.5 -14.5t87.5 -30.5t82 -30.5t83 -14.5t68.5 20.5t47.5 61.5l84 -80q-33 -59 -85 -90t-115 -31q-53 0 -99.5 14.5t-87.5 31t-81 30.5t-83 14t-69.5 -20.5t-46.5 -61.5z" />
<glyph unicode="&#x2000;" horiz-adv-x="1018" />
<glyph unicode="&#x2001;" horiz-adv-x="2037" />
<glyph unicode="&#x2002;" horiz-adv-x="1018" />
<glyph unicode="&#x2003;" horiz-adv-x="2037" />
<glyph unicode="&#x2004;" horiz-adv-x="679" />
<glyph unicode="&#x2005;" horiz-adv-x="509" />
<glyph unicode="&#x2006;" horiz-adv-x="339" />
<glyph unicode="&#x2007;" horiz-adv-x="339" />
<glyph unicode="&#x2008;" horiz-adv-x="254" />
<glyph unicode="&#x2009;" horiz-adv-x="407" />
<glyph unicode="&#x200a;" horiz-adv-x="113" />
<glyph unicode="&#x2010;" horiz-adv-x="700" d="M94 444v160h514v-160h-514z" />
<glyph unicode="&#x2011;" horiz-adv-x="700" d="M94 444v160h514v-160h-514z" />
<glyph unicode="&#x2012;" horiz-adv-x="700" d="M94 444v160h514v-160h-514z" />
<glyph unicode="&#x2013;" horiz-adv-x="958" d="M94 444v160h770v-160h-770z" />
<glyph unicode="&#x2014;" horiz-adv-x="1591" d="M94 446v158h1403v-158h-1403z" />
<glyph unicode="&#x2018;" horiz-adv-x="268" d="M45 1165v168l51 178h82l-33 -165h78v-181h-178z" />
<glyph unicode="&#x2019;" horiz-adv-x="268" d="M45 1313v180h178v-170l-49 -178h-82l33 168h-80z" />
<glyph unicode="&#x201a;" horiz-adv-x="268" d="M45 0v180h178v-168l-49 -178h-82l33 166h-80z" />
<glyph unicode="&#x201c;" horiz-adv-x="536" d="M45 1165v168l51 178h82l-33 -165h78v-181h-178zM313 1165v168l51 178h82l-33 -165h78v-181h-178z" />
<glyph unicode="&#x201d;" horiz-adv-x="536" d="M45 1313v180h178v-170l-49 -178h-82l33 168h-80zM313 1313v180h178v-170l-49 -178h-82l33 168h-80z" />
<glyph unicode="&#x201e;" horiz-adv-x="536" d="M45 0v180h178v-168l-49 -178h-82l33 166h-80zM313 0v180h178v-168l-49 -178h-82l33 166h-80z" />
<glyph unicode="&#x2022;" horiz-adv-x="1075" d="M131 424l408 706l407 -706h-815z" />
<glyph unicode="&#x2026;" horiz-adv-x="2181" d="M131 0v180h176v-180h-176zM1003 0v180h176v-180h-176zM1876 0v180h176v-180h-176z" />
<glyph unicode="&#x202f;" horiz-adv-x="407" />
<glyph unicode="&#x2039;" horiz-adv-x="577" d="M76 455v145l426 318v-201l-258 -191l258 -196v-199z" />
<glyph unicode="&#x203a;" horiz-adv-x="577" d="M76 131v201l256 190l-256 197v199l426 -322v-145z" />
<glyph unicode="&#x205f;" horiz-adv-x="509" />
<glyph unicode="&#x20ac;" horiz-adv-x="966" d="M41 535v157h88v107h-88v162h88v231q0 303 303 303h422l-66 -162h-356q-141 0 -141 -141v-231h346l-64 -162h-282v-107h237l-63 -157h-174v-232q0 -143 141 -143h479v-160h-479q-303 0 -303 303v232h-88z" />
<glyph unicode="&#x2122;" horiz-adv-x="1529" d="M84 1430v65h522v-65h-221v-670h-72v670h-229zM741 760v735h70l262 -641l264 641h70v-735h-72v565l-231 -565h-60l-231 563v-563h-72z" />
<glyph unicode="&#xe000;" horiz-adv-x="1044" d="M0 0v1044h1044v-1044h-1044z" />
</font>
</defs>
</svg>
